<svg width="37" height="30" viewBox="0 0 37 30" fill="none" xmlns="http://www.w3.org/2000/svg">
<path d="M36.8506 17.2566C36.8506 16.4669 36.8612 15.6878 36.8612 14.8981C36.8612 14.1724 36.8612 13.4467 36.8612 12.7317V12.5182C36.8612 10.5866 36.8506 8.60159 36.8719 6.63795C36.8826 5.65613 36.5304 4.82374 35.8154 4.10872C34.7055 2.98816 33.2755 2.39048 32.1656 1.98495C28.345 0.608262 24.4604 0.245425 21.1628 0.0746727C20.2663 0.0319847 19.3485 0 18.4307 0C16.5418 0 14.6101 0.0960271 12.6892 0.298795C9.78639 0.597611 7.44924 1.05652 5.33618 1.7502C4.16226 2.13439 2.64685 2.72135 1.39823 3.77788C0.437748 4.59962 -0.0104859 5.54939 0.000186051 6.78735C0.032202 12.4969 0.0215405 18.2278 0.0108685 23.1582C0.0108685 24.1507 0.352362 24.9724 1.06739 25.6875C2.18794 26.808 3.60734 27.4056 4.71723 27.8112C8.5378 29.1879 12.4224 29.5507 15.7201 29.7215C16.6272 29.7642 17.5343 29.7962 18.4521 29.7962C20.341 29.7962 22.262 29.7001 24.1936 29.4974C27.1924 29.1879 29.583 28.7076 31.7281 27.9819C32.8059 27.6191 34.2039 27.0642 35.3885 26.093C36.4344 25.2393 36.9039 24.2467 36.8826 22.9661C36.8292 21.0558 36.8399 19.1242 36.8506 17.2566ZM1.07807 12.785C1.07807 11.6218 1.07807 10.4692 1.07807 9.30595V8.63363L1.24883 8.76166C3.99153 10.832 7.25716 11.5151 10.1066 11.9846C14.1833 12.6676 18.3774 12.817 22.9237 12.4542C25.6664 12.2301 29.2628 11.8032 32.7205 10.4052C33.8624 9.9463 34.7802 9.41267 35.602 8.71899L35.7727 8.56959V9.29526C35.7727 10.3091 35.7727 11.323 35.7727 12.3262V12.7637C35.7727 16.1467 35.7727 19.6471 35.7834 23.1049C35.7834 23.8946 35.5059 24.5029 34.9083 25.0365C33.8624 25.9542 32.5925 26.4772 31.4932 26.8614C29.2308 27.6618 26.7335 28.1741 23.6067 28.4835C21.9098 28.6543 20.1809 28.7397 18.4521 28.7397C17.3315 28.7397 16.2109 28.7076 15.1011 28.6329C12.1556 28.4408 8.28167 28.0353 4.55715 26.5519C3.41524 26.093 2.60415 25.6235 1.92114 25.0258C1.32351 24.5029 1.04606 23.8839 1.05673 23.0942C1.08874 19.6685 1.07807 16.168 1.07807 12.785ZM35.3885 7.34231C34.8869 8.01465 34.1933 8.44152 33.585 8.77235C31.6107 9.82887 29.4549 10.3518 27.8007 10.6933C25.0047 11.2696 21.9845 11.5471 18.2813 11.5684C13.5857 11.5151 9.83978 11.0348 6.47811 10.0423C5.03739 9.61542 3.52195 9.08182 2.19863 8.06799C1.45159 7.4917 1.06739 6.89411 1.06739 6.29648C1.06739 5.69884 1.44091 5.1012 2.18794 4.52491C3.54329 3.46839 5.13345 2.92412 6.64887 2.49724C10.4694 1.40869 14.6102 0.949797 19.6687 1.05652C24.0869 1.15256 27.6834 1.68614 30.9703 2.74267C32.4431 3.21224 33.5103 3.71385 34.4387 4.37552C34.8229 4.65299 35.1217 4.93042 35.3565 5.23991C35.9115 5.94426 35.9221 6.63796 35.3885 7.34231Z" fill="#030303"/>
<path d="M13.9273 23.094C13.4897 23.5209 13.2763 24.0545 13.2656 24.7055C13.2656 25.7834 13.9806 26.6905 15.0265 26.9466C15.2186 27 15.4107 27.0106 15.6028 27.0106C16.083 27.0106 16.5526 26.8826 17.0008 26.7438C17.9186 26.4557 18.8043 26.445 19.7328 26.6905C20.1597 26.8078 20.5119 26.8826 20.8534 26.9359C21.9419 27.128 22.9024 26.6584 23.372 25.73C23.8415 24.7908 23.6388 23.745 22.8491 22.9766C22.0913 22.2509 21.3443 21.5359 20.5866 20.8422C19.3379 19.6897 17.5878 19.679 16.3285 20.8102C15.4854 21.5786 14.685 22.3577 13.9273 23.094ZM18.3455 21.0663C18.3455 21.0663 18.3561 21.0663 18.3668 21.0663C18.9538 21.0557 19.4233 21.2371 19.8075 21.5893C20.6506 22.379 21.419 23.1047 22.1554 23.809C22.5929 24.2359 22.6996 24.8122 22.4115 25.3138C22.1233 25.826 21.6218 26.0181 20.9921 25.8474C20.3838 25.6873 19.7435 25.5806 19.1352 25.4845L19.0925 25.4739C18.2494 25.3351 17.4277 25.5166 16.6593 25.7193C16.3285 25.8047 16.0297 25.8687 15.7522 25.9114C15.6988 25.9221 15.6348 25.9221 15.5707 25.9221C15.1332 25.9221 14.7277 25.6766 14.5142 25.2711C14.2474 24.7802 14.3114 24.2359 14.6636 23.8837C15.4427 23.1154 16.2965 22.315 17.2463 21.4506C17.5131 21.2051 17.9079 21.0663 18.3455 21.0663Z" fill="#030303"/>
<path d="M20.5224 19.5616C20.5331 19.5616 20.5438 19.5616 20.5544 19.5616C21.1307 19.5509 21.6537 19.2308 21.9952 18.6972C22.294 18.2169 22.4327 17.6727 22.454 16.9683C22.4434 16.2426 22.2939 15.6877 21.9738 15.2074C21.6323 14.6845 21.1094 14.375 20.5438 14.375H20.5224C19.9675 14.375 19.4445 14.6631 19.0924 15.1754C18.4414 16.1252 18.4307 17.8007 19.0924 18.7612C19.4339 19.2628 19.9568 19.5616 20.5224 19.5616ZM19.9675 18.1209C19.7647 17.8114 19.6686 17.4379 19.6793 16.9576C19.6686 16.4881 19.7647 16.1039 19.9675 15.7944C20.1169 15.5703 20.309 15.4422 20.5118 15.4315H20.5224C20.7145 15.4315 20.9066 15.5489 21.0667 15.773C21.4829 16.3493 21.4829 17.566 21.0667 18.1422C20.9066 18.3557 20.7145 18.473 20.5011 18.473C20.309 18.4837 20.1169 18.3557 19.9675 18.1209Z" fill="#030303"/>
<path d="M16.3604 19.5616C16.3711 19.5616 16.371 19.5616 16.3817 19.5616C16.926 19.5509 17.4275 19.2628 17.7584 18.7826C18.0999 18.281 18.26 17.7047 18.26 16.9896C18.26 16.1359 18.0572 15.4956 17.6197 14.9833C17.2888 14.5885 16.8299 14.375 16.3497 14.375H16.3177C15.8267 14.3857 15.3465 14.6312 15.0264 15.0474C14.2687 16.0185 14.2367 17.8221 14.973 18.8252C15.3145 19.2841 15.8161 19.5616 16.3604 19.5616ZM15.7734 15.8157C15.9335 15.5703 16.1363 15.4422 16.3497 15.4422C16.4991 15.4422 16.7125 15.5062 16.9046 15.805C17.1074 16.1145 17.2034 16.4881 17.1928 16.9683C17.2034 17.4165 17.1181 17.7901 16.926 18.0889C16.7659 18.3343 16.5631 18.473 16.3497 18.4837C16.1363 18.4837 15.9335 18.345 15.7734 18.1102C15.3892 17.5232 15.3892 16.392 15.7734 15.8157Z" fill="#030303"/>
<path d="M22.3687 21.0343C22.5288 21.6213 22.913 21.9948 23.4786 22.1229C23.5853 22.1442 23.6814 22.1549 23.7774 22.1549C24.1936 22.1549 24.5671 21.9522 24.9086 21.5359C25.3675 20.981 25.6237 20.2873 25.6663 19.4442C25.6557 19.0707 25.613 18.7719 25.5063 18.4944C25.3142 17.9715 24.898 17.598 24.4178 17.5126C23.9482 17.4165 23.4572 17.598 23.1051 17.9928C22.3047 18.8573 22.0592 19.8818 22.3687 21.0343ZM23.9161 18.6652C24.0015 18.6012 24.0869 18.5692 24.1616 18.5692C24.1829 18.5692 24.2043 18.5691 24.2149 18.5798C24.311 18.6011 24.3857 18.6652 24.4497 18.7932C24.5565 18.996 24.6098 19.2308 24.5991 19.4976V19.5083C24.5671 19.9351 24.4711 20.4794 24.0336 20.917C23.9162 21.0344 23.7987 21.0877 23.692 21.0664C23.5853 21.045 23.4893 20.9597 23.4039 20.7996C23.1478 20.2767 23.4466 19.028 23.9161 18.6652Z" fill="#030303"/>
<path d="M13.1375 22.1446C13.2228 22.1446 13.3082 22.1339 13.3936 22.1233C13.8738 22.0272 14.2687 21.675 14.4715 21.1521C14.877 20.1276 14.4394 18.5055 13.5963 17.8118C13.2762 17.5557 12.892 17.4383 12.5185 17.4916C12.145 17.545 11.8034 17.7691 11.5686 18.1106C11.2912 18.5161 11.2272 18.9857 11.2058 19.4019C11.2485 20.3517 11.526 21.0774 12.0489 21.6323C12.3584 21.9632 12.7426 22.1446 13.1375 22.1446ZM13.5217 20.5758C13.4896 20.7146 13.4256 20.96 13.2015 21.0347C13.1695 21.0454 13.1268 21.0561 13.0948 21.0561C12.924 21.0561 12.8066 20.9067 12.7319 20.8106L12.6999 20.7679C12.4117 20.4157 12.273 19.9889 12.2517 19.4233V19.4126C12.2624 19.3699 12.2623 19.3165 12.273 19.2525C12.2944 18.9964 12.3157 18.6442 12.6786 18.5908C12.7106 18.5908 12.7319 18.5801 12.7532 18.5801C13.0627 18.5801 13.2015 18.9217 13.3082 19.1778L13.3402 19.2418C13.5003 19.594 13.6497 20.0636 13.5217 20.5758L13.575 20.5865L13.5217 20.5758Z" fill="#030303"/>
<path d="M32.902 4.78091C31.9309 4.17261 30.8209 3.70302 29.3055 3.26547C26.264 2.37969 22.9023 1.95284 18.7296 1.91016C16.4137 1.92083 14.5888 2.01688 12.8066 2.23032C9.90382 2.58249 7.72674 3.09476 5.76309 3.89516C4.86664 4.25801 3.84214 4.71687 3.05241 5.51727C2.46546 6.1149 2.46547 6.52044 3.0631 7.11807C3.6714 7.72637 4.40774 8.11057 5.05873 8.40939C6.97969 9.29517 9.13544 9.8821 11.8461 10.2556C14.1086 10.5651 16.3497 10.7252 18.5482 10.7252C21.5683 10.7252 24.5138 10.4264 27.3632 9.83943C29.615 9.36986 31.3438 8.75088 32.8059 7.86511C33.3502 7.54495 33.713 7.23548 33.9905 6.87263C34.3213 6.44575 34.3213 6.13627 33.9905 5.69871C33.681 5.29318 33.2649 5.00502 32.902 4.78091ZM19.3912 9.59399C19.1992 9.59399 19.0177 9.59399 18.8363 9.59399C14.8129 9.59399 11.7288 9.29516 8.83666 8.61215C7.32123 8.2493 5.72043 7.79043 4.35442 6.82996L4.2477 6.75523C3.92754 6.53112 3.78877 6.43508 3.78877 6.28567C3.78877 6.13627 3.93817 6.0402 4.25833 5.83743L4.37573 5.76276C5.99787 4.72757 7.79076 4.23663 9.48761 3.86311C13.3615 2.99868 17.5663 2.75322 22.3367 3.11607C25.5703 3.36153 28.1849 3.89512 30.5648 4.81291C31.4826 5.16508 32.1976 5.52796 32.8166 5.96551C32.9233 6.04022 33.0514 6.14694 33.0514 6.28567C33.0514 6.42441 32.934 6.5311 32.8166 6.62715C31.5146 7.61964 29.9992 8.11056 28.6972 8.45207C25.9758 9.16709 22.9343 9.54063 19.3912 9.59399V9.64735V9.59399Z" fill="#030303"/>
</svg>
