<svg width="23" height="24" viewBox="0 0 23 24" fill="none" xmlns="http://www.w3.org/2000/svg">
<path d="M22.6121 9.96562C22.6031 9.43726 22.5986 9.00741 22.5897 8.68054C22.5807 8.35815 22.5718 8.00442 22.5583 7.6283C22.4957 6.46411 22.3255 5.5462 22.0389 4.87903C21.7658 4.15365 21.327 3.48648 20.7225 2.882C20.118 2.27752 19.4509 1.83871 18.7255 1.56557C18.0449 1.279 17.1315 1.10438 15.9807 1.04617C15.6046 1.03274 15.2464 1.01483 14.915 1.00139C14.5792 0.987959 14.1538 0.979004 13.6299 0.979004H9.00006C8.48065 0.979004 8.0508 0.987959 7.71945 1.00139C7.38363 1.01483 7.02989 1.03274 6.65377 1.04617C5.48958 1.10438 4.57167 1.279 3.9045 1.56557C3.17912 1.83871 2.51195 2.27752 1.90747 2.882C1.30299 3.48648 0.864182 4.15365 0.591046 4.87903C0.304477 5.5462 0.12985 6.45963 0.0716411 7.6283C0.0582082 8.00442 0.0447731 8.35815 0.0358178 8.68054C0.0268626 9.00741 0.0223849 9.43726 0.0134296 9.96562C0.00447436 10.494 0 11.2686 0 12.2806C0 13.3104 0.00447436 14.0895 0.0134296 14.6179C0.0179073 15.1463 0.0268626 15.5716 0.0358178 15.8985C0.0447731 16.2254 0.0582082 16.5746 0.0716411 16.9552C0.12985 18.1194 0.304477 19.0373 0.591046 19.7C0.864182 20.4254 1.30299 21.0926 1.90747 21.697C2.51195 22.3015 3.17464 22.7403 3.9045 23.0135C4.57167 23.3 5.48511 23.4747 6.65377 23.5329C7.02989 23.5463 7.38363 23.5642 7.71049 23.5776C8.03288 23.5911 8.46274 23.6 8.9911 23.6H13.6299C14.1538 23.6 14.5792 23.5956 14.915 23.5776C15.2464 23.5642 15.6046 23.5463 15.9807 23.5329C17.1449 23.4702 18.0628 23.3 18.7255 23.0135C19.4509 22.7403 20.118 22.3015 20.7225 21.697C21.327 21.0926 21.7658 20.4254 22.0389 19.7C22.3255 19.0328 22.5001 18.1194 22.5583 16.9552C22.5718 16.5791 22.5852 16.2254 22.5897 15.8985C22.5986 15.5716 22.6031 15.1463 22.6121 14.6179C22.621 14.0851 22.6255 13.3104 22.6255 12.2806C22.6255 11.2686 22.621 10.494 22.6121 9.96562ZM20.5837 14.5731C20.5837 15.088 20.5748 15.5045 20.5613 15.8224C20.5479 16.1403 20.53 16.4895 20.5165 16.8657C20.4404 17.909 20.3106 18.603 20.127 18.9522C19.9479 19.4493 19.6658 19.8881 19.2852 20.2687C18.9225 20.6493 18.4927 20.9269 17.9956 21.1105C17.6464 21.2941 16.9434 21.4194 15.8867 21.4955C15.5061 21.509 15.1613 21.5224 14.8434 21.5314C14.5255 21.5403 14.109 21.5448 13.5941 21.5538C13.0792 21.5627 12.3225 21.5627 11.324 21.5627C10.3075 21.5627 9.54633 21.5582 9.0314 21.5538C8.51647 21.5448 8.10005 21.5403 7.78213 21.5314C7.46422 21.5224 7.11497 21.509 6.73885 21.4955C5.69556 21.4194 4.99705 21.2941 4.65227 21.1105C4.15077 20.9135 3.71644 20.6358 3.33584 20.2687C2.95972 19.8926 2.67763 19.4537 2.49404 18.9522C2.31494 18.603 2.18509 17.909 2.10897 16.8657C2.09553 16.4851 2.07762 16.1403 2.06419 15.8224C2.05076 15.5045 2.0418 15.088 2.0418 14.5731V10.0104C2.0418 9.49547 2.04628 9.07906 2.06419 8.76114C2.07762 8.44323 2.09553 8.09397 2.10897 7.71785C2.18509 6.66113 2.31494 5.95814 2.49404 5.60888C2.67763 5.11187 2.95524 4.67753 3.33584 4.31485C3.71644 3.93872 4.15077 3.65663 4.65227 3.47305C4.99705 3.28946 5.69556 3.16409 6.73885 3.08797C7.07467 3.05663 7.37915 3.03872 7.65676 3.02976C7.93885 3.02081 8.27468 3.01633 8.66423 3.01633H13.5896C14.1046 3.01633 14.521 3.02529 14.8389 3.03872C15.1568 3.05215 15.5061 3.07006 15.8822 3.08349C16.9389 3.15961 17.6419 3.28499 17.9912 3.46857C18.4882 3.65215 18.9225 3.92977 19.2807 4.31037C19.6613 4.67306 19.9389 5.10739 20.1225 5.60441C20.3061 5.95366 20.4315 6.65665 20.5121 7.71337C20.5255 8.0895 20.5389 8.43875 20.5568 8.75666C20.5703 9.07457 20.5792 9.491 20.5792 10.0059V14.5731H20.5837Z" fill="#FFC397"/>
<path d="M15.4294 8.17465C14.2965 7.0418 12.9264 6.47314 11.3189 6.47314C9.71592 6.47314 8.34577 7.0418 7.21292 8.17465C6.08008 9.30749 5.51142 10.6777 5.51142 12.2806C5.51142 13.9016 6.08008 15.2762 7.21292 16.4001C8.34577 17.5284 9.71592 18.0926 11.3189 18.0926C12.9219 18.0926 14.2921 17.5284 15.4294 16.4001C16.5622 15.2762 17.1309 13.9016 17.1309 12.2806C17.1354 10.6777 16.5667 9.30749 15.4294 8.17465ZM13.9786 14.9583C13.2398 15.7016 12.3533 16.0687 11.3234 16.0687C10.2801 16.0687 9.38906 15.6971 8.64577 14.9583C7.90696 14.2195 7.53531 13.3239 7.53531 12.2806C7.53531 11.2553 7.90696 10.3687 8.64577 9.6254C9.38906 8.88659 10.2801 8.51495 11.3234 8.51495C12.3533 8.51495 13.2398 8.88659 13.9786 9.6254C14.7219 10.3687 15.0891 11.2553 15.0891 12.2806C15.0891 13.3239 14.7219 14.215 13.9786 14.9583Z" fill="#FFC397"/>
<path d="M18.7027 6.24018C18.7027 6.62078 18.5684 6.94317 18.3042 7.20735C18.04 7.47153 17.7266 7.60586 17.3639 7.60586C16.9877 7.60586 16.6654 7.47153 16.4012 7.20735C16.1325 6.94317 16.0027 6.62078 16.0027 6.24018C16.0027 5.87749 16.1325 5.56406 16.4012 5.29988C16.6654 5.0357 16.9877 4.90137 17.3639 4.90137C17.74 4.90137 18.0579 5.0357 18.3176 5.29988C18.5684 5.56406 18.7027 5.87749 18.7027 6.24018Z" fill="#FFC397"/>
</svg>
