<svg width="129" height="116" viewBox="0 0 129 116" fill="none" xmlns="http://www.w3.org/2000/svg">
<path d="M70.4835 113.061H93.9781V108.514L92.7149 104.472L90.1886 103.714L85.3887 102.956L80.8413 102.451H79.0729L78.5677 94.6194L77.5572 85.2721L78.5677 73.6512L83.3676 72.388L84.8834 70.6196L87.4097 68.0933L90.9465 61.7776L94.7359 57.4829L96.5043 54.1987V46.1146L101.304 37.2726L104.841 32.4726L106.61 31.2095L119.999 28.4305L122.525 27.1674L126.82 17.0622L119.999 14.0307L114.188 11.5044L112.925 6.70443L106.104 2.1571L99.7885 0.641327H93.4728L90.9465 2.1571L88.9255 6.70443L86.3992 8.47283L83.3676 14.0307L75.2835 20.0938L71.9993 25.9042H69.9783L59.3679 33.4831L45.7259 44.8514L42.6943 49.3988L35.1155 55.4619L23.4945 70.6196L16.6735 76.4301L13.8946 82.7458L8.08413 94.6194L6.82099 102.198L4.2947 104.725L1.7684 106.998L0 109.272L1.7684 113.061L5.81047 115.082L55.3258 111.04L51.2837 103.714L55.3258 89.3142H59.3679L61.1363 87.2931L63.6626 91.5878L70.4835 113.061Z" fill="white"/>
<path d="M81.2718 72.5116C83.0084 69.6288 83.3557 65.3743 83.6509 61.0328C82.4874 60.9286 82.4353 61.9358 81.2718 61.8316C82.2269 64.9922 80.3167 69.4725 81.2718 72.5116Z" fill="#191919"/>
<path d="M77.7116 87.1508C76.6176 89.3737 76.9996 95.7643 77.3122 99.8105C79.8476 97.5877 77.4337 91.006 77.7116 87.1508Z" fill="#191919"/>
<path d="M97.1101 31.7367C96.9885 31.1984 96.1202 31.4068 95.5298 31.3373C95.5472 33.0218 96.0681 34.2374 96.3286 35.6961C97.4748 35.262 95.964 32.1535 97.1101 31.7367Z" fill="#191919"/>
<path d="M45.6548 102.988C47.2177 103.492 46.8357 102.051 46.8357 101.009C46.3668 101.599 45.6895 101.981 45.6548 102.988Z" fill="#191919"/>
<path d="M54.7547 86.3694C53.5044 89.7384 53.1918 94.0278 52.3756 97.8482C54.1295 95.2781 56.717 88.8528 54.7547 86.3694Z" fill="#191919"/>
<path d="M53.9554 108.928C53.8338 110.89 57.0117 110.299 56.7339 108.928C55.4835 109.483 55.4141 109.014 53.9554 108.928Z" fill="#191919"/>
<path d="M51.9749 103.787C51.9749 105.367 51.9749 106.948 51.9749 108.545C53.6768 108.389 53.069 105.941 53.5552 104.586C54.7014 104.881 53.1906 107.851 54.3541 108.146C56.2469 108.459 54.2498 104.881 55.5349 104.586C56.681 104.881 55.1702 107.851 56.3337 108.146C58.0009 108.007 56.8895 104.655 56.7332 103.787C55.1529 103.787 53.5726 103.787 51.9749 103.787Z" fill="#191919"/>
<path d="M60.2936 89.1306C59.6337 89.1306 58.9738 89.1306 58.3139 89.1306C58.0013 89.9815 57.3588 91.3361 57.9145 91.9091C59.9636 92.2217 60.3457 90.9019 60.2936 89.1306Z" fill="#191919"/>
<path d="M91.9691 43.6151C91.6738 43.9277 92.9242 46.0637 93.9488 46.3936C93.9488 45.5948 93.9488 44.8134 93.9488 44.0145C93.3757 43.7888 91.8996 44.466 91.9691 43.6151Z" fill="#191919"/>
<path d="M100.688 10.7415C99.142 10.8456 99.9235 14.7356 100.288 15.4997C101.191 14.7009 100.427 12.2175 100.688 10.7415Z" fill="#191919"/>
<path d="M100.288 25.3983C97.492 27.8816 99.5759 35.2447 98.3082 39.2561C97.2836 36.9118 98.8639 33.7512 98.3082 30.5385C96.971 34.2201 97.1968 39.4645 96.728 43.997C99.6801 39.5861 100.062 32.5703 100.288 25.3983Z" fill="#191919"/>
<path d="M93.5493 105.767C92.8895 106.583 92.8895 110.108 93.5493 110.907C95.0428 110.647 93.4452 107.226 93.5493 105.767Z" fill="#191919"/>
<path d="M99.4882 9.96027C98.2205 10.6202 98.0468 14.0239 99.0887 14.7185C100.009 13.9023 99.245 11.419 99.4882 9.96027Z" fill="#191919"/>
<path d="M58.3138 103.787C56.8551 103.805 57.4282 107.903 57.9144 108.545C59.7205 108.181 58.2791 104.951 58.3138 103.787Z" fill="#191919"/>
<path d="M118.105 27.7772C117.654 27.8467 117.393 27.6904 117.306 27.3778C116.247 27.5167 115.969 28.4197 115.726 29.3575C116.664 28.9754 118.227 29.2359 118.105 27.7772Z" fill="#191919"/>
<path d="M113.746 29.7569C114.788 29.3401 115.517 28.6107 115.725 27.3778C115.204 27.3778 114.666 27.3778 114.145 27.3778C114.423 28.5934 113.451 28.5413 113.746 29.7569Z" fill="#191919"/>
<path d="M125.224 20.6401C123.557 19.7891 123.852 24.2695 122.845 25.3983C124.616 24.7905 124.39 22.1856 125.224 20.6401Z" fill="#191919"/>
<path d="M113.347 28.1769C111.871 27.7601 112.062 29.0104 111.367 29.3578C111.94 30.4171 113.538 29.1841 113.347 28.1769Z" fill="#191919"/>
<path d="M72.5716 26.5791C74.3429 17.5316 84.5019 16.8717 86.8289 8.36245C87.3846 7.59836 88.8781 7.77201 89.6074 7.18157C90.1979 3.4132 91.726 0.582579 96.3453 0.843065C96.0675 -0.598293 93.4626 0.304731 91.9865 0.0442442C90.2847 1.38141 89.1038 3.22219 88.826 5.98335C86.0822 8.04988 82.7479 10.3421 81.706 15.083C77.9724 17.6879 72.6584 18.7125 72.2069 24.5821C66.4241 25.3983 63.8366 29.4098 60.7281 32.9003C60.0682 32.9003 59.4083 32.9003 58.7484 32.9003C54.5806 38.11 46.4188 41.4269 44.1091 47.1576C52.0279 39.8987 61.0928 33.7859 69.0463 26.5791C70.8176 26.4749 70.9218 26.1624 72.5716 26.5791Z" fill="#191919"/>
<path d="M115.327 14.701C114.528 14.9441 115.223 16.698 113.746 16.2813C114.667 17.7053 116.508 15.4998 115.327 14.701Z" fill="#191919"/>
<path d="M106.228 17.4795C107.113 17.3059 106.384 15.5345 106.627 14.701C105.776 15.0309 105.533 16.8022 106.228 17.4795Z" fill="#191919"/>
<path d="M116.907 15.8991C115.691 16.1422 115.952 17.8614 115.327 18.6776C114.962 18.3824 114.719 17.9656 114.528 17.4968C114.25 21.4388 113.243 19.8064 112.948 25.815C113.66 21.8903 116.108 19.7196 116.907 15.8991Z" fill="#191919"/>
<path d="M99.8888 23.0192C99.0031 21.5257 98.6211 19.546 96.3288 19.4592C97.5444 20.6053 98.2043 22.3245 99.8888 23.0192Z" fill="#191919"/>
<path d="M110.968 22.6198C110.273 21.5605 110.673 24.9468 110.569 25.7804C111.281 26.8571 110.864 23.4707 110.968 22.6198Z" fill="#191919"/>
<path d="M51.5934 45.5947C49.5616 45.8204 47.8771 49.7972 47.634 53.114C48.867 50.5265 49.6137 47.4528 51.5934 45.5947Z" fill="#191919"/>
<path d="M81.2725 45.9768C80.0916 47.0709 81.8455 48.547 82.0713 49.5368C83.1479 48.5817 80.8557 47.6092 81.2725 45.9768Z" fill="#191919"/>
<path d="M41.2952 54.6945C42.8234 53.5831 44.039 52.1591 44.0738 49.5542C43.136 51.256 42.1462 52.9058 41.2952 54.6945Z" fill="#191919"/>
<path d="M56.7339 63.4119C55.5183 64.8359 55.7787 67.736 55.553 70.1324C57.5153 68.6042 59.9292 62.7346 57.1333 60.2339C56.7165 61.1543 57.6369 64.6796 56.7339 66.173C55.7614 65.791 57.2722 64.6622 56.7339 63.4119Z" fill="#191919"/>
<path d="M78.9103 71.7128C80.0912 70.4972 79.7786 66.6246 80.0912 65.7737C78.8061 65.2874 79.1881 69.8894 78.9103 71.7128Z" fill="#191919"/>
<path d="M77.3127 70.9312C78.8756 71.1743 77.7816 68.7604 78.1115 67.7706C77.4863 68.4479 77.5906 69.8718 77.3127 70.9312Z" fill="#191919"/>
<path d="M70.592 69.3336C69.7584 69.9415 70.4183 72.0774 69.4111 72.4942C70.5225 73.7445 70.7657 70.7229 70.592 69.3336Z" fill="#191919"/>
<path d="M63.854 110.907C52.219 111.255 40.9312 113.46 28.6189 113.286C29.3482 112.783 31.9878 113.338 33.3771 112.487C32.9777 111.428 29.9561 113.008 30.2165 111.307C35.652 112.279 44.8559 109.865 48.4332 112.105C47.7212 108.754 53.8166 112.21 53.1914 108.945C51.0381 110.178 49.9788 108.736 47.6518 110.525C49.1799 106.705 46.5924 104.065 44.0918 103.006C45.0295 100.835 47.1308 99.8973 47.2523 97.8655C47.4607 94.7049 43.8486 94.1318 43.6924 90.7455C44.3175 89.912 45.1684 89.3042 46.8529 89.5647C46.9918 91.1623 44.5606 90.1725 44.8732 91.9438C45.8978 92.5168 47.2697 94.7918 48.0338 94.3229C47.8428 92.1695 49.1279 90.6761 47.235 89.9641C49.8572 88.2796 44.5606 82.0279 47.6344 78.4853C49.5793 79.1799 52.08 79.3189 52.7747 81.2638C50.7429 81.4375 50.1698 80.1871 48.4158 80.0829C48.1032 82.1495 47.5996 84.928 48.8153 86.4215C49.4404 84.8064 49.0757 82.1842 49.9961 80.8818C50.465 91.0929 45.1684 101.443 49.5967 108.598C49.9788 102.658 49.1626 105.906 50.7776 108.598C51.6806 107.799 50.9165 105.315 51.177 103.839C49.8051 103.527 49.6488 104.43 48.3985 104.239C50.1872 97.1882 50.6734 88.8353 52.3579 81.6806C52.1321 89.2347 50.656 95.5558 49.5794 102.259C52.7226 98.0391 53.3651 88.3491 53.5387 83.6603C55.8136 86.6125 57.8802 87.8802 60.6587 88.0191C60.1377 86.2999 58.2275 85.9526 57.4981 84.4591C58.1754 79.7009 54.8238 73.484 57.8976 70.2018C57.4287 75.5679 58.7138 79.1625 58.6964 84.0597C66.0421 90.5719 66.8583 103.614 72.5542 111.775C70.4877 112.47 69.1332 109.848 68.9943 108.997C67.9176 102.311 63.4546 94.6007 61.0755 88.8006C61.0755 90.5719 59.7557 91.8048 61.0755 92.76C59.9641 93.2288 58.3491 93.1941 56.7167 93.1594C56.8035 94.8439 56.6819 96.3026 55.5358 96.7194C54.2334 92.5342 59.5473 90.3635 56.3346 88.0191C55.7268 93.7498 52.9136 99.3763 51.5764 103.058C54.3376 103.197 57.7413 102.693 59.8946 103.457C59.7383 105.263 61.6659 108.077 59.8946 108.997C59.8078 106.965 59.9641 104.708 58.7137 103.857C59.009 105.42 60.2246 108.129 59.1132 109.796C59.721 108.598 56.9077 108.598 57.5329 109.796C58.8527 110.907 63.0726 109.188 63.854 110.907ZM57.9149 91.9091C59.9467 92.239 60.3288 90.9018 60.294 89.1305C59.6341 89.1305 58.9742 89.1305 58.3143 89.1305C58.0017 89.9815 57.3592 91.3533 57.9149 91.9091ZM52.3752 97.8481C54.1292 95.2954 56.6993 88.8527 54.7543 86.3693C53.504 89.7383 53.1914 94.0277 52.3752 97.8481ZM46.8356 101.009C46.3667 101.599 45.6894 101.981 45.6547 102.988C47.2002 103.492 46.8356 102.051 46.8356 101.009ZM56.7341 108.928C55.4837 109.466 55.4143 109.014 53.9555 108.928C53.8513 110.907 57.0293 110.299 56.7341 108.928ZM56.7341 103.787C55.1538 103.787 53.5735 103.787 51.9758 103.787C51.9758 105.368 51.9758 106.948 51.9758 108.545C53.6777 108.389 53.0699 105.941 53.5561 104.586C54.7023 104.881 53.1915 107.851 54.355 108.146C56.2478 108.459 54.2507 104.881 55.5358 104.586C56.6819 104.881 55.1711 107.851 56.3346 108.146C58.0018 108.007 56.8904 104.638 56.7341 103.787ZM57.9149 108.528C59.721 108.163 58.2796 104.933 58.3143 103.77C56.873 103.805 57.4461 107.903 57.9149 108.528Z" fill="#191919"/>
<path d="M55.1539 80.8297C55.2581 78.5895 54.9976 73.5534 55.5533 70.5318C54.0946 72.772 53.8862 78.1901 55.1539 80.8297Z" fill="#191919"/>
<path d="M73.7528 84.3899C75.6109 84.1468 76.8265 79.8053 76.9133 76.4711C75.7498 78.9891 75.2983 82.2192 73.7528 84.3899Z" fill="#191919"/>
<path d="M36.5378 77.2525C34.0024 76.3147 30.7203 78.0166 28.619 78.8328C30.5466 79.1627 33.8982 77.513 36.5378 77.2525Z" fill="#191919"/>
<path d="M16.7578 81.212C17.956 79.4928 19.2932 77.9472 21.516 77.2526C19.5016 76.5927 16.8793 78.7113 16.7578 81.212Z" fill="#191919"/>
<path d="M74.95 85.97C74.9326 86.5604 72.3451 93.1768 74.95 93.8888C73.7865 91.5444 75.4015 88.9048 74.95 85.97Z" fill="#191919"/>
<path d="M69.4119 95.4692C70.6101 93.6111 68.8735 91.2667 69.4119 88.7313C68.6825 88.6792 68.8735 94.1842 69.4119 95.4692Z" fill="#191919"/>
<path d="M6.47791 99.116C6.47791 98.9424 6.47793 98.7861 6.46056 98.6298C6.46056 98.8034 6.47791 98.9597 6.47791 99.116Z" fill="#191919"/>
<path d="M1.70145 107.747C2.62183 105.611 7.48427 105.541 6.45969 101.808C7.5711 103.319 7.77947 96.0075 11.2179 95.8686C9.46395 95.4518 7.29326 98.0046 6.85911 100.227C6.5118 100.141 6.47703 99.7585 6.47703 99.3417C6.33811 105.437 -1.02495 104.326 0.121188 111.706C2.15298 112.887 4.01112 116.187 7.24115 114.867C3.69854 113.286 0.0516996 111.55 1.70145 107.747Z" fill="#191919"/>
<path d="M45.2552 104.569C42.5115 102.711 37.2149 103.075 33.3771 103.388C32.8214 103.318 34.0022 100.47 32.9777 99.8279C31.71 100.905 32.9429 102.346 32.5782 104.586C36.9544 104.03 40.3407 104.76 45.2552 104.569Z" fill="#191919"/>
<path d="M77.7121 105.767C78.5457 105.402 78.9277 104.604 78.893 103.388C78.0768 103.753 77.6948 104.551 77.7121 105.767Z" fill="#191919"/>
<path d="M87.2111 113.686C85.1793 113.408 77.5731 114.381 80.4732 112.887C74.4125 113.582 65.4518 112.245 59.4953 112.887C67.8656 110.317 82.4702 113.356 89.5902 111.706C89.1387 110.334 90.389 107.226 89.9896 104.586C86.1171 102.537 80.5774 102.78 78.5108 106.167C78.5629 104.638 79.6744 104.169 80.4906 103.388C78.754 103.405 78.3719 102.086 76.9306 101.808C74.2563 96.3202 76.8784 87.7589 77.33 80.4305C77.5731 76.5753 76.8611 74.4914 78.5108 72.5117C79.1013 72.4422 79.9696 72.6507 80.0911 72.1123C80.2822 69.2643 81.272 65.1139 80.4906 62.6132C79.3444 62.7869 79.5528 64.3151 78.5108 64.5929C78.424 63.0474 79.3618 62.5438 79.6917 61.4324C85.3009 60.9635 82.9912 52.5932 88.4093 51.9333C86.1865 55.6495 86.4297 65.2702 84.0505 70.15C84.6757 64.9576 86.3081 58.6886 86.4296 54.3124C83.79 58.9317 84.4326 66.8331 82.4702 72.1296C89.4165 68.917 87.1069 56.4484 89.9896 49.1721C89.677 54.3992 88.1141 60.4946 88.4093 65.0097C89.2429 60.9114 94.2616 59.3658 95.5293 55.1112C96.7102 51.1518 95.2167 46.1157 95.5293 40.8539C93.8101 45.8552 95.2341 54.0172 92.3687 57.8724C92.7334 55.0244 94.9562 49.6757 92.3687 47.5745C91.8478 52.3327 92.0735 57.8376 89.9896 61.0329C90.9968 56.5005 91.4136 51.3602 91.9693 46.3936C91.3268 44.8133 88.8608 43.3198 89.5902 41.6354C91.431 41.6354 91.7783 43.1462 93.949 42.8162C95.7724 39.3952 94.9041 34.6717 94.3484 30.5386C94.8867 29.7572 97.1096 30.6602 97.1269 29.3578C97.7347 26.6314 94.4005 25.7631 95.1473 24.2175C96.3976 24.9469 97.9258 27.4996 98.7072 27.3781C96.9533 20.8138 84.2415 23.1061 84.8493 15.4999C87.5584 20.6054 95.5293 22.4462 100.288 24.2001C100.548 21.9599 99.4192 21.109 98.7072 19.8413C100.253 19.6156 99.7144 21.4737 100.687 21.821C101.833 15.934 97.3353 15.6562 95.9287 12.322C96.7275 10.0818 97.0922 7.42482 98.7072 5.98346C99.2456 10.759 104.872 12.4609 103.465 17.8616C101.659 18.3479 103.5 15.1873 102.285 15.0831C102.823 17.0802 101.104 18.8862 102.285 20.2234C102.18 19.3204 102.371 18.7299 103.083 18.6431C103.205 23.3839 101.225 28.1248 102.285 32.501C103.986 30.2434 102.823 25.1379 103.865 22.2031C105.706 21.6647 107.772 21.3695 110.203 21.4042C110.759 20.7617 110.533 19.3551 111.384 19.0251C112.114 21.8558 109.752 21.63 109.005 22.9845C109.908 24.1828 109.179 26.3882 109.005 27.7428C109.578 27.9685 111.054 27.2739 110.985 28.1422C110.117 27.9685 108.797 29.323 109.804 29.7225C113.607 28.7847 110.481 20.9006 112.965 18.6431C112.478 21.0569 112.53 24.0265 112.565 26.9613C113.815 25.8846 114.406 25.6936 115.726 25.381C115.691 23.7486 115.656 22.151 116.525 21.4216C117.045 23.1582 115.344 24.6864 116.525 25.7804C117.15 23.8876 116.82 21.0569 117.323 19.0599C119.338 18.782 116.577 21.0222 118.122 21.439C119.373 21.63 119.668 20.8833 120.501 20.6402C120.276 22.4288 118.296 21.6127 117.723 22.2205C118.278 24.2349 115.934 26.1798 117.723 26.9787C120.501 25.4331 117.584 25.3289 119.303 23.0193C119.963 24.8079 118.938 26.1104 119.702 27.3781C121.943 26.5272 119.963 22.9324 122.082 21.439C122.012 23.2277 121.161 26.3188 121.682 27.3781C123.853 23.6965 122.776 20.206 122.863 16.6981C123.384 17.358 122.724 19.2162 124.044 19.0772C123.731 17.7053 124.634 17.549 124.443 16.2987C121.005 14.7184 116.316 14.4059 113.364 12.3393C113.607 13.5376 113.017 15.8993 112.183 14.7184C112.6 13.5897 113.225 9.68236 112.183 9.57817C111.315 11.3495 112.218 14.8921 111.002 16.3161C110.759 15.2394 111.506 13.1729 110.603 12.7561C110.881 15.8299 109.908 15.222 109.022 17.1149C108.779 15.7778 109.526 13.4334 108.623 12.7561C107.651 12.5998 108.745 16.5245 107.824 15.1352C108.154 13.225 107.46 12.3393 107.025 11.1758C108.988 9.82128 111.263 9.05718 112.965 8.39729C110.082 3.50014 103.396 2.38875 97.9258 0.0791002C105.81 -0.407141 108.727 4.05586 113.763 6.4176C114.336 7.94579 114.041 10.3596 114.562 11.9573C119.303 13.6765 125.034 14.4232 128.42 17.497C126.319 21.4216 126.041 24.3912 123.662 26.996C120.276 30.7123 111.905 30.1913 107.025 31.077C109.648 29.9482 108.901 25.6589 107.824 22.6372C106.695 24.6864 108.328 29.4793 106.244 30.556C105.775 28.3158 108.988 23.3145 105.445 23.0366C105.341 25.9541 105.81 29.4793 104.264 30.9554C104.091 28.9584 105.792 24.9642 103.865 23.8355C104.716 27.0829 102.041 32.0147 105.046 32.5357C104.108 33.7166 101.156 32.8657 101.086 34.9148C100.878 30.747 102.128 25.9367 101.486 22.6372C100.218 26.5098 100.965 32.4142 100.305 36.8945C101.364 36.634 101.816 35.7657 102.684 35.3142C100.67 39.2736 98.221 41.8264 97.1443 45.9942C96.5365 48.3733 97.4395 50.5961 97.1443 53.1141C96.6581 57.2646 94.2095 58.8275 91.6047 62.2138C87.0722 68.1182 87.0027 73.1542 78.945 73.6926C77.7988 82.8964 78.3025 93.7848 80.1259 102.19C84.8146 101.408 88.0447 102.502 91.6047 103.77C91.3963 106.358 91.8477 108.285 92.004 110.508C90.4411 111.151 91.8651 108.806 90.8232 108.928C91.0663 109.744 90.3369 111.533 91.2226 111.706C91.7956 111.498 93.2718 112.175 93.2023 111.307C91.7957 110.473 94.1921 103.457 91.2226 102.989C94.6263 103.544 95.5119 106.618 95.182 110.907C99.1066 111.324 104.803 110.004 107.46 111.706C105.74 111.706 103.9 111.845 102.701 111.307C102.667 112.661 105.115 111.533 105.08 112.887C99.3324 111.88 91.6914 114.068 87.6626 113.686C88.253 113.217 89.2776 113.2 89.6423 112.505C88.583 112.505 87.5237 112.505 86.4818 112.505C86.5165 113.061 87.0722 113.165 87.2111 113.686ZM93.5496 110.907C95.0431 110.647 93.428 107.226 93.5496 105.767C92.8897 106.583 92.8897 110.091 93.5496 110.907ZM122.846 25.3984C124.617 24.7906 124.391 22.1857 125.225 20.6402C123.558 19.7892 123.853 24.2696 122.846 25.3984ZM115.726 29.3578C116.663 28.9757 118.244 29.2362 118.105 27.7775C117.653 27.847 117.393 27.6907 117.306 27.3781C116.247 27.517 115.969 28.42 115.726 29.3578ZM113.746 29.7572C114.788 29.3404 115.517 28.611 115.726 27.3781C115.205 27.3781 114.666 27.3781 114.145 27.3781C114.423 28.5937 113.451 28.5416 113.746 29.7572ZM111.367 29.3578C111.94 30.4171 113.538 29.1841 113.347 28.1769C111.87 27.7428 112.061 29.0105 111.367 29.3578ZM99.4887 9.9602C98.221 10.6201 98.0473 14.0238 99.0893 14.7184C100.01 13.9022 99.2456 11.4189 99.4887 9.9602ZM100.687 10.7417C99.1414 10.8459 99.9229 14.7358 100.288 15.4999C101.191 14.7011 100.426 12.2178 100.687 10.7417ZM93.949 43.9971C93.376 43.7887 91.8998 44.466 91.9693 43.5977C91.6741 43.9103 92.9244 46.0463 93.949 46.3762C93.949 45.5948 93.949 44.7959 93.949 43.9971ZM96.7276 43.9971C99.6971 39.5688 100.079 32.5704 100.288 25.3984C97.4916 27.8817 99.5755 35.2448 98.3078 39.2563C97.2832 36.9119 98.8635 33.7513 98.3078 30.5386C96.9706 34.2202 97.1964 39.4646 96.7276 43.9971ZM96.3281 35.6963C97.4916 35.2621 95.9634 32.171 97.1269 31.7369C97.0054 31.1985 96.1371 31.4069 95.5467 31.3375C95.5467 33.022 96.0676 34.2376 96.3281 35.6963ZM81.272 72.5117C83.0086 69.629 83.3559 65.3744 83.6511 61.0329C82.4876 60.9287 82.4355 61.9359 81.272 61.8317C82.2271 64.9923 80.3169 69.4727 81.272 72.5117ZM77.712 87.151C76.618 89.3739 77 95.7645 77.3126 99.8107C79.848 97.5879 77.4342 91.0062 77.712 87.151Z" fill="#191919"/>
<path d="M107.008 31.0594C106.591 31.1289 106.192 31.2331 105.827 31.3199C106.279 31.3025 106.678 31.2157 107.008 31.0594Z" fill="#191919"/>
<path d="M122.447 19.4591C122.238 17.8267 121.214 17.0105 120.467 15.8991C120.172 16.4722 121.439 18.8687 122.447 19.4591Z" fill="#191919"/>
<path d="M118.886 16.2986C118.764 16.8369 120.24 19.1639 121.265 19.8585C120.987 18.1567 120.049 17.1147 118.886 16.2986Z" fill="#191919"/>
<path d="M95.1303 28.1768C94.7135 27.1349 93.5674 26.8396 93.1506 25.7977C92.5428 26.3013 93.932 28.1594 95.1303 28.1768Z" fill="#191919"/>
<path d="M90.3888 36.0782C89.8852 36.9986 91.6565 39.0304 92.3684 40.0377C92.9242 39.0652 90.9445 37.2591 90.3888 36.0782Z" fill="#191919"/>
<path d="M88.4093 36.4775C87.9405 37.6236 90.4932 39.1344 91.1879 40.4369C91.5178 39.4296 89.3992 37.4673 88.4093 36.4775Z" fill="#191919"/>
<path d="M44.4562 55.0938C46.3838 52.6626 46.4533 48.3732 48.4156 45.9941C46.3143 46.654 45.2551 51.7943 44.4562 55.0938Z" fill="#191919"/>
<path d="M57.1332 49.9361C57.9841 50.5091 59.2691 48.13 59.5123 46.7755C58.2793 47.4007 58.2619 49.2241 57.1332 49.9361Z" fill="#191919"/>
<path d="M52.7749 47.1747C51.9413 47.0185 49.7359 48.8766 49.9964 51.1342C50.9341 49.8144 51.4725 48.1125 52.7749 47.1747Z" fill="#191919"/>
<path d="M61.4923 48.3558C60.7282 47.748 59.5126 50.0576 58.7138 50.7349C59.6168 51.4816 60.4678 48.8073 61.4923 48.3558Z" fill="#191919"/>
<path d="M23.0789 70.1326C16.4452 72.1817 14.6044 79.0586 11.9995 85.9701C10.4019 90.19 6.61615 93.4722 7.24132 97.4489C12.3642 90.9194 12.9547 82.2712 17.5392 76.0716C19.2932 73.7099 21.7938 72.9979 23.8777 70.9314C26.1006 68.7086 27.9587 65.2528 30.2162 62.6132C34.4188 57.6813 37.4751 52.9057 42.8932 49.1547C34.2625 52.541 28.8617 62.5958 23.0789 70.1326Z" fill="#191919"/>
<path d="M81.6714 53.8956C82.7828 53.01 81.0289 51.6728 80.8726 50.735C80.1085 51.2908 81.7235 52.7842 81.6714 53.8956Z" fill="#191919"/>
<path d="M63.8551 56.2748C62.6742 56.0316 61.1808 58.8623 60.6945 60.6336C62.1359 59.5569 62.6742 57.5946 63.8551 56.2748Z" fill="#191919"/>
<path d="M72.9712 63.4119C73.6485 64.1934 76.8785 66.1731 76.9306 64.9922C75.333 64.7317 74.9335 63.2904 72.9712 63.4119Z" fill="#191919"/>
<path d="M76.5318 69.7331C77.1396 67.1108 72.8155 64.0024 70.1933 64.5928C72.8676 65.7563 75.7677 66.6593 76.5318 69.7331Z" fill="#191919"/>
<path d="M26.2575 77.6518C27.3342 78.1902 28.9318 75.8632 30.2169 75.2727C28.9492 74.5781 27.3515 76.9051 26.2575 77.6518Z" fill="#191919"/>
<path d="M42.0949 79.2321C42.9458 78.1033 40.2715 77.1135 39.3164 76.4536C38.0661 77.2177 40.4799 77.6344 40.8967 78.0338C40.7925 78.8674 39.8374 77.4608 39.3164 78.4333C40.4278 79.0237 41.8691 79.3189 41.6955 81.2118C42.8416 82.5142 41.1745 77.7039 42.0949 79.2321Z" fill="#191919"/>
<path d="M32.978 79.6315C32.1271 80.2566 34.4368 81.0555 34.5583 82.0106C35.7045 81.1076 33.3948 80.3087 32.978 79.6315Z" fill="#191919"/>
<path d="M12.7987 91.1101C14.0664 91.8221 14.6742 88.5053 15.5772 87.5502C14.4485 86.9771 13.7017 90.1724 12.7987 91.1101Z" fill="#191919"/>
<path d="M7.64118 102.207C8.92625 102.033 10.1592 98.4039 12.3994 97.8482C10.3676 97.2752 8.57893 100.349 7.64118 102.207Z" fill="#191919"/>
<path d="M8.04067 110.907C8.63111 108.858 8.63112 106.219 9.62097 104.569C8.3359 105.75 7.01609 108.702 8.04067 110.907Z" fill="#191919"/>
<path d="M6.06035 108.928C6.75498 107.504 7.5017 106.149 8.43945 104.968C7.06756 105.107 4.37587 109.275 5.27889 111.706C5.97352 110.352 5.64356 109.153 7.25857 110.525C6.84179 109.987 6.87654 109.049 6.06035 108.928Z" fill="#191919"/>
<path d="M30.9984 109.327C32.2661 108.875 32.1098 107 32.9781 106.166C32.0924 105.42 31.2241 108.094 30.9984 109.327Z" fill="#191919"/>
<path d="M30.9982 106.549C30.4078 107.07 27.4903 111.984 25.0591 113.287C24.5381 112.766 24.8681 112.331 25.3544 111.932C22.2459 113.669 15.4559 114.051 10.4198 114.467C19.12 115.926 29.8521 115.006 30.9982 106.549Z" fill="#191919"/>
<path d="M25.3542 111.932C25.7015 111.741 25.9967 111.533 26.2572 111.307C25.9967 111.498 25.6494 111.706 25.3542 111.932Z" fill="#191919"/>
</svg>
