<svg width="18" height="21" viewBox="0 0 18 21" fill="none" xmlns="http://www.w3.org/2000/svg">
<path d="M17.9912 6.04397C17.9868 6.04397 17.9868 6.04397 17.9912 6.04397C17.9781 6.03961 17.9649 6.0396 17.9561 6.03524C17.9517 6.03524 17.9517 6.03524 17.9473 6.03524C17.9605 6.0396 17.9781 6.03961 17.9912 6.04397V5.24917C16.6264 5.17056 15.6347 4.74696 14.9194 4.17488C14.9457 4.20982 14.972 4.24475 14.9984 4.27969C14.994 4.27532 14.9896 4.26659 14.9852 4.26222C14.9677 4.24039 14.9501 4.21855 14.9369 4.19672C14.9325 4.18798 14.9238 4.17925 14.9194 4.17488C13.6994 3.2054 13.265 1.79922 13.1114 0.895241C13.0631 0.607017 13.0236 0.292591 13.028 0H9.47784V13.8042C9.47784 14.4418 9.41202 15.0095 9.28037 15.503C8.38953 17.4594 6.21731 17.6777 4.89641 16.8524C4.92274 16.9004 4.94908 16.9441 4.97541 16.9878C4.97102 16.9834 4.97102 16.979 4.96663 16.9746C4.94469 16.9397 4.92275 16.9048 4.90519 16.8698C4.9008 16.8655 4.89641 16.8567 4.89641 16.8524C4.50146 16.6035 4.18112 16.2672 3.9968 15.8523C3.11036 13.8741 4.225 11.1141 7.56014 11.6032C7.56014 8.09211 7.56014 11.0137 7.56014 8.58122V7.77332C0.5739 6.67282 -2.36629 15.4113 2.17564 19.3372C2.88217 19.9486 3.76861 20.4421 4.85253 20.7652C6.24802 21.0666 7.07742 21.0491 8.00336 20.8744C11.299 20.2543 13.0587 17.1668 13.0192 14.0182L13.0236 7.06585C14.7921 8.63362 17.6358 8.83887 18 8.81704C17.9912 5.50683 17.9912 8.97425 17.9912 6.04397ZM4.99296 17.0314C4.99296 17.0271 4.98857 17.0271 4.98857 17.0227C5.0149 17.062 5.04123 17.1013 5.07195 17.1406C5.06756 17.1362 5.06756 17.1319 5.06317 17.1275C5.03684 17.0969 5.0149 17.0664 4.99296 17.0314ZM5.09828 17.1799C5.09828 17.1755 5.09389 17.1755 5.09389 17.1712C5.12461 17.2105 5.15533 17.2454 5.18605 17.2803C5.18166 17.276 5.18166 17.276 5.17727 17.2716C5.14655 17.241 5.12022 17.2105 5.09828 17.1799ZM5.21238 17.3196L5.20799 17.3153C5.23871 17.3502 5.27381 17.3852 5.30892 17.4201C5.30453 17.4157 5.30453 17.4157 5.30014 17.4114C5.26942 17.3764 5.24309 17.3458 5.21238 17.3196ZM5.34403 17.4463L5.33964 17.4419C5.37474 17.4725 5.40985 17.5074 5.44496 17.538C5.44057 17.5336 5.44057 17.5336 5.43618 17.5293C5.40546 17.5031 5.37474 17.4769 5.34403 17.4463ZM5.48006 17.5686C5.47568 17.5686 5.47568 17.5642 5.47568 17.5642C5.51078 17.5948 5.55028 17.621 5.58977 17.6515C5.58538 17.6515 5.58538 17.6472 5.581 17.6472C5.54589 17.6166 5.51517 17.5948 5.48006 17.5686ZM5.62927 17.6777C5.62488 17.6777 5.62488 17.6734 5.62488 17.6734C5.66437 17.6996 5.70387 17.7258 5.74336 17.752C5.73898 17.752 5.73898 17.7476 5.73459 17.7476C5.69948 17.7258 5.66437 17.7039 5.62927 17.6777ZM5.78725 17.7782L5.78286 17.7738C5.82235 17.7957 5.86185 17.8219 5.90573 17.8437C5.90134 17.8437 5.90135 17.8393 5.89696 17.8393C5.85746 17.8219 5.82235 17.8 5.78725 17.7782ZM5.954 17.8699C5.954 17.8699 5.94962 17.8699 5.94962 17.8655C5.98911 17.8874 6.03299 17.9048 6.07249 17.9267C6.07249 17.9267 6.0681 17.9267 6.0681 17.9223C6.02861 17.9092 5.98911 17.8874 5.954 17.8699ZM6.12515 17.9529C6.12515 17.9529 6.12076 17.9529 6.12076 17.9485C6.16026 17.966 6.20414 17.9834 6.24802 18.0009H6.24364C6.19975 17.9834 6.16464 17.966 6.12515 17.9529ZM6.30507 18.0227H6.30068C6.34018 18.0358 6.38406 18.0533 6.42795 18.0664H6.42356C6.38406 18.0489 6.34457 18.0358 6.30507 18.0227ZM6.48938 18.0795H6.48499C6.52449 18.0926 6.56837 18.1013 6.61226 18.1144H6.60787C6.56837 18.1013 6.52888 18.0926 6.48938 18.0795ZM6.68247 18.1275C6.67808 18.1275 6.67808 18.1275 6.68247 18.1275C6.72196 18.1363 6.76146 18.145 6.80095 18.1537C6.80095 18.1537 6.80095 18.1537 6.79657 18.1537C6.75707 18.145 6.71758 18.1363 6.68247 18.1275ZM6.87556 18.1625C6.91505 18.1669 6.95455 18.1756 6.99404 18.1799C6.95455 18.1756 6.91505 18.1712 6.87556 18.1625ZM7.07303 18.1887C7.11253 18.1931 7.15202 18.1974 7.18713 18.1974C7.14763 18.1931 7.11253 18.1931 7.07303 18.1887ZM15.0905 4.40634C15.0861 4.40197 15.0818 4.39323 15.0774 4.38887C15.0993 4.41944 15.1256 4.45001 15.152 4.47621C15.1476 4.47184 15.1476 4.47184 15.1432 4.46747C15.1256 4.44563 15.1081 4.4238 15.0905 4.40634ZM15.3056 4.64652L15.3012 4.64215C15.3231 4.66835 15.3494 4.69019 15.3714 4.71639C15.367 4.71203 15.3582 4.70766 15.3538 4.69893C15.3363 4.68146 15.3231 4.66399 15.3056 4.64652ZM15.4899 4.8343C15.4855 4.82993 15.4855 4.82994 15.4811 4.82557C15.5074 4.85177 15.5338 4.87797 15.5645 4.89981C15.5601 4.89544 15.5601 4.89544 15.5557 4.89544C15.5338 4.87361 15.5118 4.85177 15.4899 4.8343ZM15.7093 5.02645C15.7225 5.03519 15.7356 5.04829 15.7444 5.05702C15.74 5.05265 15.7356 5.05265 15.7356 5.04829C15.7268 5.03955 15.7181 5.03519 15.7093 5.02645ZM15.7663 5.07449C15.7795 5.08322 15.7883 5.09196 15.8014 5.10069C15.7927 5.09632 15.7839 5.08759 15.7751 5.08323C15.7751 5.07886 15.7707 5.07449 15.7663 5.07449ZM15.9726 5.22733L15.9682 5.22297C15.9989 5.2448 16.0296 5.26227 16.0604 5.28411C16.056 5.28411 16.056 5.27974 16.0516 5.27974C16.0252 5.26227 15.9989 5.2448 15.9726 5.22733ZM16.2315 5.39328C16.2271 5.38892 16.2227 5.38891 16.2183 5.38455C16.2447 5.40201 16.271 5.41949 16.2973 5.43259C16.2973 5.43259 16.2929 5.43258 16.2929 5.42822C16.271 5.41948 16.2534 5.40638 16.2315 5.39328ZM16.5431 5.56797C16.5694 5.58107 16.6001 5.59417 16.6308 5.61164C16.6264 5.61164 16.6264 5.60727 16.6221 5.60727C16.5957 5.59417 16.5694 5.58107 16.5431 5.56797ZM16.8327 5.69898C16.8283 5.69898 16.8283 5.69898 16.8239 5.69461C16.8546 5.70771 16.8854 5.72081 16.9205 5.73391H16.9161C16.8897 5.72517 16.8634 5.71208 16.8327 5.69898ZM17.2145 5.84308C17.2101 5.84308 17.2101 5.84308 17.2145 5.84308C17.2364 5.85182 17.2584 5.85619 17.2847 5.86492C17.2803 5.86492 17.2803 5.86492 17.2759 5.86055C17.254 5.85619 17.232 5.85182 17.2145 5.84308ZM17.5392 5.94353C17.5392 5.93916 17.5392 5.93916 17.5392 5.94353C17.5699 5.95226 17.605 5.961 17.6402 5.96973C17.6402 5.96973 17.6402 5.96973 17.6358 5.96973C17.605 5.95663 17.5699 5.95226 17.5392 5.94353Z" fill="#FFC397"/>
</svg>
