<svg width="37" height="41" viewBox="0 0 37 41" fill="none" xmlns="http://www.w3.org/2000/svg">
<path d="M36.7971 5.99768C36.7971 5.8376 36.7971 5.67752 36.7864 5.51744C36.7117 4.14075 35.6552 2.96681 34.2785 2.77472C33.4034 2.64665 32.5283 2.72137 31.6425 2.73204C31.301 2.73204 31.237 2.636 31.237 2.31584C31.2583 0.917812 30.9702 0.490912 29.7429 0C29.4014 0 29.0492 0 28.7077 0C28.697 0.010672 28.6971 0.0320472 28.6864 0.0320472C27.6512 0.405567 27.235 1.17392 27.331 2.24112C27.3737 2.64665 27.2456 2.74272 26.8401 2.74272C21.1946 2.73205 15.5599 2.73205 9.91437 2.74272C9.55152 2.74272 9.42343 2.65732 9.45544 2.2838C9.48746 1.97431 9.48746 1.64349 9.40208 1.334C9.19932 0.608304 8.67639 0.234784 8.01472 0C7.6412 0 7.26768 0 6.89417 0C6.87282 0.0960479 6.7768 0.0960688 6.71277 0.128085C5.93372 0.469589 5.57083 1.07787 5.54948 1.92096C5.54948 2.09171 5.52814 2.27312 5.54948 2.44388C5.5815 2.71068 5.46412 2.7534 5.24001 2.74272C4.85581 2.72138 4.47164 2.73205 4.08745 2.74272C3.47915 2.7534 2.86016 2.68935 2.26253 2.83876C1.14197 3.11623 -0.0105984 4.19409 7.35473e-05 5.97632C0.0214175 14.3645 0.0107299 26.0504 0.0107299 34.4919C5.79145e-05 35.6445 -0.0106037 36.797 0.0214123 37.9389C0.0534283 39.6358 1.34472 40.8951 3.04157 40.8951C13.276 40.8951 23.5105 40.8951 33.7449 40.8951C34.1398 40.8951 34.5133 40.8311 34.8762 40.6923C36.1141 40.2228 36.7971 39.1342 36.7971 37.6401C36.7971 27.0855 36.7971 16.5416 36.7971 5.99768ZM28.5263 1.97432C28.537 1.4087 28.7398 1.1846 29.284 1.1846C29.8176 1.1846 30.0417 1.41938 30.0524 1.97432C30.0631 2.72136 30.0631 2.72136 29.2734 2.72136C28.5156 2.72136 28.5156 2.72136 28.5263 1.97432ZM6.75545 1.97432C6.76612 1.41938 6.9902 1.19528 7.5238 1.19528C8.0574 1.19528 8.27084 1.41939 8.27084 1.985C8.28151 2.72137 8.28153 2.72136 7.49181 2.72136C6.74477 2.72136 6.74478 2.72136 6.75545 1.97432ZM1.21667 5.77356C1.22734 4.7277 1.93171 3.97001 2.96689 3.92732C3.74595 3.89531 4.53569 3.92731 5.32541 3.91664C5.52818 3.91664 5.57085 3.98066 5.57085 4.17276C5.56018 4.67434 5.56018 5.18662 5.57085 5.6882C5.60286 6.65936 6.32858 7.44908 7.24637 7.50244C7.68392 7.52379 7.96138 7.32101 7.98273 6.95816C8.01474 6.61666 7.79061 6.37119 7.3744 6.30716C6.9582 6.23245 6.77679 6.04036 6.75545 5.61348C6.74478 5.19727 6.77678 4.79173 6.74477 4.37552C6.72342 4.02334 6.81949 3.90597 7.19301 3.91664C11.5579 3.92731 15.9227 3.92732 20.2875 3.92732C22.5073 3.92732 24.7377 3.93799 26.9575 3.91664C27.2563 3.91664 27.3417 3.99135 27.331 4.29016C27.3097 4.81309 27.3097 5.32536 27.331 5.84828C27.3737 6.71272 28.1314 7.45975 28.9852 7.50244C29.4121 7.52379 29.7002 7.32101 29.7322 6.95816C29.7642 6.61666 29.5402 6.37119 29.124 6.30716C28.6971 6.23245 28.5263 6.05103 28.5156 5.61348C28.505 5.14391 28.5263 4.68501 28.505 4.21544C28.4943 3.94864 28.601 3.91664 28.8251 3.91664C30.4473 3.92731 32.0694 3.91665 33.6916 3.92732C34.8121 3.938 35.5592 4.68501 35.5698 5.81624C35.5805 7.53443 35.5698 9.25265 35.5805 10.9708C35.5805 11.227 35.5165 11.3016 35.2497 11.3016C35.1003 11.3016 34.9615 11.3016 34.8121 11.3016C34.1078 11.291 33.4141 11.3016 32.7097 11.3016C24.7911 11.3016 13.3081 11.3016 6.07245 11.3016C4.55703 11.3016 3.0416 11.3016 1.52617 11.3016C1.28072 11.3016 1.18465 11.2483 1.18465 10.9815C1.21667 9.24194 1.206 7.50242 1.21667 5.77356ZM35.5805 37.9283C35.5698 38.9848 34.7801 39.6785 33.6702 39.6785C28.601 39.6785 23.5318 39.6785 18.4626 39.6785C13.3507 39.6785 8.23887 39.6785 3.13766 39.6785C2.12382 39.6785 1.3554 39.0595 1.23801 38.1631C1.22734 38.099 1.22735 38.035 1.22735 37.8856C2.11313 38.5793 3.10562 38.4832 4.07677 38.4832C11.7179 38.4832 19.3484 38.4726 26.9896 38.4939C28.0568 38.4939 28.9105 38.1417 29.6576 37.384C31.5999 35.4097 33.5635 33.4674 35.5592 31.4717C35.5805 31.5571 35.6018 31.5891 35.6018 31.6211C35.5912 33.7235 35.6019 35.8259 35.5805 37.9283ZM28.8678 34.1397C28.8678 33.4247 28.8678 32.699 28.8678 31.984C28.8785 31.1409 29.4227 30.5646 30.2551 30.5539C31.6959 30.5326 33.126 30.5326 34.5667 30.5326C32.635 32.4642 30.6927 34.3958 28.8678 36.2207C28.8678 35.6444 28.8678 34.8974 28.8678 34.1397ZM34.6094 30.5433C34.62 30.5433 34.6307 30.5646 34.6094 30.5433V30.5433ZM34.6947 30.5433C34.7054 30.5326 34.7161 30.5219 34.7268 30.5219C34.7374 30.5219 34.7481 30.5326 34.7588 30.5326C34.7481 30.5433 34.7374 30.5539 34.7268 30.5753C34.7161 30.5646 34.7054 30.5539 34.6947 30.5433ZM35.5911 27.8326C35.5911 28.8251 35.0469 29.3587 34.0544 29.3587C32.8164 29.3587 31.5785 29.348 30.3406 29.3587C28.7398 29.3693 27.6725 30.4472 27.6619 32.048C27.6619 33.3073 27.6619 34.5773 27.6619 35.8366C27.6619 36.701 27.0963 37.2773 26.2425 37.2773C18.5053 37.2773 10.7788 37.2773 3.04157 37.2773C1.96369 37.2773 1.22735 36.5196 1.19533 35.4417C1.18466 35.0255 1.19533 34.6199 1.19533 34.2037C1.19533 28.0887 1.20599 18.9108 1.18465 12.9345C1.18465 12.5396 1.29137 12.4649 1.66489 12.4649C10.3626 12.4756 23.4358 12.4755 32.7204 12.4755C33.4034 12.4755 34.0757 12.4862 34.7588 12.4755C34.8121 12.4755 34.8655 12.4755 34.9188 12.4755C35.0042 12.4755 35.1003 12.4755 35.1856 12.4755C35.4844 12.4649 35.5911 12.5289 35.5911 12.8598C35.5911 17.8542 35.5911 22.8488 35.5911 27.8326Z" fill="#060606"/>
<path d="M20.2234 24.5137C20.2234 22.6995 20.2234 20.896 20.2234 19.0817C20.2234 18.5588 20.0313 18.3133 19.5831 18.3026C18.804 18.2813 18.0144 18.2813 17.2246 18.3026C16.8404 18.3133 16.5736 18.6014 16.5949 18.9323C16.6163 19.2631 16.8618 19.4872 17.2459 19.4979C17.7155 19.5086 18.1744 19.5193 18.644 19.4979C18.9641 19.4766 19.0389 19.5939 19.0389 19.8927C19.0282 23.1797 19.0282 26.4667 19.0282 29.7537C19.0282 29.9031 19.0175 30.0525 19.0389 30.1912C19.0816 30.4687 19.2523 30.6394 19.5404 30.6715C19.8392 30.7035 20.0527 30.5861 20.1701 30.2979C20.2341 30.1485 20.2234 29.9885 20.2234 29.8284C20.2234 28.0568 20.2234 26.2853 20.2234 24.5137Z" fill="#060606"/>
</svg>
