<svg width="33" height="33" viewBox="0 0 33 33" fill="none" xmlns="http://www.w3.org/2000/svg">
<path d="M11.3525 27.8628C11.9272 27.8628 12.3931 27.3969 12.3931 26.8223C12.3931 26.2476 11.9272 25.7817 11.3525 25.7817C10.7779 25.7817 10.312 26.2476 10.312 26.8223C10.312 27.3969 10.7779 27.8628 11.3525 27.8628Z" stroke="#FFC397" stroke-width="2" stroke-linecap="round" stroke-linejoin="round"/>
<path d="M25.7895 27.8628C26.3642 27.8628 26.8301 27.3969 26.8301 26.8223C26.8301 26.2476 26.3642 25.7817 25.7895 25.7817C25.2149 25.7817 24.749 26.2476 24.749 26.8223C24.749 27.3969 25.2149 27.8628 25.7895 27.8628Z" stroke="#FFC397" stroke-width="2" stroke-linecap="round" stroke-linejoin="round"/>
<path d="M3.09277 5.15601H7.21777L10.3115 22.6873H26.8115" stroke="#FFC397" stroke-width="2" stroke-linecap="round" stroke-linejoin="round"/>
<path d="M10.314 18.5635H26.3912C26.5104 18.5636 26.626 18.5223 26.7182 18.4467C26.8105 18.3712 26.8737 18.266 26.8971 18.149L28.7534 8.86779C28.7683 8.79295 28.7665 8.71572 28.748 8.64167C28.7295 8.56762 28.6948 8.4986 28.6464 8.43959C28.598 8.38058 28.5371 8.33305 28.4681 8.30043C28.3991 8.26781 28.3237 8.25092 28.2474 8.25098H8.25146" stroke="#FFC397" stroke-width="2" stroke-linecap="round" stroke-linejoin="round"/>
</svg>
