<svg width="33" height="33" viewBox="0 0 33 33" fill="none" xmlns="http://www.w3.org/2000/svg">
<path d="M11.352 27.8623C11.9267 27.8623 12.3926 27.3964 12.3926 26.8218C12.3926 26.2471 11.9267 25.7812 11.352 25.7812C10.7774 25.7812 10.3115 26.2471 10.3115 26.8218C10.3115 27.3964 10.7774 27.8623 11.352 27.8623Z" stroke="#FFC397" stroke-width="2" stroke-linecap="round" stroke-linejoin="round"/>
<path d="M25.7895 27.8623C26.3642 27.8623 26.8301 27.3964 26.8301 26.8218C26.8301 26.2471 26.3642 25.7812 25.7895 25.7812C25.2149 25.7812 24.749 26.2471 24.749 26.8218C24.749 27.3964 25.2149 27.8623 25.7895 27.8623Z" stroke="#FFC397" stroke-width="2" stroke-linecap="round" stroke-linejoin="round"/>
<path d="M3.09277 5.15625H7.21777L10.3115 22.6875H26.8115" stroke="#FFC397" stroke-width="2" stroke-linecap="round" stroke-linejoin="round"/>
<path d="M10.3135 18.5625H26.3907C26.5099 18.5626 26.6255 18.5213 26.7178 18.4458C26.81 18.3702 26.8732 18.265 26.8966 18.1481L28.7529 8.86682C28.7679 8.79198 28.766 8.71474 28.7475 8.6407C28.729 8.56665 28.6943 8.49762 28.6459 8.43861C28.5975 8.3796 28.5366 8.33207 28.4676 8.29946C28.3986 8.26684 28.3232 8.24995 28.2469 8.25H8.25098" stroke="#FFC397" stroke-width="2" stroke-linecap="round" stroke-linejoin="round"/>
</svg>
