<svg width="106" height="62" viewBox="0 0 106 62" fill="none" xmlns="http://www.w3.org/2000/svg">
<path d="M13.4728 61.3004H12.0917L11.8625 61.9639H11.1327L12.3812 58.4839H13.1893L14.4378 61.9639H13.702L13.4728 61.3004ZM13.2858 60.7395L12.7852 59.286L12.2847 60.7395H13.2858Z" fill="white"/>
<path d="M16.5003 61.409H17.6462V61.9639H15.8067V58.4839H16.5003V61.409Z" fill="white"/>
<path d="M19.6788 58.4839V61.9578H18.9853V58.4839H19.6788Z" fill="white"/>
<path d="M25.0524 58.4839V61.9578H24.3589V59.6962L23.4301 61.9578H22.8993L21.9645 59.6962V61.9578H21.2709V58.4839H22.061L23.1647 61.0652L24.2684 58.4839H25.0524Z" fill="white"/>
<path d="M27.3322 59.0508V59.9193H28.5022V60.4742H27.3322V61.3969H28.653V61.9639H26.6386V58.4839H28.653V59.0508H27.3322Z" fill="white"/>
<path d="M33.1524 61.9579H32.4528L30.8726 59.5756V61.9579H30.1791V58.4779H30.8726L32.4528 60.8662V58.4779H33.1524V61.9579Z" fill="white"/>
<path d="M37.0966 58.4839V59.0448H36.1739V61.9578H35.4803V59.0448H34.5515V58.4839H37.0966Z" fill="white"/>
<path d="M40.6309 61.3004H39.2498L39.0206 61.9639H38.2908L39.5393 58.4839H40.3474L41.5959 61.9639H40.8601L40.6309 61.3004ZM40.4439 60.7395L39.9434 59.286L39.4428 60.7395H40.4439Z" fill="white"/>
<path d="M43.0252 59.2981C43.1821 59.0267 43.3931 58.8156 43.6585 58.6649C43.9239 58.5141 44.2254 58.4357 44.5571 58.4357C44.9431 58.4357 45.2869 58.5382 45.5764 58.7373C45.8659 58.9363 46.071 59.2137 46.1856 59.5635H45.3834C45.305 59.4007 45.1904 59.274 45.0457 59.1896C44.9009 59.1052 44.7321 59.0629 44.5451 59.0629C44.34 59.0629 44.1651 59.1112 44.0023 59.2016C43.8455 59.2981 43.7249 59.4308 43.6344 59.5997C43.5439 59.7746 43.5017 59.9736 43.5017 60.2088C43.5017 60.438 43.5439 60.6371 43.6344 60.812C43.7249 60.9869 43.8455 61.1195 44.0023 61.216C44.1591 61.3125 44.34 61.3608 44.5451 61.3608C44.7321 61.3608 44.9009 61.3186 45.0457 61.2341C45.1904 61.1497 45.299 61.023 45.3834 60.8602H46.1856C46.071 61.216 45.8659 61.4935 45.5764 61.6865C45.2869 61.8855 44.9431 61.982 44.5511 61.982C44.2194 61.982 43.9179 61.9096 43.6525 61.7528C43.3871 61.602 43.176 61.3909 43.0192 61.1256C42.8624 60.8602 42.79 60.5526 42.79 60.2088C42.7961 59.8771 42.8684 59.5695 43.0252 59.2981Z" fill="white"/>
<path d="M48.3748 58.4839V61.9578H47.6813V58.4839H48.3748Z" fill="white"/>
<path d="M50.6788 61.7649C50.4074 61.6141 50.1903 61.403 50.0335 61.1316C49.8767 60.8602 49.7923 60.5526 49.7923 60.2149C49.7923 59.8771 49.8707 59.5695 50.0335 59.3042C50.1903 59.0328 50.4074 58.8217 50.6788 58.6709C50.9502 58.5201 51.2518 58.4417 51.5775 58.4417C51.9032 58.4417 52.2047 58.5201 52.4761 58.6709C52.7475 58.8217 52.9586 59.0328 53.1215 59.3042C53.2783 59.5756 53.3567 59.8771 53.3567 60.2149C53.3567 60.5586 53.2783 60.8602 53.1215 61.1316C52.9646 61.403 52.7475 61.6141 52.4761 61.7649C52.2047 61.9156 51.9032 61.9941 51.5775 61.9941C51.2518 61.9941 50.9502 61.9217 50.6788 61.7649ZM52.1263 61.2281C52.2831 61.1316 52.4098 60.9989 52.5002 60.824C52.5907 60.6491 52.6329 60.4441 52.6329 60.2149C52.6329 59.9857 52.5907 59.7806 52.5002 59.6057C52.4098 59.4308 52.2892 59.2981 52.1263 59.2077C51.9695 59.1172 51.7825 59.069 51.5715 59.069C51.3604 59.069 51.1794 59.1172 51.0166 59.2077C50.8538 59.2981 50.7331 59.4369 50.6427 59.6057C50.5522 59.7746 50.51 59.9857 50.51 60.2149C50.51 60.4441 50.5522 60.6491 50.6427 60.824C50.7331 60.9989 50.8598 61.1376 51.0166 61.2281C51.1794 61.3246 51.3604 61.3668 51.5715 61.3668C51.7825 61.3728 51.9695 61.3246 52.1263 61.2281ZM52.1143 57.7662L50.9683 58.2909V57.7903L52.1143 57.1993V57.7662Z" fill="white"/>
<path d="M57.0416 61.9579L55.4615 59.5756V61.9579H54.7679V58.4779H55.4615L57.0416 60.8662V58.4779H57.7413V61.9579H57.0416Z" fill="white"/>
<path d="M63.5311 61.3004H62.15L61.9207 61.9639H61.191L62.4394 58.4839H63.2476L64.4961 61.9639H63.7602L63.5311 61.3004ZM63.3381 60.7395L62.8375 59.286L62.3369 60.7395H63.3381Z" fill="white"/>
<path d="M68.8325 61.9579H68.1329L66.5527 59.5756V61.9579H65.8591V58.4779H66.5527L68.1329 60.8662V58.4779H68.8325V61.9579Z" fill="white"/>
<path d="M70.4789 59.2981C70.6357 59.0267 70.8468 58.8156 71.1122 58.6649C71.3775 58.5141 71.6791 58.4357 72.0108 58.4357C72.3968 58.4357 72.7406 58.5382 73.0301 58.7373C73.3196 58.9363 73.5246 59.2137 73.6392 59.5635H72.8371C72.7587 59.4007 72.6441 59.274 72.4993 59.1896C72.3546 59.1052 72.1857 59.0629 71.9987 59.0629C71.7937 59.0629 71.6188 59.1112 71.4559 59.2016C71.2991 59.2981 71.1785 59.4308 71.088 59.5997C70.9976 59.7746 70.9554 59.9736 70.9554 60.2088C70.9554 60.438 70.9976 60.6371 71.088 60.812C71.1785 60.9869 71.2991 61.1195 71.4559 61.216C71.6128 61.3125 71.7937 61.3608 71.9987 61.3608C72.1857 61.3608 72.3546 61.3186 72.4993 61.2341C72.6441 61.1497 72.7526 61.023 72.8371 60.8602H73.6392C73.5246 61.216 73.3196 61.4935 73.0301 61.6865C72.7406 61.8855 72.3968 61.982 72.0048 61.982C71.6731 61.982 71.3715 61.9096 71.1062 61.7528C70.8408 61.602 70.6297 61.3909 70.4729 61.1256C70.3161 60.8602 70.2437 60.5526 70.2437 60.2088C70.2437 59.8771 70.3221 59.5695 70.4789 59.2981Z" fill="white"/>
<path d="M75.8287 59.0508V59.9193H76.9987V60.4742H75.8287V61.3969H77.1495V61.9639H75.1351V58.4839H77.1495V59.0508H75.8287Z" fill="white"/>
<path d="M79.2241 61.8734C79.0311 61.789 78.8743 61.6684 78.7657 61.5176C78.6512 61.3608 78.5969 61.1799 78.5908 60.9627H79.3387C79.3508 61.1075 79.399 61.216 79.4895 61.3005C79.58 61.3849 79.7066 61.4271 79.8634 61.4271C80.0262 61.4271 80.1529 61.3849 80.2494 61.3125C80.3398 61.2341 80.3881 61.1316 80.3881 61.0049C80.3881 60.9024 80.358 60.818 80.2916 60.7516C80.2313 60.6853 80.1529 60.631 80.0564 60.5948C79.9599 60.5586 79.8333 60.5164 79.6644 60.4682C79.4412 60.4018 79.2543 60.3355 79.1155 60.2692C78.9768 60.2028 78.8502 60.1063 78.7537 59.9736C78.6511 59.8409 78.6029 59.666 78.6029 59.4489C78.6029 59.2439 78.6572 59.0629 78.7597 58.9121C78.8622 58.7614 79.007 58.6407 79.1939 58.5623C79.3809 58.4839 79.592 58.4417 79.8332 58.4417C80.1891 58.4417 80.4846 58.5262 80.7078 58.7011C80.9309 58.876 81.0576 59.1172 81.0757 59.4308H80.3097C80.3037 59.3102 80.2554 59.2137 80.1589 59.1353C80.0624 59.0569 79.9418 59.0207 79.785 59.0207C79.6463 59.0207 79.5377 59.0569 79.4593 59.1232C79.3809 59.1896 79.3387 59.2921 79.3387 59.4248C79.3387 59.5153 79.3689 59.5937 79.4292 59.654C79.4895 59.7143 79.5679 59.7625 79.6583 59.8047C79.7488 59.8409 79.8755 59.8892 80.0443 59.9374C80.2675 60.0038 80.4545 60.0701 80.5992 60.1365C80.744 60.2028 80.8646 60.3053 80.9671 60.438C81.0696 60.5707 81.1239 60.7456 81.1239 60.9627C81.1239 61.1497 81.0757 61.3186 80.9792 61.4814C80.8827 61.6382 80.7439 61.7649 80.557 61.8614C80.37 61.9579 80.1529 62.0001 79.8936 62.0001C79.6342 61.994 79.4171 61.9518 79.2241 61.8734Z" fill="white"/>
<path d="M84.9658 58.4839V59.0448H84.043V61.9578H83.3494V59.0448H82.4206V58.4839H84.9658Z" fill="white"/>
<path d="M88.1622 61.9578L87.3962 60.6069H87.0705V61.9578H86.377V58.4839H87.6797C87.9511 58.4839 88.1742 58.5321 88.3672 58.6286C88.5542 58.7251 88.699 58.8518 88.7955 59.0146C88.892 59.1775 88.9342 59.3584 88.9342 59.5574C88.9342 59.7866 88.8678 59.9917 88.7351 60.1786C88.6025 60.3656 88.4034 60.4923 88.1441 60.5586L88.9764 61.9699H88.1622V61.9578ZM87.0705 60.0821H87.6556C87.8425 60.0821 87.9873 60.0339 88.0778 59.9434C88.1682 59.853 88.2165 59.7263 88.2165 59.5635C88.2165 59.4067 88.1682 59.28 88.0778 59.1956C87.9873 59.1051 87.8425 59.0629 87.6556 59.0629H87.0705V60.0821Z" fill="white"/>
<path d="M92.589 61.3004H91.2079L90.9787 61.9639H90.2489L91.4974 58.4839H92.3056L93.554 61.9639H92.8182L92.589 61.3004ZM92.402 60.7395L91.9015 59.286L91.4009 60.7395H92.402Z" fill="white"/>
<path d="M96.7626 61.409V61.9639H94.9171V58.4839H95.6107V61.409H96.7626Z" fill="white"/>
<path d="M7.03398 60.9538C7.5079 60.7575 7.73295 60.2141 7.53664 59.7402C7.34033 59.2663 6.797 59.0412 6.32308 59.2375C5.84915 59.4339 5.6241 59.9772 5.82041 60.4511C6.01672 60.925 6.56006 61.1501 7.03398 60.9538Z" fill="white"/>
<path d="M101.586 60.9534C102.06 60.7571 102.285 60.2137 102.089 59.7398C101.892 59.2659 101.349 59.0408 100.875 59.2371C100.401 59.4334 100.176 59.9768 100.372 60.4507C100.569 60.9246 101.112 61.1497 101.586 60.9534Z" fill="white"/>
<path d="M44.7685 19.1548C44.6298 18.7869 44.5031 18.5095 44.5031 18.5095C44.5031 18.5095 44.6117 18.805 44.7685 19.1548Z" fill="white"/>
<path d="M0.59668 52.3803V51.542L1.83908 51.2163L1.65213 51.4576V43.786L1.89337 44.1358L0.59668 43.8101V42.9718L3.28053 42.9054H7.30932L7.32139 45.2515H6.32625L6.08501 43.9187L6.39259 44.1056H3.03325L3.30465 43.8342V47.272L3.03325 47.0307H6.28402V48.2309H3.03325L3.30465 47.9595V51.4515L3.08752 51.2103L4.6134 51.536V52.3743H0.59668V52.3803Z" fill="white"/>
<path d="M13.4851 52.5251C12.6589 52.5251 11.9351 52.3441 11.3139 51.9883C10.6927 51.6264 10.2102 51.0957 9.86647 50.384C9.52269 49.6724 9.34778 48.7978 9.34778 47.7545C9.34778 46.9282 9.45635 46.2045 9.67347 45.5772C9.89059 44.95 10.1921 44.4313 10.5902 44.0152C10.9883 43.599 11.4526 43.2854 11.9834 43.0803C12.5202 42.8753 13.1112 42.7727 13.7565 42.7727C14.3838 42.7727 14.9567 42.8753 15.4754 43.0743C15.9941 43.2794 16.4344 43.5749 16.8083 43.9729C17.1822 44.371 17.4717 44.8595 17.6828 45.4445C17.8939 46.0296 18.0025 46.705 18.0025 47.4831C18.0025 48.5445 17.8095 49.4492 17.4295 50.1971C17.0495 50.951 16.5188 51.5239 15.8433 51.928C15.1739 52.326 14.3898 52.5251 13.4851 52.5251ZM13.6118 51.2465C14.0943 51.2465 14.5346 51.1259 14.9266 50.8846C15.3186 50.6434 15.6322 50.2513 15.8674 49.7146C16.1027 49.1778 16.2233 48.4541 16.2233 47.5554C16.2233 46.7171 16.1147 46.0416 15.8916 45.5229C15.6684 45.0043 15.3729 44.6303 14.9929 44.3951C14.613 44.1599 14.1727 44.0453 13.6721 44.0453C13.1956 44.0453 12.7614 44.1599 12.3694 44.3951C11.9774 44.6303 11.6758 45.0163 11.4527 45.5471C11.2295 46.0838 11.1209 46.8015 11.1209 47.7002C11.1209 48.5385 11.2235 49.214 11.4285 49.7387C11.6336 50.2634 11.9231 50.6434 12.297 50.8846C12.683 51.1259 13.1172 51.2465 13.6118 51.2465Z" fill="white"/>
<path d="M20.5115 51.542L21.7901 51.2043L21.5609 51.542V43.786L21.8685 44.1478L20.5054 43.8101V42.9718L23.2858 42.9054H24.6911C25.7405 42.9054 26.5366 43.1225 27.0794 43.5688C27.6161 44.0091 27.8876 44.6424 27.8876 45.4687C27.8876 46.2225 27.6584 46.8438 27.194 47.3323C26.7296 47.8148 26.0119 48.1103 25.0408 48.2068V48.0198C25.3907 48.0379 25.6801 48.0982 25.9033 48.2068C26.1265 48.3154 26.3134 48.4601 26.4642 48.6471C26.615 48.834 26.7537 49.0511 26.8864 49.3165L27.978 51.4636L27.5076 51.1681L28.7078 51.548V52.3864H26.6813L25.457 49.7689C25.2942 49.407 25.1494 49.1356 25.0167 48.9426C24.884 48.7496 24.7272 48.6169 24.5282 48.5385C24.3352 48.4601 24.0638 48.4299 23.714 48.436H22.93L23.2134 48.1947V51.5541L22.9842 51.2163L24.4136 51.5541V52.3924H20.5115V51.542ZM23.2255 47.6881L22.942 47.272H24.1121C24.7936 47.272 25.3123 47.1333 25.6681 46.8498C26.0239 46.5663 26.1988 46.1502 26.1988 45.6013C26.1988 45.1249 26.0601 44.757 25.7767 44.4977C25.4932 44.2383 25.0589 44.1056 24.4739 44.1056H22.936L23.2194 43.8523V47.6881H23.2255Z" fill="white"/>
<path d="M36.8015 49.9498H37.7846L37.7725 52.3743H30.8126V51.536L32.0912 51.1982L31.862 51.536V43.7799L32.0912 44.1177L30.8126 43.8101V42.9718L33.4965 42.9054H37.6217V45.2395H36.6266L36.3673 43.8644L36.693 44.1056H33.2552L33.5266 43.8342V47.2297L33.2552 46.9583H36.5844V48.1163H33.2552L33.5266 47.8208V51.4335L33.2552 51.1621H36.8558L36.5301 51.4335L36.8015 49.9498Z" fill="white"/>
<path d="M43.303 52.3924L40.4201 43.8282L40.8121 44.1237L39.5576 43.8161V42.9778L43.4176 42.9114V43.7498L42.0425 44.0996L42.2415 43.6955L44.4368 50.9389H44.1956L46.5839 43.792L46.7166 44.1177L45.4199 43.8221V42.9838L48.9421 42.9175V43.7558L47.6997 44.0935L48.0917 43.798L45.058 52.3984H43.303V52.3924Z" fill="white"/>
<path d="M56.6198 49.9498H57.6029L57.5908 52.3743H50.6309V51.536L51.9095 51.1982L51.6803 51.536V43.7799L51.9095 44.1177L50.6309 43.8101V42.9718L53.3148 42.9054H57.4401V45.2395H56.4449L56.1856 43.8644L56.5113 44.1056H53.0735L53.3449 43.8342V47.2297L53.0735 46.9583H56.4027V48.1163H53.0735L53.3449 47.8208V51.4335L53.0735 51.1621H56.6741L56.3484 51.4335L56.6198 49.9498Z" fill="white"/>
<path d="M60.2507 51.542L61.5292 51.2043L61.3001 51.542V43.786L61.6077 44.1478L60.2446 43.8101V42.9718L63.025 42.9054H64.4302C65.4796 42.9054 66.2757 43.1225 66.8186 43.5688C67.3553 44.0091 67.6267 44.6424 67.6267 45.4687C67.6267 46.2225 67.3975 46.8438 66.9331 47.3323C66.4687 47.8148 65.751 48.1103 64.78 48.2068V48.0198C65.1298 48.0379 65.4193 48.0982 65.6425 48.2068C65.8656 48.3154 66.0526 48.4601 66.2034 48.6471C66.3541 48.834 66.4929 49.0511 66.6255 49.3165L67.7172 51.4636L67.2468 51.1681L68.447 51.548V52.3864H66.4205L65.1962 49.7689C65.0333 49.407 64.8886 49.1356 64.7559 48.9426C64.6232 48.7496 64.4664 48.6169 64.2674 48.5385C64.0744 48.4601 63.803 48.4299 63.4532 48.436H62.6691L62.9526 48.1947V51.5541L62.7234 51.2163L64.1528 51.5541V52.3924H60.2507V51.542ZM62.9586 47.6881L62.6752 47.272H63.8512C64.5327 47.272 65.0514 47.1333 65.4073 46.8498C65.7631 46.5663 65.938 46.1502 65.938 45.6013C65.938 45.1249 65.7993 44.757 65.5158 44.4977C65.2324 44.2383 64.7981 44.1056 64.2131 44.1056H62.6752L62.9586 43.8523V47.6881Z" fill="white"/>
<path d="M78.6033 42.9115C79.2426 42.9115 79.8216 43.008 80.3463 43.1949C80.871 43.3819 81.3233 43.6714 81.7033 44.0513C82.0833 44.4313 82.3728 44.9078 82.5778 45.4807C82.7829 46.0537 82.8854 46.7171 82.8854 47.4831C82.8854 48.5506 82.6924 49.4492 82.3124 50.1729C81.9325 50.8967 81.3957 51.4455 80.7142 51.8194C80.0327 52.1934 79.2366 52.3803 78.3259 52.3803H74.4177V51.542L75.7144 51.2043L75.4732 51.542V43.786L75.7264 44.1358L74.4177 43.8101V42.9718L77.3006 42.9054H78.6033V42.9115ZM78.4163 51.1801C78.748 51.1801 79.0737 51.1258 79.3874 51.0233C79.701 50.9208 79.9904 50.7399 80.2498 50.4866C80.5091 50.2332 80.7202 49.8714 80.8771 49.4009C81.0339 48.9305 81.1123 48.3334 81.1123 47.5916C81.1123 46.8739 81.0399 46.2829 80.8891 45.8305C80.7383 45.3782 80.5453 45.0284 80.2981 44.7811C80.0508 44.5338 79.7794 44.3589 79.4778 44.2624C79.1763 44.1659 78.8687 44.1117 78.5551 44.1117H76.8724L77.1438 43.8402V51.4455L76.8724 51.1741H78.4163V51.1801Z" fill="white"/>
<path d="M89.6463 52.5251C88.82 52.5251 88.0963 52.3441 87.4751 51.9883C86.8539 51.6264 86.3714 51.0957 86.0276 50.384C85.6839 49.6724 85.5089 48.7978 85.5089 47.7545C85.5089 46.9282 85.6175 46.2045 85.8346 45.5772C86.0517 44.95 86.3533 44.4313 86.7514 44.0152C87.1494 43.599 87.6138 43.2854 88.1446 43.0803C88.6753 42.8753 89.2724 42.7727 89.9177 42.7727C90.5449 42.7727 91.1179 42.8753 91.6366 43.0743C92.1553 43.2794 92.5955 43.5749 92.9695 43.9729C93.3434 44.371 93.6329 44.8595 93.844 45.4445C94.0551 46.0296 94.1636 46.705 94.1636 47.4831C94.1636 48.5445 93.9706 49.4492 93.5907 50.1971C93.2107 50.951 92.68 51.5239 92.0045 51.928C91.329 52.326 90.5449 52.5251 89.6463 52.5251ZM89.7669 51.2465C90.2494 51.2465 90.6897 51.1259 91.0817 50.8846C91.4737 50.6434 91.7873 50.2513 92.0226 49.7146C92.2578 49.1778 92.3784 48.4541 92.3784 47.5554C92.3784 46.7171 92.2698 46.0416 92.0467 45.5229C91.8235 45.0043 91.528 44.6303 91.148 44.3951C90.7681 44.1599 90.3278 44.0453 89.8272 44.0453C89.3508 44.0453 88.9165 44.1599 88.5245 44.3951C88.1325 44.6303 87.8309 45.0163 87.6078 45.5471C87.3846 46.0838 87.2761 46.8015 87.2761 47.7002C87.2761 48.5385 87.3786 49.214 87.5836 49.7387C87.7887 50.2634 88.0782 50.6434 88.4521 50.8846C88.8381 51.1259 89.2724 51.2465 89.7669 51.2465Z" fill="white"/>
<path d="M101.16 52.5251C100.279 52.5251 99.5072 52.3441 98.8498 51.9762C98.1924 51.6084 97.6797 51.0716 97.3178 50.3599C96.962 49.6422 96.7811 48.7616 96.7811 47.7122C96.7811 46.6688 96.962 45.7823 97.3239 45.0405C97.6857 44.3047 98.2104 43.7377 98.8859 43.3457C99.5614 42.9537 100.376 42.7607 101.323 42.7607C101.835 42.7607 102.366 42.821 102.921 42.9356C103.476 43.0502 104.03 43.2251 104.597 43.4603L104.477 45.7823H103.482L103.198 44.178L103.451 44.4192C103.108 44.3046 102.764 44.2082 102.414 44.1358C102.064 44.0634 101.739 44.0272 101.431 44.0272C100.828 44.0272 100.315 44.1659 99.8871 44.4434C99.4589 44.7208 99.1332 45.1309 98.904 45.6797C98.6749 46.2225 98.5602 46.892 98.5602 47.6821C98.5602 48.8039 98.8015 49.6784 99.284 50.3056C99.7665 50.9329 100.454 51.2404 101.353 51.2404C101.642 51.2404 101.938 51.2043 102.251 51.1379C102.559 51.0716 102.885 50.9811 103.216 50.8605L103.017 51.2103V48.5264L103.289 48.822L101.968 48.5928V47.7303L105.58 47.664V48.5385L104.38 48.822L104.555 48.5264V51.7772C103.946 52.0184 103.355 52.2054 102.782 52.3321C102.203 52.4648 101.66 52.5251 101.16 52.5251Z" fill="white"/>
<path fill-rule="evenodd" clip-rule="evenodd" d="M58.0492 30.608C58.2301 30.602 58.4051 30.5959 58.586 30.5959C58.5377 29.9989 58.399 29.3596 58.399 29.3596C58.3508 29.2389 58.3206 29.1183 58.2965 29.0098C58.4231 27.9121 58.972 25.9761 59.1047 25.6625C59.1891 25.4695 59.5329 25.4514 59.943 24.9508C59.4123 25.3669 59.0624 25.4574 59.0624 25.4574C58.8453 25.8374 58.4895 27.3693 58.2543 28.4066C58.1518 28.859 58.0733 29.2148 58.0432 29.3354C57.9889 29.5586 58.013 30.1496 58.0492 30.608Z" fill="white"/>
<path fill-rule="evenodd" clip-rule="evenodd" d="M61.2215 14.6074C61.3783 14.722 61.704 14.4084 61.8367 14.3059C61.5351 14.3239 61.2215 14.6074 61.2215 14.6074Z" fill="white"/>
<path fill-rule="evenodd" clip-rule="evenodd" d="M50.673 27.6588C50.667 27.7492 50.667 27.8397 50.6549 27.9302C51.4933 26.7903 51.9818 25.3971 51.9818 25.3971C52.2471 25.5599 53.2724 25.6564 53.2724 25.6564C52.3436 25.379 51.8069 25.0111 51.8069 25.0111C51.831 25.6685 51.1253 26.929 50.673 27.6588Z" fill="white"/>
<path fill-rule="evenodd" clip-rule="evenodd" d="M88.4098 34.287C88.3917 30.3848 87.7584 26.5732 86.4678 22.8881C86.2386 22.2307 86.2688 22.0679 85.6053 21.7784C84.8937 21.4648 83.7839 21.2839 82.9999 21.1572C82.4993 21.0788 81.9324 21.0426 81.4619 20.9461C81.0578 20.8617 80.6779 20.7953 81.3896 20.6626C82.4149 20.4757 83.4402 20.4274 84.4232 20.0173C84.8273 19.8484 85.1771 19.7037 84.9359 19.2152C84.1639 17.641 83.3135 16.1936 82.3184 14.7521C82.2219 14.6255 82.1374 14.529 82.0108 14.4325C81.3413 13.9681 79.7672 13.8776 78.953 13.8233C78.0664 13.763 77.1255 13.6786 76.239 13.6485C74.9724 13.6123 73.6999 13.5037 72.4394 13.4796C71.981 13.4675 67.8195 13.2866 67.8858 13.172C67.9401 13.0755 71.6433 12.8342 72.0232 12.8041C73.2415 12.7197 74.4598 12.6292 75.6781 12.5267C76.824 12.4362 78.3619 12.2794 79.4355 11.9175C79.8395 11.7788 79.8938 11.6642 79.6224 11.3506C77.602 9.08288 75.1534 7.04435 72.6082 5.40388C71.5106 4.74649 70.4612 4.51731 69.1946 4.53541C68.6156 4.54144 68.0608 4.54144 67.4818 4.54144C66.5831 4.54144 65.7509 4.65604 64.8643 4.69222C64.2009 4.72238 63.459 4.74649 62.7956 4.74046C61.6678 4.73443 60.4977 4.71634 59.3699 4.62587C58.6703 4.57159 57.9647 4.58969 57.2771 4.52335C56.9936 4.49922 56.7464 4.48113 56.4689 4.46304C56.1553 4.44494 56.089 4.36654 55.7693 4.39067C55.0999 4.43288 54.5269 4.47509 53.8514 4.46906C53.4534 4.46303 52.3979 4.43287 52.0361 4.33638C51.7827 4.27003 51.3244 4.22179 51.8973 4.11323C53.0191 3.90214 54.2555 3.95642 55.4014 3.82977C56.7343 3.68502 58.037 3.61264 59.3699 3.52217C60.1057 3.47393 60.8174 3.39552 61.5472 3.34124C62.7654 3.25077 64.0802 3.08793 65.2623 2.78034C66.0222 2.58131 66.6073 2.35816 65.5156 1.93598C61.915 0.639291 57.9405 0.00603113 54.1168 0C47.754 0.048249 42.0847 1.58619 36.5903 4.81284C35.2997 5.5788 33.7859 6.59805 32.6339 7.56303L32.5555 7.6354C31.5664 8.54007 37.4347 8.46168 37.6759 8.46168C39.8652 8.45565 41.9761 8.64863 44.1534 8.79941C44.2981 8.81147 46.2341 8.9321 45.7697 8.95019C45.2752 8.97432 44.6841 8.94416 44.1835 8.9321C44.0267 8.9321 42.3078 8.87782 42.3501 9.11907C42.3742 9.25778 41.0895 9.30603 40.9629 9.3181C40.2573 9.35428 39.5999 9.3965 38.8882 9.45681C36.2526 9.67997 33.5205 9.77043 30.915 10.1745C30.1792 10.2891 29.5339 10.4037 28.9911 10.9586C27.5617 12.5025 26.2892 14.143 25.1553 15.9161C24.9744 16.1996 24.6125 16.7485 24.4798 17.0259C24.2024 17.623 25.5111 17.7134 25.861 17.7677C26.639 17.8883 27.5135 17.9366 28.2734 18.0934C28.786 18.1959 28.3578 18.2683 28.1467 18.3105C27.7185 18.3889 27.3084 18.4432 26.8802 18.5216C25.9333 18.6844 25.2699 18.8292 24.3652 19.185C23.7983 19.4082 23.1047 19.6132 22.8333 20.2163C20.825 24.6673 19.8359 29.4259 19.8178 34.299C19.8178 35.656 19.9022 37.001 20.053 38.3158C25.3845 38.3158 17.8878 38.3278 23.2193 38.3218C23.2314 38.3218 23.2434 38.3158 23.2555 38.3158H29.932C30.2516 38.2132 30.5713 38.1228 30.8849 38.0142C31.3191 37.8695 31.7534 37.773 32.1876 37.6343C32.6641 37.4774 33.1043 37.4232 33.5989 37.3448C34.0633 37.2724 34.5036 37.1879 34.9619 37.1035C35.1127 37.0734 35.9993 36.9407 36.0234 36.8442C35.9148 36.7658 35.2333 36.7236 35.0584 36.6994C34.9559 36.6874 34.7569 36.6693 34.9378 36.5788C35.1489 36.4763 34.8956 36.4401 34.9921 36.3436C35.0041 36.3315 35.5892 36.0179 35.6495 35.9878C35.8184 35.9033 35.9872 35.8249 36.1501 35.7465C36.6989 35.4872 37.2899 35.3364 37.881 35.2278C38.4238 35.1313 39.0752 35.0529 39.624 35.077C40.3357 35.1072 40.9689 35.1313 41.6806 35.1012C42.9773 35.0409 44.3102 34.9625 45.6008 34.8479C45.8602 34.8237 46.9156 34.7091 45.9567 34.6127C45.4561 34.5584 44.8168 34.5463 44.3041 34.5523C43.7252 34.5523 43.2004 34.5523 42.6215 34.5162C41.958 34.4739 41.2343 34.4739 40.5829 34.3654C39.7627 34.2327 39.7567 34.0397 40.5166 33.7442C41.4635 33.3461 42.4164 32.9601 43.3874 32.6344C43.7794 32.5018 44.1775 32.3811 44.5756 32.2726C45.6129 31.9831 47.0001 31.6152 48.0555 31.5066C48.4837 31.4644 48.918 31.4161 49.3462 31.3679C49.0024 30.8733 48.7129 30.3848 48.7129 30.3848C48.3028 29.7817 48.7491 29.263 48.7491 29.263C49.3884 26.2897 47.7359 25.2222 47.7359 25.2222C45.058 28.9916 40.0824 25.8615 40.0824 25.8615C43.3874 25.5177 45.5104 24.6794 46.2703 22.9846C47.2111 20.8798 48.6948 20.1198 51.0711 20.0354C53.2423 19.9751 55.8116 19.3056 55.8116 19.3056C57.7355 18.9498 59.0322 16.863 59.0322 16.863C58.5316 16.7424 58.423 16.477 58.423 16.477L59.3277 15.892C60.3289 13.9922 61.8246 14.0586 61.8246 14.0586L63.453 12.8041C64.1104 12.9066 63.845 13.8475 63.845 13.8475V13.8716L63.851 13.9078C64.1827 13.7268 64.3335 14.1973 64.3335 14.1973C64.5929 14.7702 63.7063 15.2105 63.7063 15.2105C63.5796 15.7352 63.4108 16.0247 63.4108 16.0247C62.9826 18.1235 63.7847 18.606 62.6026 21.1512C61.8186 22.9002 61.0164 23.9496 60.3771 24.5708C60.0092 25.6504 59.4121 28.2378 59.3277 28.5876C59.2312 28.9916 59.376 30.4753 59.376 30.4753C59.6293 30.4451 59.7921 30.5055 59.8946 30.5959C60.932 30.608 61.9995 30.6562 63.1635 30.7407C64.2913 30.8251 67.9582 31.0543 68.7905 31.573C68.9534 31.6876 69.0861 31.8082 68.8689 31.959C68.3563 32.3027 65.2623 32.5319 64.4783 32.6103C63.7968 32.6767 63.1032 32.737 62.4156 32.7792C61.2456 32.8576 60.0575 32.9239 58.8874 32.9903C58.3205 33.0204 57.5907 33.0446 57.054 33.1712C56.7886 33.2315 56.5534 33.2798 56.288 33.328C56.7041 33.2677 57.1263 33.1531 57.5364 33.1109C58.1094 33.0566 58.7065 33.0265 59.2855 32.9903C59.8826 32.9541 60.4796 32.9239 61.0828 32.8938C61.0647 32.8938 61.0466 32.8938 61.0285 32.8998C59.6172 33.0023 58.1275 33.0204 56.7464 33.2858C56.4629 33.3401 55.6125 33.4486 56.4629 33.5391C57.7355 33.6839 59.0322 33.708 60.3108 33.8648C60.944 33.9432 61.8246 34.0578 62.4217 34.2568C65.0693 35.1374 70.9798 34.1422 63.8631 35.7103C60.9863 37.1638 64.43 35.9094 61.324 37.4714C61.1491 37.5559 60.0575 37.6343 59.7861 37.6644C59.6594 37.6765 59.5328 37.6885 59.4061 37.7006C59.1106 37.7247 58.7487 37.7428 58.4652 37.7911C57.9285 37.8755 58.025 38.0625 57.3796 38.0685C56.5835 38.1951 56.0166 38.2675 55.5522 38.3097H72.1258C71.5287 37.6041 67.8256 37.3387 67.723 37.3086C67.4758 37.2362 68.8147 37.1819 68.9293 37.1759C69.0077 37.1698 69.0861 37.1638 69.1645 37.1638C71.0944 36.7055 73.1933 38.2072 72.946 36.2049C73.0063 36.0662 72.9219 35.5716 72.8736 35.4088C72.7349 35.0047 72.3489 34.6247 71.9629 34.4438C71.9569 34.4377 71.595 34.3171 71.7639 34.3232C71.9629 34.3292 72.3188 34.4619 72.4937 34.5584C72.6927 34.673 72.8736 34.7936 73.0365 34.9564C73.4526 35.3907 73.5551 36.0782 73.5973 36.6572C73.6275 37.1035 73.8627 37.6463 74.116 38.0142C74.1763 38.1047 74.2849 38.2072 74.4055 38.3097H88.4279V37.7066H88.247C88.3435 36.5788 88.4098 35.4389 88.4098 34.287Z" fill="white"/>
<path fill-rule="evenodd" clip-rule="evenodd" d="M57.1082 30.1014C56.8609 29.444 57.0057 28.9313 57.0057 28.9313C57.1323 27.9905 56.8006 25.8012 56.8006 25.8012C55.3532 26.0846 54.1409 25.9097 53.2724 25.6504C52.8321 26.6455 52.0843 27.7492 52.0843 27.7492C51.1253 29.9687 52.4944 30.9638 52.4944 30.9638C52.7236 30.9156 52.8985 30.9216 53.0312 30.9638C53.2784 30.9397 53.5257 30.9156 53.773 30.8914C54.9973 30.7708 56.1191 30.6864 57.2107 30.6321C57.1625 30.3305 57.1082 30.1014 57.1082 30.1014Z" fill="white"/>
<path fill-rule="evenodd" clip-rule="evenodd" d="M50.5343 28.7806C50.6248 28.3704 50.667 27.9965 50.6791 27.6588C50.474 27.9965 50.3172 28.2197 50.3172 28.2197C49.6116 29.8481 50.1664 30.8191 50.5102 31.2171C50.7756 31.187 51.0409 31.1568 51.3063 31.1327C50.8962 30.5658 50.4982 29.9023 50.4982 29.9023C50.088 29.2992 50.5343 28.7806 50.5343 28.7806Z" fill="white"/>
</svg>
