<svg width="157" height="27" viewBox="0 0 157 27" fill="none" xmlns="http://www.w3.org/2000/svg">
<path fill-rule="evenodd" clip-rule="evenodd" d="M26.8927 21.2339C26.8607 20.82 26.7607 20.3741 26.7607 20.3741C26.7287 20.2882 26.7067 20.2062 26.6907 20.1302C26.7807 19.3704 27.1606 18.0228 27.2526 17.8069C27.3106 17.6729 27.5505 17.6609 27.8364 17.311C27.4665 17.601 27.2266 17.6609 27.2266 17.6609C27.0766 17.9269 26.8267 18.9905 26.6647 19.7063C26.5948 20.0202 26.5408 20.2662 26.5208 20.3521C26.4808 20.5141 26.4988 20.922 26.5208 21.2399C26.6447 21.2399 26.7687 21.2359 26.8927 21.2339Z" fill="#202B3E"/>
<path fill-rule="evenodd" clip-rule="evenodd" d="M29.1515 9.93115C28.9435 9.94315 28.7256 10.1411 28.7256 10.1411C28.8356 10.2191 29.0595 10.0011 29.1515 9.93115Z" fill="#202B3E"/>
<path fill-rule="evenodd" clip-rule="evenodd" d="M22.3133 17.6269C22.4993 17.7408 23.2091 17.8068 23.2091 17.8068C22.5633 17.6149 22.1934 17.3569 22.1934 17.3569C22.2054 17.8168 21.7155 18.6905 21.4036 19.1964C21.4016 19.2584 21.3976 19.3224 21.3916 19.3863C21.9754 18.5946 22.3133 17.6269 22.3133 17.6269Z" fill="#202B3E"/>
<path fill-rule="evenodd" clip-rule="evenodd" d="M47.5982 23.7991C47.5882 21.0919 47.1463 18.4446 46.2486 15.8894C46.0886 15.4355 46.1106 15.3196 45.6487 15.1176C45.1549 14.9017 44.3851 14.7757 43.8393 14.6857C43.4934 14.6298 43.0975 14.6078 42.7696 14.5398C42.4897 14.4818 42.2257 14.4338 42.7216 14.3418C43.4314 14.2119 44.1452 14.1759 44.827 13.894C45.1069 13.778 45.3488 13.678 45.1829 13.3381C44.645 12.2464 44.0572 11.2407 43.3654 10.239C43.2994 10.1491 43.2394 10.0831 43.1515 10.0171C42.6876 9.69719 41.5939 9.62921 41.0301 9.59322C40.4143 9.55323 39.7605 9.49125 39.1486 9.47325C38.2689 9.44726 37.3891 9.37328 36.5134 9.35528C36.1955 9.34929 33.3063 9.22332 33.3543 9.14135C33.3943 9.07337 35.9616 8.90542 36.2275 8.88742C37.0712 8.82744 37.919 8.76546 38.7627 8.69748C39.5585 8.63349 40.6262 8.52552 41.372 8.2756C41.6519 8.18162 41.6899 8.09765 41.5019 7.87971C40.1004 6.30617 38.4029 4.89258 36.6334 3.75091C35.8736 3.29305 35.1418 3.13509 34.2641 3.14708C33.8622 3.15308 33.4743 3.15108 33.0744 3.15308C32.4486 3.15508 31.8727 3.23106 31.2569 3.25705C30.7971 3.27705 30.2812 3.29305 29.8233 3.29105C29.0396 3.28505 28.2278 3.27505 27.448 3.21307C26.9622 3.17308 26.4723 3.18707 25.9965 3.14309C25.8005 3.12509 25.6286 3.11509 25.4326 3.1031C25.2167 3.0891 25.1667 3.03912 24.9468 3.05112C24.4809 3.07911 24.087 3.1071 23.6151 3.1031C23.3372 3.1011 22.6074 3.07711 22.3535 3.01113C22.1796 2.96514 21.8597 2.93115 22.2575 2.85717C23.0373 2.71121 23.8931 2.7492 24.6908 2.65923C25.6146 2.55726 26.5203 2.50727 27.446 2.44529C27.9559 2.4113 28.4517 2.35732 28.9576 2.32133C29.8013 2.25935 30.7171 2.14738 31.5368 1.93344C32.0647 1.79548 32.4686 1.64152 31.7128 1.34561C29.2135 0.445872 26.4543 0.00799768 23.8011 0C19.3844 0.0339901 15.4495 1.10168 11.6366 3.33903C10.7409 3.87288 9.68919 4.58067 8.89142 5.24848L8.83743 5.29846C8.15363 5.92628 12.2245 5.87229 12.3904 5.87229C13.912 5.8663 15.3755 6.00226 16.8891 6.10423C16.9891 6.11023 18.3307 6.1942 18.0108 6.2102C17.6689 6.22619 17.255 6.2042 16.9091 6.2002C16.8011 6.1982 15.6055 6.16421 15.6375 6.33016C15.6555 6.42814 14.7617 6.46212 14.6757 6.46612C14.1859 6.49211 13.728 6.52011 13.2382 6.56209C11.4087 6.71605 9.51324 6.78003 7.70176 7.05795C7.18991 7.13593 6.74205 7.21591 6.36615 7.60379C5.37444 8.67548 4.4887 9.81515 3.70493 11.0468C3.58096 11.2427 3.32904 11.6226 3.23706 11.8166C3.04312 12.2305 3.95485 12.2944 4.19678 12.3324C4.73663 12.4164 5.34445 12.4504 5.8703 12.5564C6.22619 12.6283 5.92828 12.6783 5.78032 12.7063C5.48241 12.7623 5.19649 12.8003 4.90258 12.8523C4.24677 12.9682 3.7849 13.0642 3.15509 13.3121C2.7612 13.4681 2.27934 13.6101 2.09139 14.0259C0.699799 17.115 0.0119965 20.4181 0 23.8011C0 24.7448 0.0559828 25.6765 0.163951 26.5903C3.86488 26.5903 -1.33961 26.5983 2.36132 26.5923C2.37131 26.5923 2.37931 26.5903 2.38731 26.5903H7.02196C7.2419 26.5183 7.46583 26.4543 7.68377 26.3823C7.98568 26.2824 8.28559 26.2164 8.58751 26.1184C8.91941 26.0104 9.22333 25.9725 9.56523 25.9185C9.88913 25.8685 10.191 25.8125 10.5109 25.7525C10.6149 25.7325 11.2287 25.6406 11.2487 25.5706C11.1728 25.5166 10.7029 25.4866 10.5769 25.4706C10.5069 25.4606 10.367 25.4486 10.495 25.3866C10.6409 25.3167 10.465 25.2927 10.5329 25.2227C10.5389 25.2167 10.9488 24.9967 10.9888 24.9768C11.1048 24.9208 11.2207 24.8648 11.3367 24.8068C11.7166 24.6269 12.1265 24.5209 12.5384 24.4449C12.9143 24.3769 13.3661 24.3229 13.748 24.3389C14.2419 24.3589 14.6797 24.3789 15.1756 24.3549C16.0753 24.3129 16.9991 24.257 17.8968 24.179C18.0768 24.163 18.8085 24.085 18.1447 24.017C17.7988 23.981 17.353 23.973 16.9991 23.973C16.5972 23.973 16.2333 23.973 15.8294 23.949C15.3675 23.9211 14.8677 23.9191 14.4138 23.8451C13.844 23.7531 13.842 23.6171 14.3678 23.4152C15.0256 23.1393 15.6854 22.8714 16.3592 22.6434C16.6332 22.5515 16.9071 22.4695 17.185 22.3915C17.9028 22.1896 18.8685 21.9356 19.6003 21.8617C19.8982 21.8317 20.1981 21.7977 20.4961 21.7637C20.2581 21.4198 20.0562 21.0799 20.0562 21.0799C19.7703 20.662 20.0802 20.3001 20.0802 20.3001C20.524 18.2347 19.3744 17.4969 19.3744 17.4969C17.5149 20.1122 14.0619 17.9408 14.0619 17.9408C16.3573 17.7029 17.8308 17.121 18.3567 15.9434C19.0105 14.4798 20.0402 13.9539 21.6897 13.896C23.1993 13.852 24.9788 13.3901 24.9788 13.3901C26.3164 13.1442 27.2161 11.6926 27.2161 11.6926C26.8702 11.6086 26.7922 11.4267 26.7922 11.4267L27.42 11.0208C28.1178 9.70118 29.1535 9.74717 29.1535 9.74717L30.2832 8.87742C30.7391 8.9494 30.5531 9.60321 30.5531 9.60321V9.61921L30.5571 9.6432C30.7871 9.51724 30.895 9.84314 30.895 9.84314C31.075 10.241 30.4612 10.5469 30.4612 10.5469C30.3732 10.9108 30.2532 11.1128 30.2532 11.1128C29.9573 12.5704 30.5111 12.9043 29.6894 14.6697C29.1435 15.8834 28.5877 16.6112 28.1418 17.0431C27.8879 17.7928 27.472 19.5883 27.414 19.8302C27.3461 20.1122 27.448 21.1419 27.448 21.1419C27.626 21.1199 27.7379 21.1619 27.8079 21.2258C28.5297 21.2338 29.2715 21.2658 30.0753 21.3278C30.859 21.3878 33.4003 21.5437 33.9781 21.9036C34.0921 21.9816 34.1861 22.0676 34.0301 22.1716C33.6742 22.4095 31.5248 22.5695 30.985 22.6234C30.5091 22.6694 30.0313 22.7094 29.5554 22.7414C28.7417 22.7954 27.9199 22.8394 27.1061 22.8874C26.7142 22.9094 26.2084 22.9253 25.8325 23.0133C25.6486 23.0573 25.4846 23.0873 25.3007 23.1233C25.5886 23.0833 25.8805 23.0013 26.1664 22.9753C26.5663 22.9393 26.9802 22.9173 27.3821 22.8934C27.7959 22.8674 28.2118 22.8474 28.6277 22.8254C28.6157 22.8254 28.6017 22.8274 28.5897 22.8274C27.612 22.8974 26.5783 22.9114 25.6166 23.0973C25.4186 23.1353 24.8288 23.2093 25.4186 23.2732C26.3024 23.3712 27.2021 23.3912 28.0898 23.4992C28.5277 23.5512 29.1395 23.6351 29.5534 23.7711C31.3929 24.3809 35.4937 23.6911 30.5531 24.7808C28.5577 25.7885 30.949 24.9208 28.7896 26.0045C28.6697 26.0644 27.9099 26.1184 27.7239 26.1364C27.636 26.1444 27.548 26.1544 27.46 26.1624C27.2561 26.1804 27.0042 26.1924 26.8082 26.2224C26.4343 26.2824 26.5023 26.4103 26.0564 26.4163C25.5046 26.5043 25.1107 26.5543 24.7888 26.5843H36.2935C35.8796 26.0924 33.3103 25.9125 33.2364 25.8905C33.0644 25.8405 33.9961 25.8025 34.0721 25.7985C34.1281 25.7945 34.1821 25.7905 34.2361 25.7885C35.5737 25.4706 37.0332 26.5143 36.8613 25.1207C36.9053 25.0267 36.8453 24.6788 36.8113 24.5689C36.7153 24.2869 36.4454 24.025 36.1795 23.8991C36.1735 23.8971 35.9256 23.8111 36.0415 23.8151C36.1795 23.8191 36.4254 23.9131 36.5474 23.981C36.6854 24.059 36.8113 24.145 36.9213 24.259C37.2112 24.5609 37.2812 25.0387 37.3092 25.4406C37.3312 25.7525 37.4951 26.1264 37.6711 26.3823C37.715 26.4443 37.787 26.5143 37.873 26.5863H47.6062V26.1704H47.4802C47.5482 25.3906 47.5982 24.6009 47.5982 23.7991Z" fill="#202B3E"/>
<path fill-rule="evenodd" clip-rule="evenodd" d="M33.0224 22.4316C32.3905 22.5116 31.7567 22.5696 31.1249 22.6396L31.0929 22.6436C30.867 22.6696 30.6391 22.6896 30.4111 22.7096C30.0732 22.7375 29.7353 22.7576 29.3994 22.7775C29.7273 22.7556 30.0572 22.7376 30.3831 22.7056C31.2569 22.6176 32.1526 22.5336 33.0224 22.4316Z" fill="#202B3E"/>
<path fill-rule="evenodd" clip-rule="evenodd" d="M22.6672 21.496C22.8271 21.46 22.9471 21.466 23.0371 21.496C23.209 21.48 23.381 21.464 23.5529 21.446C24.4027 21.3641 25.1805 21.3021 25.9402 21.2661C25.9042 21.0521 25.8703 20.8962 25.8703 20.8962C25.6983 20.4383 25.8003 20.0864 25.8003 20.0864C25.8883 19.4326 25.6583 17.9151 25.6583 17.9151C24.6526 18.111 23.8109 17.989 23.209 17.8091C22.9051 18.4989 22.3833 19.2687 22.3833 19.2687C21.7175 20.8062 22.6672 21.496 22.6672 21.496Z" fill="#202B3E"/>
<path fill-rule="evenodd" clip-rule="evenodd" d="M21.8399 21.6076C21.5559 21.2138 21.28 20.7539 21.28 20.7539C20.9941 20.336 21.304 19.9741 21.304 19.9741C21.366 19.6902 21.396 19.4303 21.404 19.1943C21.26 19.4283 21.1541 19.5842 21.1541 19.5842C20.6662 20.7159 21.0481 21.3877 21.286 21.6656C21.47 21.6476 21.6559 21.6276 21.8399 21.6076Z" fill="#202B3E"/>
<path d="M60.0702 25.8706H58.9082L58.7145 26.4274H58.0996L59.1503 23.5029H59.833L60.8837 26.4274H60.2639L60.0702 25.8706ZM59.9129 25.4034L59.4892 24.1808L59.0656 25.4034H59.9129Z" fill="#202B3E"/>
<path d="M62.6147 25.9651H63.5782V26.4299H62.0312V23.5103H62.6171V25.9651H62.6147Z" fill="#202B3E"/>
<path d="M65.287 23.5078V26.4275H64.7012V23.5078H65.287Z" fill="#202B3E"/>
<path d="M69.8027 23.5078V26.4275H69.2168V24.527L68.4348 26.4275H67.9918L67.205 24.527V26.4275H66.6191V23.5078H67.2849L68.2145 25.6794L69.1442 23.5078H69.8027Z" fill="#202B3E"/>
<path d="M71.7177 23.9799V24.711H72.7006V25.1758H71.7177V25.9505H72.8265V26.4274H71.1318V23.5029H72.8265V23.9799H71.7177Z" fill="#202B3E"/>
<path d="M76.6078 26.4274H76.0219L74.6952 24.4253V26.4298H74.1094V23.5054H74.6952L76.0219 25.5123V23.5054H76.6078V26.4274Z" fill="#202B3E"/>
<path d="M79.9247 23.5078V23.9799H79.1476V26.4275H78.5618V23.9799H77.7822V23.5078H79.9247Z" fill="#202B3E"/>
<path d="M82.8945 25.8706H81.7324L81.5387 26.4274H80.9238L81.9745 23.5029H82.6572L83.7079 26.4274H83.0881L82.8945 25.8706ZM82.7371 25.4034L82.3134 24.1808L81.8898 25.4034H82.7371Z" fill="#202B3E"/>
<path d="M84.9061 24.1931C85.0368 23.9655 85.2135 23.7888 85.4387 23.6629C85.6638 23.537 85.9132 23.4717 86.194 23.4717C86.5208 23.4717 86.8065 23.5564 87.051 23.7235C87.2955 23.8905 87.4674 24.1229 87.5642 24.4183H86.8912C86.8259 24.2803 86.729 24.1738 86.6104 24.1035C86.4893 24.0333 86.3489 23.9994 86.1892 23.9994C86.0197 23.9994 85.8672 24.0382 85.734 24.1181C85.6009 24.198 85.4992 24.3093 85.4241 24.4546C85.3491 24.5998 85.3128 24.7693 85.3128 24.9654C85.3128 25.1591 85.3491 25.3261 85.4241 25.4738C85.4992 25.6215 85.6009 25.7328 85.734 25.8127C85.8672 25.8926 86.0173 25.9313 86.1892 25.9313C86.3489 25.9313 86.4893 25.895 86.6104 25.8248C86.7314 25.7546 86.8259 25.6481 86.8912 25.5101H87.5642C87.4674 25.8079 87.2955 26.0403 87.051 26.2073C86.8065 26.3744 86.5208 26.4567 86.1916 26.4567C85.9132 26.4567 85.6614 26.3937 85.4362 26.2654C85.2111 26.1395 85.0344 25.9628 84.9036 25.7352C84.7729 25.5101 84.71 25.2535 84.71 24.9654C84.71 24.6773 84.7753 24.4207 84.9061 24.1931Z" fill="#202B3E"/>
<path d="M89.4042 23.5078V26.4275H88.8184V23.5078H89.4042Z" fill="#202B3E"/>
<path d="M91.3384 26.2654C91.1084 26.1371 90.9293 25.9603 90.7937 25.7328C90.6606 25.5052 90.5928 25.2486 90.5928 24.9605C90.5928 24.6748 90.6606 24.4206 90.7937 24.193C90.9269 23.9655 91.1084 23.7887 91.3384 23.6604C91.5684 23.5321 91.8178 23.4668 92.0913 23.4668C92.3673 23.4668 92.6191 23.5321 92.8467 23.6604C93.0742 23.7887 93.2534 23.9655 93.3865 24.193C93.5173 24.4206 93.585 24.6772 93.585 24.9605C93.585 25.2486 93.5197 25.5052 93.3865 25.7328C93.2534 25.9603 93.0742 26.1371 92.8442 26.2654C92.6143 26.3937 92.3649 26.4566 92.0913 26.4566C91.8178 26.4566 91.566 26.3937 91.3384 26.2654ZM92.5537 25.8151C92.6869 25.7352 92.791 25.6214 92.866 25.4737C92.9411 25.326 92.9798 25.1542 92.9798 24.9581C92.9798 24.762 92.9411 24.5925 92.866 24.4448C92.791 24.2971 92.6869 24.1858 92.5537 24.1083C92.4206 24.0308 92.2656 23.9921 92.0889 23.9921C91.9122 23.9921 91.7572 24.0308 91.6217 24.1083C91.4861 24.1858 91.382 24.2996 91.3069 24.4448C91.2319 24.5925 91.1932 24.762 91.1932 24.9581C91.1932 25.1542 91.2319 25.326 91.3069 25.4737C91.382 25.6214 91.4861 25.7352 91.6217 25.8151C91.7572 25.895 91.9122 25.9337 92.0889 25.9337C92.2656 25.9337 92.4206 25.895 92.5537 25.8151ZM92.5465 22.9027L91.5854 23.3409V22.9221L92.5465 22.4233V22.9027Z" fill="#202B3E"/>
<path d="M97.2699 26.4274H96.684L95.3574 24.4229V26.4274H94.7715V23.5029H95.3574L96.684 25.5099V23.5029H97.2699V26.4274Z" fill="#202B3E"/>
<path d="M102.139 25.8706H100.977L100.783 26.4274H100.168L101.219 23.5029H101.901L102.952 26.4274H102.332L102.139 25.8706ZM101.981 25.4034L101.558 24.1808L101.134 25.4034H101.981Z" fill="#202B3E"/>
<path d="M106.593 26.4274H106.007L104.681 24.4229V26.4274H104.095V23.5029H104.681L106.007 25.5099V23.5029H106.593V26.4274Z" fill="#202B3E"/>
<path d="M107.978 24.1931C108.109 23.9655 108.286 23.7888 108.511 23.6629C108.736 23.537 108.985 23.4717 109.266 23.4717C109.593 23.4717 109.879 23.5564 110.123 23.7235C110.368 23.8905 110.54 24.1229 110.637 24.4183H109.963C109.898 24.2803 109.801 24.1738 109.683 24.1035C109.562 24.0333 109.421 23.9994 109.261 23.9994C109.092 23.9994 108.939 24.0382 108.806 24.1181C108.673 24.198 108.571 24.3093 108.496 24.4546C108.421 24.5998 108.385 24.7693 108.385 24.9654C108.385 25.1591 108.421 25.3261 108.496 25.4738C108.571 25.6215 108.673 25.7328 108.806 25.8127C108.939 25.8926 109.09 25.9313 109.261 25.9313C109.421 25.9313 109.562 25.895 109.683 25.8248C109.804 25.7546 109.898 25.6481 109.963 25.5101H110.637C110.54 25.8079 110.368 26.0403 110.123 26.2073C109.879 26.3744 109.593 26.4567 109.264 26.4567C108.985 26.4567 108.734 26.3937 108.509 26.2654C108.283 26.1395 108.107 25.9628 107.976 25.7352C107.845 25.5101 107.782 25.2535 107.782 24.9654C107.782 24.6773 107.848 24.4207 107.978 24.1931Z" fill="#202B3E"/>
<path d="M112.476 23.9799V24.711H113.459V25.1758H112.476V25.9505H113.585V26.4274H111.891V23.5029H113.585V23.9799H112.476Z" fill="#202B3E"/>
<path d="M115.326 26.3526C115.163 26.2824 115.033 26.1831 114.938 26.0524C114.844 25.9216 114.795 25.7667 114.793 25.5876H115.42C115.427 25.7086 115.471 25.803 115.548 25.8732C115.626 25.9434 115.73 25.9773 115.865 25.9773C116.001 25.9773 116.11 25.9434 116.187 25.8781C116.265 25.8127 116.304 25.7255 116.304 25.6214C116.304 25.5343 116.277 25.4641 116.224 25.4084C116.17 25.3527 116.105 25.3091 116.025 25.2777C115.945 25.2462 115.836 25.2099 115.696 25.1711C115.507 25.1155 115.352 25.0598 115.234 25.0065C115.115 24.9508 115.013 24.8685 114.929 24.7596C114.844 24.6482 114.8 24.503 114.8 24.319C114.8 24.1471 114.844 23.9946 114.931 23.8663C115.018 23.738 115.139 23.6387 115.294 23.5709C115.449 23.5031 115.628 23.4692 115.829 23.4692C116.129 23.4692 116.376 23.5419 116.563 23.6895C116.752 23.8372 116.856 24.0406 116.875 24.302H116.231C116.226 24.2028 116.183 24.118 116.103 24.0527C116.023 23.9873 115.919 23.9534 115.788 23.9534C115.674 23.9534 115.582 23.9825 115.514 24.0406C115.447 24.0987 115.413 24.1834 115.413 24.2948C115.413 24.3722 115.439 24.4376 115.49 24.4885C115.541 24.5393 115.606 24.5829 115.684 24.6143C115.761 24.6458 115.868 24.6845 116.008 24.7257C116.197 24.7814 116.352 24.8371 116.473 24.8927C116.592 24.9484 116.696 25.0332 116.783 25.1445C116.87 25.2559 116.914 25.4036 116.914 25.5827C116.914 25.7376 116.873 25.8829 116.793 26.0185C116.71 26.1516 116.594 26.2581 116.437 26.338C116.282 26.4179 116.095 26.4567 115.88 26.4567C115.674 26.4567 115.49 26.4228 115.326 26.3526Z" fill="#202B3E"/>
<path d="M120.155 23.5078V23.9799H119.378V26.4275H118.792V23.9799H118.013V23.5078H120.155Z" fill="#202B3E"/>
<path d="M122.843 26.4275L122.199 25.2896H121.923V26.4275H121.337V23.5078H122.434C122.659 23.5078 122.852 23.549 123.01 23.6264C123.17 23.7063 123.288 23.8128 123.368 23.9484C123.448 24.084 123.487 24.2341 123.487 24.4011C123.487 24.5948 123.431 24.7667 123.32 24.9216C123.208 25.0766 123.041 25.1831 122.821 25.2412L123.521 26.425H122.843V26.4275ZM121.923 24.8514H122.412C122.572 24.8514 122.69 24.8127 122.768 24.7376C122.845 24.6602 122.884 24.5537 122.884 24.4181C122.884 24.2849 122.845 24.1808 122.768 24.1058C122.69 24.0331 122.572 23.9944 122.412 23.9944H121.923V24.8514Z" fill="#202B3E"/>
<path d="M126.561 25.8706H125.399L125.206 26.4274H124.591L125.642 23.5029H126.324L127.375 26.4274H126.755L126.561 25.8706ZM126.404 25.4034L125.98 24.1808L125.557 25.4034H126.404Z" fill="#202B3E"/>
<path d="M129.106 25.9651H130.069V26.4299H128.522V23.5103H129.108V25.9651H129.106Z" fill="#202B3E"/>
<path d="M57.9707 17.5879V16.7971L59.1426 16.4899L58.9663 16.7175V9.481L59.1939 9.81097L57.9707 9.50375V8.71298L60.5023 8.65039H64.3026L64.314 10.8634H63.3753L63.1477 9.60616L63.4379 9.78252H60.2691L60.5251 9.52651V12.7693L60.2691 12.5417H63.3355V13.6738H60.2691L60.5251 13.4178V16.7118L60.3203 16.4842L61.7596 16.7914V17.5822H57.9707V17.5879Z" fill="#202B3E"/>
<path d="M70.1283 17.7241C69.3489 17.7241 68.6662 17.5534 68.0802 17.2178C67.4943 16.8764 67.0391 16.3758 66.7149 15.7045C66.3906 15.0332 66.2256 14.2083 66.2256 13.2241C66.2256 12.4447 66.328 11.762 66.5328 11.1703C66.7376 10.5787 67.0221 10.0894 67.3975 9.69685C67.773 9.30431 68.2111 9.00848 68.7117 8.81505C69.218 8.62162 69.7756 8.5249 70.3843 8.5249C70.976 8.5249 71.5164 8.62162 72.0057 8.80936C72.4949 9.00278 72.9102 9.28154 73.2629 9.65702C73.6157 10.0325 73.8887 10.4933 74.0879 11.0452C74.287 11.597 74.3894 12.2342 74.3894 12.9681C74.3894 13.9693 74.2073 14.8227 73.8489 15.5281C73.4905 16.2393 72.9899 16.7797 72.3527 17.1609C71.7212 17.5364 70.9816 17.7241 70.1283 17.7241ZM70.2477 16.518C70.7029 16.518 71.1182 16.4042 71.488 16.1767C71.8578 15.9491 72.1536 15.5793 72.3755 15.073C72.5973 14.5667 72.7111 13.884 72.7111 13.0363C72.7111 12.2455 72.6087 11.6084 72.3982 11.1191C72.1877 10.6299 71.909 10.2771 71.5505 10.0553C71.1921 9.83338 70.7768 9.7253 70.3046 9.7253C69.8552 9.7253 69.4456 9.83338 69.0758 10.0553C68.706 10.2771 68.4216 10.6412 68.2111 11.1419C68.0006 11.6482 67.8982 12.3252 67.8982 13.1729C67.8982 13.9636 67.9949 14.6008 68.1883 15.0958C68.3817 15.5907 68.6548 15.9491 69.0075 16.1767C69.3716 16.4042 69.7812 16.518 70.2477 16.518Z" fill="#202B3E"/>
<path d="M76.7567 17.5879V16.7971L77.9627 16.4785L77.7466 16.7971V9.481L78.0367 9.82234L76.751 9.50375V8.71298L79.3736 8.65039H80.6992C81.6891 8.65039 82.44 8.8552 82.952 9.27619C83.4584 9.69149 83.7144 10.2888 83.7144 11.0682C83.7144 11.7794 83.4982 12.3654 83.0601 12.8262C82.6221 13.2813 81.9451 13.5601 81.0291 13.6511V13.4747C81.3591 13.4918 81.6322 13.5487 81.8427 13.6511C82.0532 13.7535 82.2295 13.89 82.3718 14.0664C82.514 14.2427 82.6448 14.4475 82.77 14.6979L83.7997 16.7232L83.356 16.4444L84.4881 16.8028V17.5936H82.5766L81.4217 15.1245C81.2681 14.7832 81.1316 14.5272 81.0064 14.3451C80.8812 14.1631 80.7333 14.0379 80.5456 13.964C80.3635 13.89 80.1075 13.8616 79.7776 13.8673H79.038L79.3054 13.6397V16.8085L79.0892 16.4899L80.4375 16.8085V17.5993H76.7567V17.5879ZM79.3167 13.1618L79.0494 12.7693H80.153C80.7959 12.7693 81.2852 12.6384 81.6208 12.371C81.9565 12.1037 82.1215 11.7111 82.1215 11.1934C82.1215 10.744 81.9906 10.3969 81.7232 10.1523C81.4558 9.90768 81.0462 9.78252 80.4944 9.78252H79.0437L79.3111 9.54357V13.1618H79.3167Z" fill="#202B3E"/>
<path d="M92.1229 15.2952H93.0502L93.0388 17.5822H86.4736V16.7914L87.6797 16.4729L87.4635 16.7914V9.4753L87.6797 9.7939L86.4736 9.50375V8.71298L89.0053 8.65039H92.8966V10.8521H91.9579L91.7132 9.55496L92.0205 9.78252H88.7777L89.0337 9.52651V12.7294L88.7777 12.4734H91.9181V13.5657H88.7777L89.0337 13.287V16.6947L88.7777 16.4387H92.1741L91.8668 16.6947L92.1229 15.2952Z" fill="#202B3E"/>
<path d="M98.2546 17.599L95.5352 9.5205L95.905 9.79925L94.7217 9.50912V8.71833L98.3627 8.65576V9.44654L97.0656 9.7765L97.2533 9.39534L99.3241 16.2279H99.0966L101.349 9.48636L101.475 9.79357L100.251 9.5148V8.72403L103.574 8.66144V9.45223L102.402 9.77081L102.772 9.49205L99.9101 17.6047H98.2546V17.599Z" fill="#202B3E"/>
<path d="M110.817 15.2952H111.745L111.733 17.5822H105.168V16.7914L106.374 16.4729L106.158 16.7914V9.4753L106.374 9.7939L105.168 9.50375V8.71298L107.7 8.65039H111.591V10.8521H110.652L110.408 9.55496L110.715 9.78252H107.472L107.728 9.52651V12.7294L107.472 12.4734H110.612V13.5657H107.472L107.728 13.287V16.6947L107.472 16.4387H110.868L110.561 16.6947L110.817 15.2952Z" fill="#202B3E"/>
<path d="M114.241 17.5879V16.7971L115.447 16.4785L115.231 16.7971V9.481L115.521 9.82234L114.235 9.50375V8.71298L116.858 8.65039H118.184C119.173 8.65039 119.924 8.8552 120.436 9.27619C120.943 9.69149 121.199 10.2888 121.199 11.0682C121.199 11.7794 120.983 12.3654 120.545 12.8262C120.106 13.2813 119.429 13.5601 118.514 13.6511V13.4747C118.843 13.4918 119.117 13.5487 119.327 13.6511C119.538 13.7535 119.714 13.89 119.856 14.0664C119.998 14.2427 120.129 14.4475 120.254 14.6979L121.284 16.7232L120.84 16.4444L121.972 16.8028V17.5936H120.061L118.906 15.1245C118.752 14.7832 118.616 14.5272 118.491 14.3451C118.366 14.1631 118.218 14.0379 118.03 13.964C117.848 13.89 117.592 13.8616 117.262 13.8673H116.522L116.79 13.6397V16.8085L116.574 16.4899L117.922 16.8085V17.5993H114.241V17.5879ZM116.795 13.1618L116.528 12.7693H117.637C118.28 12.7693 118.77 12.6384 119.105 12.371C119.441 12.1037 119.606 11.7111 119.606 11.1934C119.606 10.744 119.475 10.3969 119.208 10.1523C118.94 9.90768 118.531 9.78252 117.979 9.78252H116.528L116.795 9.54357V13.1618Z" fill="#202B3E"/>
<path d="M131.554 8.65609C132.157 8.65609 132.703 8.74711 133.198 8.92347C133.693 9.09983 134.119 9.3729 134.478 9.73131C134.836 10.0897 135.109 10.5392 135.303 11.0796C135.496 11.6201 135.593 12.2459 135.593 12.9684C135.593 13.9754 135.411 14.823 135.052 15.5057C134.694 16.1884 134.188 16.7061 133.545 17.0588C132.902 17.4115 132.151 17.5879 131.292 17.5879H127.605V16.7971L128.829 16.4785L128.601 16.7971V9.481L128.84 9.81097L127.605 9.50375V8.71298L130.325 8.65039H131.554V8.65609ZM131.377 16.4558C131.69 16.4558 131.997 16.4046 132.293 16.3079C132.589 16.2111 132.862 16.0405 133.107 15.8015C133.351 15.5626 133.551 15.2213 133.698 14.7775C133.846 14.3338 133.92 13.7705 133.92 13.0708C133.92 12.3938 133.852 11.8363 133.71 11.4096C133.568 10.9829 133.386 10.6529 133.152 10.4197C132.919 10.1864 132.663 10.0215 132.379 9.93043C132.094 9.8394 131.804 9.7882 131.508 9.7882H129.921L130.177 9.53219V16.7061L129.921 16.4501H131.377V16.4558Z" fill="#202B3E"/>
<path d="M141.97 17.7241C141.191 17.7241 140.508 17.5534 139.922 17.2178C139.336 16.8764 138.881 16.3758 138.557 15.7045C138.232 15.0332 138.067 14.2083 138.067 13.2241C138.067 12.4447 138.17 11.762 138.375 11.1703C138.579 10.5787 138.864 10.0894 139.239 9.69685C139.615 9.30431 140.053 9.00848 140.554 8.81505C141.054 8.62162 141.617 8.5249 142.226 8.5249C142.818 8.5249 143.358 8.62162 143.847 8.80936C144.337 9.00278 144.752 9.28154 145.105 9.65702C145.457 10.0325 145.731 10.4933 145.93 11.0452C146.129 11.597 146.231 12.2342 146.231 12.9681C146.231 13.9693 146.049 14.8227 145.691 15.5281C145.332 16.2393 144.832 16.7797 144.195 17.1609C143.557 17.5364 142.818 17.7241 141.97 17.7241ZM142.084 16.518C142.539 16.518 142.954 16.4042 143.324 16.1767C143.694 15.9491 143.99 15.5793 144.212 15.073C144.433 14.5667 144.547 13.884 144.547 13.0363C144.547 12.2455 144.445 11.6084 144.234 11.1191C144.024 10.6299 143.745 10.2771 143.387 10.0553C143.028 9.83338 142.613 9.7253 142.141 9.7253C141.691 9.7253 141.282 9.83338 140.912 10.0553C140.542 10.2771 140.258 10.6412 140.047 11.1419C139.837 11.6482 139.734 12.3252 139.734 13.1729C139.734 13.9636 139.831 14.6008 140.024 15.0958C140.218 15.5907 140.491 15.9491 140.844 16.1767C141.208 16.4042 141.617 16.518 142.084 16.518Z" fill="#202B3E"/>
<path d="M152.83 17.7243C152 17.7243 151.272 17.5536 150.652 17.2066C150.031 16.8595 149.548 16.3532 149.207 15.6819C148.871 15.0049 148.7 14.1743 148.7 13.1844C148.7 12.2002 148.871 11.3639 149.212 10.6641C149.554 9.97007 150.048 9.4353 150.686 9.06551C151.323 8.69572 152.091 8.51367 152.984 8.51367C153.468 8.51367 153.968 8.57056 154.492 8.67865C155.015 8.78674 155.538 8.95172 156.073 9.17359L155.959 11.3639H155.021L154.753 9.8506L154.992 10.0782C154.668 9.97007 154.344 9.87905 154.014 9.81078C153.684 9.74251 153.377 9.70837 153.086 9.70837C152.518 9.70837 152.034 9.83922 151.63 10.1009C151.226 10.3626 150.919 10.7495 150.703 11.2672C150.487 11.7792 150.378 12.4107 150.378 13.1559C150.378 14.2141 150.606 15.039 151.061 15.6307C151.516 16.2223 152.165 16.5125 153.013 16.5125C153.286 16.5125 153.564 16.4784 153.86 16.4158C154.15 16.3532 154.458 16.2679 154.77 16.1541L154.583 16.484V13.9524L154.839 14.2312L153.593 14.015V13.2015L157.001 13.1389V13.9638L155.868 14.2312L156.033 13.9524V17.0188C155.459 17.2464 154.901 17.4227 154.361 17.5422C153.815 17.6674 153.303 17.7243 152.83 17.7243Z" fill="#202B3E"/>
</svg>
