<svg width="157" height="27" viewBox="0 0 157 27" fill="none" xmlns="http://www.w3.org/2000/svg">
<path fill-rule="evenodd" clip-rule="evenodd" d="M26.8922 21.2339C26.8602 20.82 26.7602 20.3741 26.7602 20.3741C26.7282 20.2882 26.7062 20.2062 26.6902 20.1302C26.7802 19.3704 27.1601 18.0228 27.2521 17.8069C27.3101 17.6729 27.55 17.6609 27.8359 17.311C27.466 17.601 27.2261 17.6609 27.2261 17.6609C27.0761 17.9269 26.8262 18.9905 26.6642 19.7063C26.5943 20.0202 26.5403 20.2662 26.5203 20.3521C26.4803 20.5141 26.4983 20.922 26.5203 21.2399C26.6443 21.2399 26.7682 21.2359 26.8922 21.2339Z" fill="white"/>
<path fill-rule="evenodd" clip-rule="evenodd" d="M29.1515 9.93115C28.9435 9.94315 28.7256 10.1411 28.7256 10.1411C28.8356 10.2191 29.0595 10.0011 29.1515 9.93115Z" fill="white"/>
<path fill-rule="evenodd" clip-rule="evenodd" d="M22.3133 17.6269C22.4993 17.7409 23.2091 17.8069 23.2091 17.8069C22.5633 17.6149 22.1934 17.357 22.1934 17.357C22.2054 17.8169 21.7155 18.6906 21.4036 19.1965C21.4016 19.2584 21.3976 19.3224 21.3916 19.3864C21.9754 18.5946 22.3133 17.6269 22.3133 17.6269Z" fill="white"/>
<path fill-rule="evenodd" clip-rule="evenodd" d="M47.5982 23.7991C47.5882 21.0919 47.1463 18.4446 46.2486 15.8894C46.0886 15.4355 46.1106 15.3196 45.6487 15.1176C45.1549 14.9017 44.3851 14.7757 43.8393 14.6857C43.4934 14.6298 43.0975 14.6078 42.7696 14.5398C42.4897 14.4818 42.2257 14.4338 42.7216 14.3418C43.4314 14.2119 44.1452 14.1759 44.827 13.894C45.1069 13.778 45.3488 13.678 45.1829 13.3381C44.645 12.2464 44.0572 11.2407 43.3654 10.239C43.2994 10.1491 43.2394 10.0831 43.1515 10.0171C42.6876 9.69719 41.5939 9.62921 41.0301 9.59322C40.4143 9.55323 39.7605 9.49125 39.1486 9.47325C38.2689 9.44726 37.3891 9.37328 36.5134 9.35528C36.1955 9.34929 33.3063 9.22332 33.3543 9.14135C33.3943 9.07337 35.9616 8.90542 36.2275 8.88742C37.0712 8.82744 37.919 8.76546 38.7627 8.69748C39.5585 8.63349 40.6262 8.52552 41.372 8.2756C41.6519 8.18162 41.6899 8.09765 41.5019 7.87971C40.1004 6.30617 38.4029 4.89258 36.6334 3.75091C35.8736 3.29305 35.1418 3.13509 34.2641 3.14708C33.8622 3.15308 33.4743 3.15108 33.0744 3.15308C32.4486 3.15508 31.8727 3.23106 31.2569 3.25705C30.7971 3.27705 30.2812 3.29305 29.8233 3.29105C29.0396 3.28505 28.2278 3.27505 27.448 3.21307C26.9622 3.17308 26.4723 3.18707 25.9965 3.14309C25.8005 3.12509 25.6286 3.11509 25.4326 3.1031C25.2167 3.0891 25.1667 3.03912 24.9468 3.05112C24.4809 3.07911 24.087 3.1071 23.6151 3.1031C23.3372 3.1011 22.6074 3.07711 22.3535 3.01113C22.1796 2.96514 21.8597 2.93115 22.2575 2.85717C23.0373 2.71121 23.8931 2.7492 24.6908 2.65923C25.6146 2.55726 26.5203 2.50727 27.446 2.44529C27.9559 2.4113 28.4517 2.35732 28.9576 2.32133C29.8013 2.25935 30.7171 2.14738 31.5368 1.93344C32.0647 1.79548 32.4686 1.64152 31.7128 1.34561C29.2135 0.445872 26.4543 0.00799768 23.8011 0C19.3844 0.0339901 15.4495 1.10168 11.6366 3.33903C10.7409 3.87288 9.68919 4.58067 8.89142 5.24848L8.83743 5.29846C8.15363 5.92628 12.2245 5.87229 12.3904 5.87229C13.912 5.8663 15.3755 6.00226 16.8891 6.10423C16.9891 6.11023 18.3307 6.1942 18.0108 6.2102C17.6689 6.22619 17.255 6.2042 16.9091 6.2002C16.8011 6.1982 15.6055 6.16421 15.6375 6.33016C15.6555 6.42814 14.7617 6.46212 14.6757 6.46612C14.1859 6.49211 13.728 6.52011 13.2382 6.56209C11.4087 6.71605 9.51324 6.78003 7.70176 7.05795C7.18991 7.13593 6.74205 7.21591 6.36615 7.60379C5.37444 8.67548 4.4887 9.81515 3.70493 11.0468C3.58096 11.2427 3.32904 11.6226 3.23706 11.8166C3.04312 12.2305 3.95485 12.2944 4.19678 12.3324C4.73663 12.4164 5.34445 12.4504 5.8703 12.5564C6.22619 12.6283 5.92828 12.6783 5.78032 12.7063C5.48241 12.7623 5.19649 12.8003 4.90258 12.8523C4.24677 12.9682 3.7849 13.0642 3.15509 13.3121C2.7612 13.4681 2.27934 13.6101 2.09139 14.0259C0.699799 17.115 0.0119965 20.4181 0 23.8011C0 24.7448 0.0559828 25.6765 0.163951 26.5903C3.86488 26.5903 -1.33961 26.5983 2.36132 26.5923C2.37131 26.5923 2.37931 26.5903 2.38731 26.5903H7.02196C7.2419 26.5183 7.46583 26.4543 7.68377 26.3823C7.98568 26.2824 8.28559 26.2164 8.58751 26.1184C8.91941 26.0104 9.22333 25.9725 9.56523 25.9185C9.88913 25.8685 10.191 25.8125 10.5109 25.7525C10.6149 25.7325 11.2287 25.6406 11.2487 25.5706C11.1728 25.5166 10.7029 25.4866 10.5769 25.4706C10.5069 25.4606 10.367 25.4486 10.495 25.3866C10.6409 25.3167 10.465 25.2927 10.5329 25.2227C10.5389 25.2167 10.9488 24.9967 10.9888 24.9768C11.1048 24.9208 11.2207 24.8648 11.3367 24.8068C11.7166 24.6269 12.1265 24.5209 12.5384 24.4449C12.9143 24.3769 13.3661 24.3229 13.748 24.3389C14.2419 24.3589 14.6797 24.3789 15.1756 24.3549C16.0753 24.3129 16.9991 24.257 17.8968 24.179C18.0768 24.163 18.8085 24.085 18.1447 24.017C17.7988 23.981 17.353 23.973 16.9991 23.973C16.5972 23.973 16.2333 23.973 15.8294 23.949C15.3675 23.9211 14.8677 23.9191 14.4138 23.8451C13.844 23.7531 13.842 23.6171 14.3678 23.4152C15.0256 23.1393 15.6854 22.8714 16.3592 22.6434C16.6332 22.5515 16.9071 22.4695 17.185 22.3915C17.9028 22.1896 18.8685 21.9356 19.6003 21.8617C19.8982 21.8317 20.1981 21.7977 20.4961 21.7637C20.2581 21.4198 20.0562 21.0799 20.0562 21.0799C19.7703 20.662 20.0802 20.3001 20.0802 20.3001C20.524 18.2347 19.3744 17.4969 19.3744 17.4969C17.5149 20.1122 14.0619 17.9408 14.0619 17.9408C16.3573 17.7029 17.8308 17.121 18.3567 15.9434C19.0105 14.4798 20.0402 13.9539 21.6897 13.896C23.1993 13.852 24.9788 13.3901 24.9788 13.3901C26.3164 13.1442 27.2161 11.6926 27.2161 11.6926C26.8702 11.6086 26.7922 11.4267 26.7922 11.4267L27.42 11.0208C28.1178 9.70118 29.1535 9.74717 29.1535 9.74717L30.2832 8.87742C30.7391 8.9494 30.5531 9.60321 30.5531 9.60321V9.61921L30.5571 9.6432C30.7871 9.51724 30.895 9.84314 30.895 9.84314C31.075 10.241 30.4612 10.5469 30.4612 10.5469C30.3732 10.9108 30.2532 11.1128 30.2532 11.1128C29.9573 12.5704 30.5111 12.9043 29.6894 14.6697C29.1435 15.8834 28.5877 16.6112 28.1418 17.0431C27.8879 17.7928 27.472 19.5883 27.414 19.8302C27.3461 20.1122 27.448 21.1419 27.448 21.1419C27.626 21.1199 27.7379 21.1619 27.8079 21.2258C28.5297 21.2338 29.2715 21.2658 30.0753 21.3278C30.859 21.3878 33.4003 21.5437 33.9781 21.9036C34.0921 21.9816 34.1861 22.0676 34.0301 22.1716C33.6742 22.4095 31.5248 22.5695 30.985 22.6234C30.5091 22.6694 30.0313 22.7094 29.5554 22.7414C28.7417 22.7954 27.9199 22.8394 27.1061 22.8874C26.7142 22.9094 26.2084 22.9253 25.8325 23.0133C25.6486 23.0573 25.4846 23.0873 25.3007 23.1233C25.5886 23.0833 25.8805 23.0013 26.1664 22.9753C26.5663 22.9393 26.9802 22.9173 27.3821 22.8934C27.7959 22.8674 28.2118 22.8474 28.6277 22.8254C28.6157 22.8254 28.6017 22.8274 28.5897 22.8274C27.612 22.8974 26.5783 22.9114 25.6166 23.0973C25.4186 23.1353 24.8288 23.2093 25.4186 23.2732C26.3024 23.3712 27.2021 23.3912 28.0898 23.4992C28.5277 23.5512 29.1395 23.6351 29.5534 23.7711C31.3929 24.3809 35.4937 23.6911 30.5531 24.7808C28.5577 25.7885 30.949 24.9208 28.7896 26.0045C28.6697 26.0644 27.9099 26.1184 27.7239 26.1364C27.636 26.1444 27.548 26.1544 27.46 26.1624C27.2561 26.1804 27.0042 26.1924 26.8082 26.2224C26.4343 26.2824 26.5023 26.4103 26.0564 26.4163C25.5046 26.5043 25.1107 26.5543 24.7888 26.5843H36.2935C35.8796 26.0924 33.3103 25.9125 33.2364 25.8905C33.0644 25.8405 33.9961 25.8025 34.0721 25.7985C34.1281 25.7945 34.1821 25.7905 34.2361 25.7885C35.5737 25.4706 37.0332 26.5143 36.8613 25.1207C36.9053 25.0267 36.8453 24.6788 36.8113 24.5689C36.7153 24.2869 36.4454 24.025 36.1795 23.8991C36.1735 23.8971 35.9256 23.8111 36.0415 23.8151C36.1795 23.8191 36.4254 23.9131 36.5474 23.981C36.6854 24.059 36.8113 24.145 36.9213 24.259C37.2112 24.5609 37.2812 25.0387 37.3092 25.4406C37.3312 25.7525 37.4951 26.1264 37.6711 26.3823C37.715 26.4443 37.787 26.5143 37.873 26.5863H47.6062V26.1704H47.4802C47.5482 25.3906 47.5982 24.6009 47.5982 23.7991Z" fill="white"/>
<path fill-rule="evenodd" clip-rule="evenodd" d="M33.0224 22.4315C32.3905 22.5115 31.7567 22.5695 31.1249 22.6395L31.0929 22.6435C30.867 22.6695 30.6391 22.6894 30.4111 22.7094C30.0732 22.7374 29.7353 22.7574 29.3994 22.7774C29.7273 22.7554 30.0572 22.7374 30.3831 22.7054C31.2569 22.6175 32.1526 22.5335 33.0224 22.4315Z" fill="white"/>
<path fill-rule="evenodd" clip-rule="evenodd" d="M22.6672 21.4958C22.8271 21.4598 22.9471 21.4658 23.0371 21.4958C23.209 21.4798 23.381 21.4638 23.5529 21.4458C24.4027 21.3638 25.1805 21.3018 25.9402 21.2658C25.9042 21.0519 25.8703 20.8959 25.8703 20.8959C25.6983 20.4381 25.8003 20.0862 25.8003 20.0862C25.8883 19.4324 25.6583 17.9148 25.6583 17.9148C24.6526 18.1108 23.8109 17.9888 23.209 17.8088C22.9051 18.4986 22.3833 19.2684 22.3833 19.2684C21.7175 20.806 22.6672 21.4958 22.6672 21.4958Z" fill="white"/>
<path fill-rule="evenodd" clip-rule="evenodd" d="M21.8394 21.6078C21.5555 21.2139 21.2795 20.754 21.2795 20.754C20.9936 20.3361 21.3035 19.9742 21.3035 19.9742C21.3655 19.6903 21.3955 19.4304 21.4035 19.1945C21.2595 19.4284 21.1536 19.5843 21.1536 19.5843C20.6657 20.716 21.0476 21.3878 21.2855 21.6657C21.4695 21.6477 21.6554 21.6278 21.8394 21.6078Z" fill="white"/>
<path d="M60.0693 25.8709H58.9072L58.7135 26.4277H58.0986L59.1493 23.5032H59.832L60.8827 26.4277H60.2629L60.0693 25.8709ZM59.9119 25.4037L59.4882 24.1811L59.0646 25.4037H59.9119Z" fill="white"/>
<path d="M62.6137 25.9653H63.5773V26.4301H62.0303V23.5105H62.6161V25.9653H62.6137Z" fill="white"/>
<path d="M65.2865 23.5081V26.4277H64.7007V23.5081H65.2865Z" fill="white"/>
<path d="M69.8017 23.5081V26.4277H69.2158V24.5273L68.4339 26.4277H67.9908L67.204 24.5273V26.4277H66.6182V23.5081H67.2839L68.2136 25.6796L69.1432 23.5081H69.8017Z" fill="white"/>
<path d="M71.7162 23.9802V24.7113H72.6991V25.1761H71.7162V25.9508H72.825V26.4277H71.1304V23.5032H72.825V23.9802H71.7162Z" fill="white"/>
<path d="M76.6068 26.4277H76.0209L74.6943 24.4256V26.4301H74.1084V23.5056H74.6943L76.0209 25.5126V23.5056H76.6068V26.4277Z" fill="white"/>
<path d="M79.9233 23.5081V23.9801H79.1462V26.4277H78.5603V23.9801H77.7808V23.5081H79.9233Z" fill="white"/>
<path d="M82.894 25.8709H81.7319L81.5383 26.4277H80.9233L81.974 23.5032H82.6567L83.7074 26.4277H83.0876L82.894 25.8709ZM82.7366 25.4037L82.313 24.1811L81.8893 25.4037H82.7366Z" fill="white"/>
<path d="M84.9056 24.1932C85.0363 23.9656 85.213 23.7889 85.4382 23.663C85.6633 23.5371 85.9127 23.4717 86.1935 23.4717C86.5203 23.4717 86.806 23.5565 87.0505 23.7235C87.295 23.8906 87.4669 24.123 87.5638 24.4183H86.8907C86.8254 24.2803 86.7285 24.1738 86.6099 24.1036C86.4889 24.0334 86.3484 23.9995 86.1887 23.9995C86.0192 23.9995 85.8667 24.0382 85.7335 24.1181C85.6004 24.198 85.4987 24.3094 85.4236 24.4546C85.3486 24.5999 85.3123 24.7694 85.3123 24.9654C85.3123 25.1591 85.3486 25.3262 85.4236 25.4738C85.4987 25.6215 85.6004 25.7329 85.7335 25.8128C85.8667 25.8927 86.0168 25.9314 86.1887 25.9314C86.3484 25.9314 86.4889 25.8951 86.6099 25.8249C86.7309 25.7547 86.8254 25.6481 86.8907 25.5102H87.5638C87.4669 25.8079 87.295 26.0403 87.0505 26.2074C86.806 26.3744 86.5203 26.4567 86.1911 26.4567C85.9127 26.4567 85.6609 26.3938 85.4358 26.2655C85.2106 26.1396 85.0339 25.9629 84.9031 25.7353C84.7724 25.5102 84.7095 25.2535 84.7095 24.9654C84.7095 24.6774 84.7748 24.4207 84.9056 24.1932Z" fill="white"/>
<path d="M89.4037 23.5081V26.4277H88.8179V23.5081H89.4037Z" fill="white"/>
<path d="M91.3379 26.2655C91.1079 26.1372 90.9288 25.9604 90.7932 25.7329C90.6601 25.5053 90.5923 25.2487 90.5923 24.9606C90.5923 24.6749 90.6601 24.4207 90.7932 24.1932C90.9264 23.9656 91.1079 23.7889 91.3379 23.6606C91.5679 23.5323 91.8173 23.4669 92.0908 23.4669C92.3668 23.4669 92.6186 23.5323 92.8462 23.6606C93.0737 23.7889 93.2529 23.9656 93.386 24.1932C93.5168 24.4207 93.5846 24.6774 93.5846 24.9606C93.5846 25.2487 93.5192 25.5053 93.386 25.7329C93.2529 25.9604 93.0737 26.1372 92.8438 26.2655C92.6138 26.3938 92.3644 26.4567 92.0908 26.4567C91.8173 26.4567 91.5655 26.3938 91.3379 26.2655ZM92.5532 25.8152C92.6864 25.7353 92.7905 25.6215 92.8655 25.4738C92.9406 25.3262 92.9793 25.1543 92.9793 24.9582C92.9793 24.7621 92.9406 24.5926 92.8655 24.4449C92.7905 24.2973 92.6864 24.1859 92.5532 24.1084C92.4201 24.031 92.2651 23.9922 92.0884 23.9922C91.9117 23.9922 91.7568 24.031 91.6212 24.1084C91.4856 24.1859 91.3815 24.2997 91.3065 24.4449C91.2314 24.5926 91.1927 24.7621 91.1927 24.9582C91.1927 25.1543 91.2314 25.3262 91.3065 25.4738C91.3815 25.6215 91.4856 25.7353 91.6212 25.8152C91.7568 25.8951 91.9117 25.9338 92.0884 25.9338C92.2651 25.9338 92.4201 25.8951 92.5532 25.8152ZM92.546 22.9028L91.5849 23.341V22.9222L92.546 22.4235V22.9028Z" fill="white"/>
<path d="M97.2694 26.4277H96.6835L95.3569 24.4232V26.4277H94.771V23.5032H95.3569L96.6835 25.5102V23.5032H97.2694V26.4277Z" fill="white"/>
<path d="M102.138 25.8709H100.976L100.782 26.4277H100.167L101.218 23.5032H101.9L102.951 26.4277H102.331L102.138 25.8709ZM101.98 25.4037L101.557 24.1811L101.133 25.4037H101.98Z" fill="white"/>
<path d="M106.592 26.4277H106.006L104.68 24.4232V26.4277H104.094V23.5032H104.68L106.006 25.5102V23.5032H106.592V26.4277Z" fill="white"/>
<path d="M107.977 24.1932C108.108 23.9656 108.285 23.7889 108.51 23.663C108.735 23.5371 108.984 23.4717 109.265 23.4717C109.592 23.4717 109.878 23.5565 110.122 23.7235C110.367 23.8906 110.539 24.123 110.636 24.4183H109.962C109.897 24.2803 109.8 24.1738 109.682 24.1036C109.561 24.0334 109.42 23.9995 109.26 23.9995C109.091 23.9995 108.938 24.0382 108.805 24.1181C108.672 24.198 108.57 24.3094 108.495 24.4546C108.42 24.5999 108.384 24.7694 108.384 24.9654C108.384 25.1591 108.42 25.3262 108.495 25.4738C108.57 25.6215 108.672 25.7329 108.805 25.8128C108.938 25.8927 109.089 25.9314 109.26 25.9314C109.42 25.9314 109.561 25.8951 109.682 25.8249C109.803 25.7547 109.897 25.6481 109.962 25.5102H110.636C110.539 25.8079 110.367 26.0403 110.122 26.2074C109.878 26.3744 109.592 26.4567 109.263 26.4567C108.984 26.4567 108.733 26.3938 108.508 26.2655C108.282 26.1396 108.106 25.9629 107.975 25.7353C107.844 25.5102 107.781 25.2535 107.781 24.9654C107.781 24.6774 107.847 24.4207 107.977 24.1932Z" fill="white"/>
<path d="M112.475 23.9802V24.7113H113.458V25.1761H112.475V25.9508H113.584V26.4277H111.889V23.5032H113.584V23.9802H112.475Z" fill="white"/>
<path d="M115.325 26.3526C115.162 26.2824 115.032 26.1832 114.937 26.0524C114.843 25.9217 114.794 25.7668 114.792 25.5876H115.419C115.426 25.7087 115.47 25.8031 115.547 25.8733C115.625 25.9435 115.729 25.9774 115.864 25.9774C116 25.9774 116.109 25.9435 116.186 25.8781C116.264 25.8128 116.303 25.7256 116.303 25.6215C116.303 25.5344 116.276 25.4641 116.223 25.4085C116.17 25.3528 116.104 25.3092 116.024 25.2777C115.944 25.2463 115.835 25.2099 115.695 25.1712C115.506 25.1155 115.351 25.0599 115.233 25.0066C115.114 24.9509 115.012 24.8686 114.928 24.7597C114.843 24.6483 114.799 24.503 114.799 24.319C114.799 24.1472 114.843 23.9946 114.93 23.8663C115.017 23.738 115.138 23.6388 115.293 23.571C115.448 23.5032 115.627 23.4693 115.828 23.4693C116.128 23.4693 116.375 23.5419 116.562 23.6896C116.751 23.8373 116.855 24.0406 116.874 24.3021H116.23C116.225 24.2028 116.182 24.1181 116.102 24.0527C116.022 23.9874 115.918 23.9535 115.787 23.9535C115.673 23.9535 115.581 23.9825 115.513 24.0406C115.446 24.0987 115.412 24.1835 115.412 24.2948C115.412 24.3723 115.438 24.4377 115.489 24.4885C115.54 24.5394 115.605 24.5829 115.683 24.6144C115.76 24.6459 115.867 24.6846 116.007 24.7258C116.196 24.7814 116.351 24.8371 116.472 24.8928C116.591 24.9485 116.695 25.0332 116.782 25.1446C116.869 25.256 116.913 25.4036 116.913 25.5828C116.913 25.7377 116.872 25.883 116.792 26.0185C116.709 26.1517 116.593 26.2582 116.436 26.3381C116.281 26.418 116.094 26.4567 115.879 26.4567C115.673 26.4567 115.489 26.4228 115.325 26.3526Z" fill="white"/>
<path d="M120.154 23.5081V23.9801H119.377V26.4277H118.791V23.9801H118.012V23.5081H120.154Z" fill="white"/>
<path d="M122.842 26.4277L122.198 25.2899H121.922V26.4277H121.336V23.5081H122.433C122.658 23.5081 122.851 23.5492 123.009 23.6267C123.169 23.7066 123.287 23.8131 123.367 23.9487C123.447 24.0842 123.486 24.2343 123.486 24.4014C123.486 24.5951 123.43 24.7669 123.319 24.9219C123.207 25.0768 123.04 25.1833 122.82 25.2414L123.52 26.4253H122.842V26.4277ZM121.922 24.8517H122.411C122.571 24.8517 122.689 24.8129 122.767 24.7379C122.844 24.6604 122.883 24.5539 122.883 24.4183C122.883 24.2852 122.844 24.1811 122.767 24.106C122.689 24.0334 122.571 23.9947 122.411 23.9947H121.922V24.8517Z" fill="white"/>
<path d="M126.56 25.8709H125.398L125.204 26.4277H124.589L125.64 23.5032H126.323L127.373 26.4277H126.754L126.56 25.8709ZM126.403 25.4037L125.979 24.1811L125.555 25.4037H126.403Z" fill="white"/>
<path d="M129.104 25.9653H130.068V26.4301H128.521V23.5105H129.107V25.9653H129.104Z" fill="white"/>
<path d="M57.9702 17.5879V16.7971L59.1422 16.4899L58.9658 16.7175V9.481L59.1934 9.81097L57.9702 9.50375V8.71298L60.5018 8.65039H64.3021L64.3135 10.8634H63.3748L63.1473 9.60616L63.4374 9.78252H60.2686L60.5246 9.52651V12.7693L60.2686 12.5417H63.335V13.6738H60.2686L60.5246 13.4178V16.7118L60.3198 16.4842L61.7591 16.7914V17.5822H57.9702V17.5879Z" fill="white"/>
<path d="M70.1278 17.7245C69.3484 17.7245 68.6657 17.5538 68.0797 17.2181C67.4938 16.8768 67.0386 16.3762 66.7144 15.7049C66.3901 15.0335 66.2251 14.2086 66.2251 13.2244C66.2251 12.445 66.3275 11.7623 66.5323 11.1707C66.7371 10.579 67.0216 10.0898 67.397 9.69722C67.7725 9.30468 68.2106 9.00884 68.7112 8.81542C69.2175 8.62199 69.7751 8.52527 70.3838 8.52527C70.9755 8.52527 71.5159 8.62198 72.0052 8.80972C72.4944 9.00315 72.9097 9.28191 73.2625 9.65739C73.6152 10.0329 73.8883 10.4937 74.0874 11.0455C74.2865 11.5974 74.3889 12.2345 74.3889 12.9684C74.3889 13.9697 74.2068 14.8231 73.8484 15.5285C73.49 16.2396 72.9894 16.7801 72.3522 17.1612C71.7207 17.5367 70.9812 17.7245 70.1278 17.7245ZM70.2473 16.5184C70.7024 16.5184 71.1177 16.4046 71.4875 16.1771C71.8573 15.9495 72.1531 15.5797 72.375 15.0734C72.5968 14.5671 72.7106 13.8844 72.7106 13.0367C72.7106 12.2459 72.6082 11.6087 72.3977 11.1195C72.1872 10.6302 71.9085 10.2775 71.5501 10.0556C71.1917 9.83375 70.7763 9.72567 70.3041 9.72567C69.8547 9.72567 69.4451 9.83375 69.0753 10.0556C68.7055 10.2775 68.4211 10.6416 68.2106 11.1422C68.0001 11.6486 67.8977 12.3256 67.8977 13.1732C67.8977 13.964 67.9944 14.6012 68.1878 15.0961C68.3813 15.5911 68.6543 15.9495 69.0071 16.1771C69.3712 16.4046 69.7808 16.5184 70.2473 16.5184Z" fill="white"/>
<path d="M76.7562 17.5879V16.7971L77.9623 16.4785L77.7461 16.7971V9.481L78.0362 9.82234L76.7505 9.50375V8.71298L79.3731 8.65039H80.6987C81.6886 8.65039 82.4395 8.8552 82.9516 9.27619C83.4579 9.69149 83.7139 10.2888 83.7139 11.0682C83.7139 11.7794 83.4977 12.3654 83.0597 12.8262C82.6216 13.2813 81.9446 13.5601 81.0287 13.6511V13.4747C81.3586 13.4918 81.6317 13.5487 81.8422 13.6511C82.0527 13.7535 82.2291 13.89 82.3713 14.0664C82.5135 14.2427 82.6444 14.4475 82.7695 14.6979L83.7992 16.7232L83.3555 16.4444L84.4876 16.8028V17.5936H82.5761L81.4212 15.1245C81.2676 14.7832 81.1311 14.5272 81.0059 14.3451C80.8807 14.1631 80.7328 14.0379 80.5451 13.964C80.363 13.89 80.107 13.8616 79.7771 13.8673H79.0375L79.3049 13.6397V16.8085L79.0887 16.4899L80.437 16.8085V17.5993H76.7562V17.5879ZM79.3163 13.1618L79.0489 12.7693H80.1525C80.7954 12.7693 81.2847 12.6384 81.6203 12.371C81.956 12.1037 82.121 11.7111 82.121 11.1934C82.121 10.744 81.9901 10.3969 81.7227 10.1523C81.4553 9.90768 81.0457 9.78252 80.4939 9.78252H79.0432L79.3106 9.54357V13.1618H79.3163Z" fill="white"/>
<path d="M92.1219 15.2952H93.0492L93.0378 17.5822H86.4727V16.7914L87.6787 16.4729L87.4625 16.7914V9.4753L87.6787 9.7939L86.4727 9.50375V8.71298L89.0043 8.65039H92.8956V10.8521H91.9569L91.7123 9.55496L92.0195 9.78252H88.7767L89.0327 9.52651V12.7294L88.7767 12.4734H91.9171V13.5657H88.7767L89.0327 13.287V16.6947L88.7767 16.4387H92.1731L91.8659 16.6947L92.1219 15.2952Z" fill="white"/>
<path d="M98.2546 17.5993L95.5352 9.5208L95.905 9.79956L94.7217 9.50943V8.71864L98.3627 8.65607V9.44684L97.0656 9.77681L97.2533 9.39564L99.3241 16.2282H99.0966L101.349 9.48666L101.475 9.79388L100.251 9.51511V8.72433L103.574 8.66175V9.45254L102.402 9.77111L102.772 9.49236L99.9101 17.605H98.2546V17.5993Z" fill="white"/>
<path d="M110.816 15.2952H111.744L111.732 17.5822H105.167V16.7914L106.373 16.4729L106.157 16.7914V9.4753L106.373 9.7939L105.167 9.50375V8.71298L107.699 8.65039H111.59V10.8521H110.651L110.407 9.55496L110.714 9.78252H107.471L107.727 9.52651V12.7294L107.471 12.4734H110.611V13.5657H107.471L107.727 13.287V16.6947L107.471 16.4387H110.867L110.56 16.6947L110.816 15.2952Z" fill="white"/>
<path d="M114.241 17.5879V16.7971L115.447 16.4785L115.231 16.7971V9.481L115.521 9.82234L114.235 9.50375V8.71298L116.858 8.65039H118.184C119.173 8.65039 119.924 8.8552 120.436 9.27619C120.943 9.69149 121.199 10.2888 121.199 11.0682C121.199 11.7794 120.983 12.3654 120.545 12.8262C120.106 13.2813 119.429 13.5601 118.514 13.6511V13.4747C118.843 13.4918 119.117 13.5487 119.327 13.6511C119.538 13.7535 119.714 13.89 119.856 14.0664C119.998 14.2427 120.129 14.4475 120.254 14.6979L121.284 16.7232L120.84 16.4444L121.972 16.8028V17.5936H120.061L118.906 15.1245C118.752 14.7832 118.616 14.5272 118.491 14.3451C118.366 14.1631 118.218 14.0379 118.03 13.964C117.848 13.89 117.592 13.8616 117.262 13.8673H116.522L116.79 13.6397V16.8085L116.574 16.4899L117.922 16.8085V17.5993H114.241V17.5879ZM116.795 13.1618L116.528 12.7693H117.637C118.28 12.7693 118.77 12.6384 119.105 12.371C119.441 12.1037 119.606 11.7111 119.606 11.1934C119.606 10.744 119.475 10.3969 119.208 10.1523C118.94 9.90768 118.531 9.78252 117.979 9.78252H116.528L116.795 9.54357V13.1618Z" fill="white"/>
<path d="M131.553 8.65609C132.156 8.65609 132.702 8.74711 133.197 8.92347C133.692 9.09983 134.118 9.3729 134.477 9.73131C134.835 10.0897 135.108 10.5392 135.302 11.0796C135.495 11.6201 135.592 12.2459 135.592 12.9684C135.592 13.9754 135.41 14.823 135.051 15.5057C134.693 16.1884 134.187 16.7061 133.544 17.0588C132.901 17.4115 132.15 17.5879 131.291 17.5879H127.604V16.7971L128.828 16.4785L128.6 16.7971V9.481L128.839 9.81097L127.604 9.50375V8.71298L130.324 8.65039H131.553V8.65609ZM131.376 16.4558C131.689 16.4558 131.996 16.4046 132.292 16.3079C132.588 16.2111 132.861 16.0405 133.106 15.8015C133.35 15.5626 133.55 15.2213 133.697 14.7775C133.845 14.3338 133.919 13.7705 133.919 13.0708C133.919 12.3938 133.851 11.8363 133.709 11.4096C133.567 10.9829 133.385 10.6529 133.151 10.4197C132.918 10.1864 132.662 10.0215 132.378 9.93043C132.093 9.8394 131.803 9.7882 131.507 9.7882H129.92L130.176 9.53219V16.7061L129.92 16.4501H131.376V16.4558Z" fill="white"/>
<path d="M141.97 17.7245C141.19 17.7245 140.508 17.5538 139.922 17.2181C139.336 16.8768 138.88 16.3762 138.556 15.7049C138.232 15.0335 138.067 14.2086 138.067 13.2244C138.067 12.445 138.169 11.7623 138.374 11.1707C138.579 10.579 138.863 10.0898 139.239 9.69722C139.614 9.30468 140.052 9.00884 140.553 8.81542C141.054 8.62199 141.617 8.52527 142.226 8.52527C142.817 8.52527 143.358 8.62198 143.847 8.80972C144.336 9.00315 144.752 9.28191 145.104 9.65739C145.457 10.0329 145.73 10.4937 145.929 11.0455C146.128 11.5974 146.231 12.2345 146.231 12.9684C146.231 13.9697 146.049 14.8231 145.69 15.5285C145.332 16.2396 144.831 16.7801 144.194 17.1612C143.557 17.5367 142.817 17.7245 141.97 17.7245ZM142.083 16.5184C142.538 16.5184 142.954 16.4046 143.324 16.1771C143.693 15.9495 143.989 15.5797 144.211 15.0734C144.433 14.5671 144.547 13.8844 144.547 13.0367C144.547 12.2459 144.444 11.6087 144.234 11.1195C144.023 10.6302 143.745 10.2775 143.386 10.0556C143.028 9.83375 142.612 9.72567 142.14 9.72567C141.691 9.72567 141.281 9.83375 140.911 10.0556C140.542 10.2775 140.257 10.6416 140.047 11.1422C139.836 11.6486 139.734 12.3256 139.734 13.1732C139.734 13.964 139.83 14.6012 140.024 15.0961C140.217 15.5911 140.49 15.9495 140.843 16.1771C141.207 16.4046 141.617 16.5184 142.083 16.5184Z" fill="white"/>
<path d="M152.83 17.7244C151.999 17.7244 151.271 17.5538 150.651 17.2067C150.031 16.8597 149.547 16.3534 149.206 15.6821C148.87 15.0051 148.7 14.1745 148.7 13.1846C148.7 12.2004 148.87 11.3641 149.212 10.6643C149.553 9.97026 150.048 9.43548 150.685 9.06569C151.322 8.6959 152.09 8.51385 152.984 8.51385C153.467 8.51385 153.968 8.57074 154.491 8.67883C155.015 8.78692 155.538 8.9519 156.073 9.17378L155.959 11.3641H155.02L154.753 9.85078L154.992 10.0783C154.668 9.97025 154.343 9.87923 154.013 9.81096C153.683 9.74269 153.376 9.70856 153.086 9.70856C152.517 9.70856 152.033 9.8394 151.63 10.1011C151.226 10.3628 150.918 10.7496 150.702 11.2674C150.486 11.7794 150.378 12.4109 150.378 13.1561C150.378 14.2143 150.606 15.0392 151.061 15.6309C151.516 16.2225 152.164 16.5127 153.012 16.5127C153.285 16.5127 153.564 16.4785 153.86 16.416C154.15 16.3534 154.457 16.268 154.77 16.1543L154.582 16.4842V13.9526L154.838 14.2314L153.592 14.0152V13.2016L157 13.1391V13.964L155.868 14.2314L156.033 13.9526V17.019C155.458 17.2465 154.901 17.4229 154.36 17.5424C153.814 17.6675 153.302 17.7244 152.83 17.7244Z" fill="white"/>
</svg>
