<svg width="24" height="15" viewBox="0 0 24 15" fill="none" xmlns="http://www.w3.org/2000/svg">
<path d="M23.6675 8.84033C23.6675 8.46366 23.6744 8.09208 23.6744 7.71541C23.6744 7.36928 23.6744 7.02316 23.6744 6.68212V6.58032C23.6744 5.65901 23.6675 4.71224 23.6812 3.77566C23.6881 3.30737 23.4619 2.91035 23.0027 2.56932C22.2898 2.03485 21.3714 1.74979 20.6585 1.55636C18.2047 0.899736 15.7099 0.726677 13.5919 0.645235C13.0162 0.624875 12.4267 0.609619 11.8373 0.609619C10.6241 0.609619 9.38345 0.65542 8.1497 0.752133C6.28537 0.894656 4.78432 1.11354 3.4272 1.44439C2.67324 1.62764 1.69996 1.9076 0.89802 2.41152C0.281146 2.80346 -0.00673466 3.25646 0.000119493 3.84692C0.0206819 6.57013 0.0138345 9.30355 0.00698034 11.6552C0.00698034 12.1286 0.226306 12.5205 0.685535 12.8615C1.40522 13.396 2.31684 13.681 3.02967 13.8745C5.48345 14.5311 7.97837 14.7042 10.0963 14.7856C10.6789 14.806 11.2615 14.8212 11.8509 14.8212C13.0641 14.8212 14.2979 14.7754 15.5385 14.6787C17.4645 14.5311 18.9998 14.302 20.3775 13.9559C21.0698 13.7828 21.9677 13.5182 22.7285 13.055C23.4002 12.6478 23.7018 12.1744 23.6881 11.5635C23.6538 10.6524 23.6607 9.7311 23.6675 8.84033ZM0.692395 6.70757C0.692395 6.15275 0.692395 5.60301 0.692395 5.04819V4.72752L0.802069 4.78859C2.56359 5.77607 4.66096 6.10185 6.49101 6.32582C9.1093 6.65158 11.803 6.72284 14.7229 6.54978C16.4844 6.44288 18.7942 6.23929 21.015 5.57249C21.7483 5.35361 22.3378 5.09909 22.8656 4.76823L22.9752 4.69698V5.0431C22.9752 5.52666 22.9752 6.01024 22.9752 6.48871V6.69738C22.9752 8.31095 22.9753 9.98053 22.9821 11.6297C22.9821 12.0064 22.8039 12.2965 22.4201 12.551C21.7483 12.9888 20.9327 13.2382 20.2267 13.4214C18.7736 13.8032 17.1698 14.0475 15.1615 14.1951C14.0717 14.2766 12.9613 14.3173 11.8509 14.3173C11.1313 14.3173 10.4116 14.302 9.69874 14.2664C7.807 14.1748 5.31895 13.9814 2.92686 13.2738C2.19346 13.055 1.67253 12.831 1.23387 12.546C0.850034 12.2965 0.671836 12.0013 0.67869 11.6246C0.699253 9.99071 0.692395 8.32114 0.692395 6.70757ZM22.7285 4.11161C22.4063 4.43229 21.9608 4.63589 21.5701 4.79368C20.3021 5.29761 18.9176 5.54702 17.8552 5.70991C16.0594 5.98477 14.1197 6.11713 11.7413 6.12731C8.72547 6.10186 6.31966 5.87279 4.1606 5.3994C3.23529 5.1958 2.262 4.94129 1.41208 4.45773C0.932291 4.18286 0.685535 3.89784 0.685535 3.61279C0.685535 3.32774 0.92543 3.04269 1.40522 2.76783C2.2757 2.2639 3.29699 2.00431 4.27028 1.8007C6.72406 1.28151 9.38347 1.06263 12.6323 1.11354C15.47 1.15935 17.7798 1.41384 19.8909 1.91777C20.8368 2.14173 21.5222 2.38098 22.1185 2.69657C22.3652 2.82891 22.5572 2.96124 22.7079 3.10885C23.0644 3.4448 23.0712 3.77566 22.7285 4.11161Z" fill="#202B3E"/>
<path d="M8.94545 11.6247C8.66442 11.8283 8.52736 12.0828 8.52051 12.3933C8.52051 12.9074 8.97974 13.3401 9.65144 13.4622C9.77482 13.4877 9.89819 13.4927 10.0216 13.4927C10.33 13.4927 10.6316 13.4317 10.9195 13.3655C11.5089 13.2281 12.0778 13.223 12.6741 13.34C12.9483 13.396 13.1744 13.4317 13.3938 13.4571C14.0929 13.5488 14.7098 13.3248 15.0114 12.8819C15.313 12.434 15.1827 11.9352 14.6755 11.5687C14.1889 11.2226 13.7091 10.8815 13.2224 10.5507C12.4205 10.0009 11.2964 9.99586 10.4876 10.5354C9.94615 10.9019 9.43209 11.2735 8.94545 11.6247ZM11.7831 10.6576C11.7831 10.6576 11.7899 10.6576 11.7968 10.6576C12.1738 10.6525 12.4753 10.739 12.7221 10.907C13.2636 11.2836 13.7571 11.6298 14.23 11.9657C14.511 12.1693 14.5796 12.4442 14.3945 12.6834C14.2094 12.9278 13.8873 13.0194 13.4829 12.9379C13.0922 12.8616 12.681 12.8107 12.2903 12.7649L12.2628 12.7598C11.7214 12.6936 11.1936 12.7802 10.7001 12.8769C10.4876 12.9176 10.2957 12.9481 10.1175 12.9685C10.0832 12.9736 10.0421 12.9736 10.001 12.9736C9.71996 12.9736 9.45951 12.8565 9.32242 12.6631C9.15107 12.4289 9.19219 12.1693 9.41837 12.0014C9.91873 11.6349 10.4671 11.2531 11.0771 10.8408C11.2484 10.7237 11.502 10.6576 11.7831 10.6576Z" fill="#202B3E"/>
<path d="M13.1809 9.93987C13.1878 9.93987 13.1946 9.93987 13.2015 9.93987C13.5716 9.93478 13.9075 9.78207 14.1268 9.52756C14.3187 9.29851 14.4078 9.03893 14.4215 8.70298C14.4146 8.35685 14.3187 8.09216 14.1131 7.86311C13.8937 7.61369 13.5579 7.46606 13.1946 7.46606H13.1809C12.8245 7.46606 12.4886 7.6035 12.2624 7.84782C11.8443 8.30084 11.8375 9.1 12.2624 9.55811C12.4818 9.79735 12.8177 9.93987 13.1809 9.93987ZM12.8245 9.2527C12.6943 9.10509 12.6326 8.92694 12.6394 8.69788C12.6326 8.47392 12.6943 8.29068 12.8245 8.14307C12.9205 8.03617 13.0438 7.97507 13.1741 7.96998H13.1809C13.3043 7.96998 13.4276 8.02598 13.5305 8.13288C13.7978 8.40774 13.7978 8.98803 13.5305 9.26289C13.4276 9.36469 13.3043 9.42067 13.1672 9.42067C13.0438 9.42576 12.9205 9.36468 12.8245 9.2527Z" fill="#202B3E"/>
<path d="M10.508 9.93987C10.5148 9.93987 10.5148 9.93987 10.5217 9.93987C10.8712 9.93478 11.1934 9.79735 11.4058 9.5683C11.6252 9.32906 11.728 9.05418 11.728 8.71314C11.728 8.30593 11.5978 8.00054 11.3167 7.75621C11.1043 7.56788 10.8095 7.46606 10.5011 7.46606H10.4805C10.1652 7.47115 9.85682 7.58824 9.6512 7.78676C9.16455 8.24996 9.14399 9.11018 9.61693 9.58865C9.83626 9.80753 10.1584 9.93987 10.508 9.93987ZM10.131 8.15323C10.2338 8.03616 10.364 7.97508 10.5011 7.97508C10.5971 7.97508 10.7341 8.00561 10.8575 8.14814C10.9877 8.29575 11.0494 8.47392 11.0426 8.70298C11.0494 8.91676 10.9946 9.09492 10.8712 9.23744C10.7684 9.35451 10.6382 9.42067 10.5011 9.42576C10.364 9.42576 10.2338 9.35959 10.131 9.24761C9.88424 8.96765 9.88424 8.4281 10.131 8.15323Z" fill="#202B3E"/>
<path d="M14.3663 10.6422C14.4692 10.9222 14.7159 11.1004 15.0792 11.1614C15.1477 11.1716 15.2094 11.1767 15.2711 11.1767C15.5384 11.1767 15.7783 11.08 15.9976 10.8815C16.2923 10.6168 16.4569 10.2859 16.4843 9.88381C16.4774 9.70566 16.45 9.56314 16.3815 9.4308C16.2581 9.18138 15.9908 9.00322 15.6824 8.9625C15.3808 8.91668 15.0655 9.00322 14.8393 9.19155C14.3252 9.60385 14.1676 10.0925 14.3663 10.6422ZM15.3602 9.51224C15.415 9.4817 15.4698 9.46644 15.5178 9.46644C15.5315 9.46644 15.5452 9.46642 15.5521 9.47151C15.6138 9.48169 15.6618 9.51223 15.7029 9.57331C15.7714 9.67002 15.8057 9.78201 15.7989 9.90926V9.91436C15.7783 10.118 15.7166 10.3776 15.4356 10.5863C15.3602 10.6423 15.2848 10.6677 15.2163 10.6575C15.1477 10.6473 15.086 10.6066 15.0312 10.5303C14.8667 10.2809 15.0586 9.68531 15.3602 9.51224Z" fill="#202B3E"/>
<path d="M8.43787 11.1716C8.49271 11.1716 8.54753 11.1665 8.60237 11.1614C8.9108 11.1156 9.16441 10.9476 9.29464 10.6982C9.5551 10.2096 9.27407 9.43588 8.73259 9.10502C8.52696 8.98285 8.28024 8.92686 8.04035 8.95231C7.80045 8.97776 7.58109 9.08465 7.4303 9.24753C7.25209 9.44096 7.21097 9.66493 7.19727 9.86344C7.22468 10.3165 7.40288 10.6626 7.73874 10.9273C7.93751 11.0851 8.18427 11.1716 8.43787 11.1716ZM8.68463 10.4234C8.66407 10.4895 8.62294 10.6066 8.47901 10.6422C8.45844 10.6473 8.43103 10.6524 8.41046 10.6524C8.3008 10.6524 8.22541 10.5812 8.17743 10.5353L8.15685 10.515C7.97178 10.347 7.8827 10.1434 7.86899 9.87363V9.86854C7.87585 9.84818 7.87583 9.82272 7.88268 9.79218C7.89639 9.67002 7.91012 9.50204 8.14316 9.47659C8.16372 9.47659 8.17741 9.47149 8.19112 9.47149C8.38989 9.47149 8.47901 9.63438 8.54755 9.75654L8.5681 9.78709C8.67091 9.95506 8.76688 10.179 8.68463 10.4234L8.7189 10.4284L8.68463 10.4234Z" fill="#202B3E"/>
<path d="M21.1317 2.88975C20.5079 2.59961 19.7951 2.37563 18.8218 2.16694C16.8684 1.74446 14.7093 1.54087 12.0293 1.52051C10.542 1.5256 9.36992 1.57141 8.22528 1.67321C6.36095 1.84119 4.9627 2.08552 3.70154 2.46728C3.12579 2.64034 2.4678 2.8592 1.96059 3.24096C1.58361 3.52601 1.58362 3.71943 1.96745 4.00448C2.35814 4.29461 2.83105 4.47786 3.24916 4.62039C4.4829 5.04287 5.86745 5.32281 7.6084 5.50097C9.06148 5.64858 10.5009 5.72495 11.9128 5.72495C13.8526 5.72495 15.7443 5.58242 17.5743 5.30246C19.0206 5.07849 20.1309 4.78327 21.07 4.36079C21.4195 4.20808 21.6526 4.06048 21.8308 3.88741C22.0432 3.68381 22.0432 3.5362 21.8308 3.3275C21.632 3.13408 21.3647 2.99664 21.1317 2.88975ZM12.4543 5.1854C12.3309 5.1854 12.2144 5.1854 12.0979 5.1854C9.51386 5.1854 7.53303 5.04286 5.67555 4.71709C4.70226 4.54403 3.67414 4.32517 2.79681 3.86706L2.72827 3.83142C2.52264 3.72453 2.43352 3.67872 2.43352 3.60746C2.43352 3.5362 2.52947 3.49037 2.7351 3.39366L2.8105 3.35805C3.85233 2.8643 5.00382 2.63014 6.09363 2.45199C8.58169 2.03969 11.2822 1.92262 14.3461 2.09568C16.4229 2.21275 18.1021 2.46726 19.6306 2.90501C20.22 3.07298 20.6793 3.24606 21.0768 3.45475C21.1454 3.49038 21.2276 3.54129 21.2276 3.60746C21.2276 3.67363 21.1522 3.72452 21.0768 3.77033C20.2406 4.24371 19.2673 4.47786 18.4311 4.64074C16.6833 4.98178 14.7299 5.15994 12.4543 5.1854V5.21085V5.1854Z" fill="#202B3E"/>
</svg>
