<svg width="78" height="78" viewBox="0 0 78 78" fill="none" xmlns="http://www.w3.org/2000/svg">
<path d="M77.0811 20.534C76.5863 20.534 76.1622 20.1452 76.1622 19.6504V13.0414C76.1622 10.4261 74.0417 8.3054 71.4264 8.3054H58.2084C57.7137 8.3054 57.2896 7.91664 57.2896 7.42185C57.2896 6.92706 57.6783 6.5383 58.2084 6.5383H71.4264C75.0313 6.5383 77.9647 9.47169 77.9647 13.0766V19.6856C78 20.1451 77.6113 20.534 77.0811 20.534Z" fill="#202B3E"/>
<path d="M71.4617 77.0458H6.53829C2.93339 77.0458 0 74.1124 0 70.5075V13.0414C0 9.43648 2.93339 6.50308 6.53829 6.50308H25.7644C26.2592 6.50308 26.6833 6.89185 26.6833 7.38663C26.6833 7.88142 26.2945 8.27019 25.7644 8.27019H6.53829C3.92297 8.27019 1.80245 10.3909 1.80245 13.0062V70.4723C1.80245 73.0876 3.92297 75.2083 6.53829 75.2083H71.4617C74.077 75.2083 76.1976 73.0876 76.1976 70.4723V25.0577C76.1976 24.5629 76.5863 24.1741 77.1164 24.1741C77.6112 24.1741 78 24.5629 78 25.0577V70.4723C78 74.1125 75.0666 77.0458 71.4617 77.0458Z" fill="#202B3E"/>
<path d="M50.0088 10.6026H27.9907C27.1071 10.6026 26.2943 10.2493 25.6934 9.61312C25.0926 8.97696 24.8099 8.12868 24.8452 7.24513L25.128 2.93367C25.234 1.30793 26.6123 0 28.2734 0H49.6907C51.3518 0 52.7301 1.27259 52.8362 2.93367L53.1189 7.24513C53.1896 8.12868 52.8715 8.97696 52.2707 9.61312C51.7052 10.2139 50.857 10.6026 50.0088 10.6026ZM28.3088 1.80265C27.6019 1.80265 27.0011 2.36813 26.9658 3.03963L26.683 7.35143C26.6477 7.74019 26.789 8.09341 27.0364 8.37615C27.2838 8.65888 27.6373 8.80032 28.026 8.80032H50.0441C50.4329 8.80032 50.751 8.65888 51.0337 8.37615C51.2811 8.09341 51.4225 7.74019 51.3871 7.35143L51.1044 3.03963C51.0691 2.33279 50.4682 1.80265 49.7614 1.80265H28.3088Z" fill="#202B3E"/>
<path d="M17.0352 32.5503C16.7878 32.5503 16.5757 32.4795 16.399 32.3028L12.1933 28.097C11.8399 27.7436 11.8399 27.1782 12.1933 26.8248C12.5467 26.4714 13.1122 26.4714 13.4656 26.8248L17.0352 30.3942L24.669 22.7605C25.0225 22.407 25.5879 22.407 25.9414 22.7605C26.2948 23.1139 26.2948 23.6792 25.9414 24.0326L17.6713 32.3028C17.4946 32.4442 17.2826 32.5503 17.0352 32.5503Z" fill="#202B3E"/>
<path d="M65.1357 30.359H35.6958C35.201 30.359 34.7769 29.9703 34.7769 29.4755C34.7769 28.9807 35.1656 28.5919 35.6958 28.5919H65.1357C65.6305 28.5919 66.0546 28.9807 66.0546 29.4755C66.0546 29.9703 65.6305 30.359 65.1357 30.359Z" fill="#202B3E"/>
<path d="M65.1357 45.6621H35.6958C35.201 45.6621 34.7769 45.2733 34.7769 44.7785C34.7769 44.2837 35.1656 43.895 35.6958 43.895H65.1357C65.6305 43.895 66.0546 44.2837 66.0546 44.7785C66.0546 45.238 65.6305 45.6621 65.1357 45.6621Z" fill="#202B3E"/>
<path d="M17.0352 63.1212C16.7878 63.1212 16.5757 63.0505 16.399 62.8737L12.1933 58.6679C11.8399 58.3145 11.8399 57.7491 12.1933 57.3957C12.5467 57.0423 13.1122 57.0423 13.4656 57.3957L17.0352 60.9651L24.669 53.3314C25.0225 52.978 25.5879 52.978 25.9414 53.3314C26.2948 53.6848 26.2948 54.2501 25.9414 54.6036L17.6713 62.8737C17.4946 63.0505 17.2826 63.1212 17.0352 63.1212Z" fill="#202B3E"/>
<path d="M65.1357 60.9652H35.6958C35.201 60.9652 34.7769 60.5764 34.7769 60.0816C34.7769 59.5868 35.1656 59.1628 35.6958 59.1628H65.1357C65.6305 59.1628 66.0546 59.5515 66.0546 60.0816C66.0546 60.541 65.6305 60.9652 65.1357 60.9652Z" fill="#202B3E"/>
<path d="M16.0352 49.0549C15.7878 49.0549 15.5757 48.9841 15.399 48.8074L11.1933 44.6016C10.8399 44.2482 10.8399 43.6828 11.1933 43.3294C11.5467 42.976 12.1122 42.976 12.4656 43.3294L16.0352 46.8988L23.669 39.2651C24.0225 38.9116 24.5879 38.9116 24.9414 39.2651C25.2948 39.6185 25.2948 40.1838 24.9414 40.5372L16.6713 48.8074C16.4946 48.9841 16.2826 49.0549 16.0352 49.0549Z" fill="#202B3E"/>
</svg>
