<svg width="100" height="70" viewBox="0 0 100 70" fill="none" xmlns="http://www.w3.org/2000/svg">
<path d="M25.3563 60.077H23.2755C20.0385 60.077 17.418 57.4567 17.418 54.2197V47.5915C17.418 47.052 17.8419 46.6281 18.4199 46.6281C18.998 46.6281 19.3833 47.052 19.3833 47.5915V54.2197C19.3833 56.3392 21.1175 58.1117 23.2755 58.1117H25.3563C25.8958 58.1117 26.3197 58.5356 26.3197 59.0751C26.3197 59.6531 25.8958 60.077 25.3563 60.077Z" fill="#202B3E"/>
<path d="M64.6239 60.077H57.6491C57.1096 60.077 56.6858 59.6531 56.6858 59.0751C56.6858 58.5356 57.1096 58.1117 57.6491 58.1117H63.6222V5.85749C63.6222 3.73803 61.888 1.96536 59.73 1.96536H23.2367C21.1172 1.96536 19.3446 3.6995 19.3446 5.85749V12.4855C19.3446 13.025 18.9207 13.4875 18.3812 13.4875C17.8417 13.4875 17.3794 13.0635 17.3794 12.4855V5.85749C17.3794 2.6205 19.9997 0 23.2367 0H59.73C62.967 0 65.5873 2.6205 65.5873 5.85749V59.1136C65.5873 59.6531 65.1634 60.077 64.6239 60.077Z" fill="#202B3E"/>
<path d="M64.624 60.077C64.0845 60.077 63.6606 59.6531 63.6606 59.0751V17.1098C63.6606 16.5703 64.0845 16.1078 64.624 16.1078H83.8149C87.129 16.1078 89.8649 19.0751 89.8649 22.6975V30.2505C89.8649 31.5222 90.2889 32.6783 91.0981 33.5646C91.8688 34.4124 92.8707 34.8748 93.9497 34.8748C97.2638 34.8748 99.9999 37.842 99.9999 41.4644V53.449C99.9999 54.9519 99.5374 56.4547 98.6511 57.6108C98.3428 58.0347 97.7262 58.1503 97.2638 57.8035C96.8399 57.4952 96.7243 56.8786 97.0711 56.4161C97.6877 55.6069 98.0345 54.528 98.0345 53.4104V41.4258C98.0345 38.8825 96.2233 36.8015 93.9497 36.8015C92.3312 36.8015 90.7899 36.1079 89.6338 34.8362C88.5163 33.603 87.8997 31.946 87.8997 30.2119V22.6589C87.8997 20.1155 86.0885 18.0346 83.8149 18.0346H65.626V59.0367C65.5875 59.6532 65.1635 60.077 64.624 60.077Z" fill="#202B3E"/>
<path d="M79.4987 36.8401H74.2964C73.7569 36.8401 73.333 36.4162 73.333 35.8767V26.2042C73.333 25.6647 73.7569 25.2408 74.2964 25.2408H88.863C89.4025 25.2408 89.8264 25.6647 89.8264 26.2042C89.8264 26.7437 89.4025 27.2062 88.863 27.2062H75.2598V34.9133H79.4987C80.0382 34.9133 80.4621 35.3373 80.4621 35.9153C80.5006 36.4163 80.0382 36.8401 79.4987 36.8401Z" fill="#202B3E"/>
<path d="M41.5026 69.6724C35.6452 69.6724 30.9053 64.9325 30.9053 59.0751C30.9053 53.2177 35.6452 48.4778 41.5026 48.4778C47.36 48.4778 52.0999 53.2177 52.0999 59.0751C52.0999 64.9325 47.36 69.6724 41.5026 69.6724ZM41.5026 50.4817C36.7627 50.4817 32.8706 54.3352 32.8706 59.1137C32.8706 63.8535 36.7242 67.7456 41.5026 67.7456C46.281 67.7456 50.1347 63.8921 50.1347 59.1137C50.1347 54.3352 46.281 50.4817 41.5026 50.4817Z" fill="#202B3E"/>
<path d="M81.8107 69.6724C75.9533 69.6724 71.2134 64.9325 71.2134 59.0751C71.2134 53.2177 75.9533 48.4778 81.8107 48.4778C87.6681 48.4778 92.408 53.2177 92.408 59.0751C92.408 64.9325 87.6296 69.6724 81.8107 69.6724ZM81.8107 50.4817C77.0708 50.4817 73.1787 54.3352 73.1787 59.1137C73.1787 63.8535 77.0323 67.7456 81.8107 67.7456C86.5891 67.7456 90.4426 63.8921 90.4426 59.1137C90.4426 54.3352 86.5506 50.4817 81.8107 50.4817Z" fill="#202B3E"/>
<path d="M28.285 42.0424H10.4815C9.94196 42.0424 9.51807 41.6186 9.51807 41.0791C9.51807 40.5396 9.94196 40.0771 10.4815 40.0771H28.285C28.8245 40.0771 29.2484 40.501 29.2484 41.0791C29.2484 41.58 28.8245 42.0424 28.285 42.0424Z" fill="#202B3E"/>
<path d="M26.3968 20H8.59327C8.05377 20 7.62988 19.576 7.62988 18.998C7.62988 18.42 8.05377 18.0346 8.59327 18.0346H26.3968C26.9363 18.0346 27.3602 18.4585 27.3602 18.998C27.3602 19.5375 26.9363 20 26.3968 20Z" fill="#202B3E"/>
<path d="M18.8053 31.0212H1.00196C0.462465 31.0212 0 30.5973 0 30.0578C0 29.5183 0.42393 29.0558 1.00196 29.0558H18.8053C19.3448 29.0558 19.7687 29.4798 19.7687 30.0578C19.7687 30.6358 19.3448 31.0212 18.8053 31.0212Z" fill="#202B3E"/>
</svg>
