<svg width="100" height="80" viewBox="0 0 100 80" fill="none" xmlns="http://www.w3.org/2000/svg">
<path d="M39.0225 35.8788C30.2015 35.8788 20.4876 32.7358 19.4519 29.8788C19.2734 29.4146 19.0234 28.2006 20.5947 27.1292C25.4874 23.8437 57.8788 10.0585 66.3784 9.73709C66.6641 9.73709 66.9141 9.66545 67.1284 9.5226C72.5924 5.95134 89.4488 -3.22661 94.9843 1.16605C97.5199 3.16596 98.8412 6.02297 98.8055 9.2014C98.7341 12.0941 97.1627 14.701 94.6985 16.0224C89.5916 18.7365 74.1281 24.0577 69.3068 17.2008C69.0211 16.7723 69.1283 16.2367 69.5211 15.9153C69.9497 15.6296 70.4854 15.7366 70.8068 16.1294C74.3423 21.1649 87.6989 17.6653 93.8415 14.3797C95.7342 13.3798 96.9485 11.3798 96.9842 9.1299C97.0199 7.30856 96.5199 4.66568 93.8772 2.55863C89.8059 -0.691223 75.128 6.45138 68.164 11.0226C67.6641 11.344 67.0926 11.5226 66.4855 11.5583C58.2716 11.8797 26.0588 25.6647 21.6661 28.6289C21.1304 28.986 21.2019 29.1646 21.2019 29.2361C22.0232 31.486 34.0584 34.843 42.5223 33.8787C46.9507 33.4859 53.0933 31.9504 58.5216 29.9148C64.9856 27.4863 67.0926 25.5933 67.0926 25.0576C67.0926 23.9148 66.9498 22.8077 66.6641 21.8435C66.5212 21.3792 66.8069 20.8438 67.2712 20.701C67.7355 20.5581 68.2712 20.8435 68.414 21.3078C68.7711 22.4863 68.914 23.7362 68.914 25.0576C68.8783 29.3789 51.0577 34.9144 42.7009 35.6644C41.4867 35.8072 40.2724 35.8788 39.0225 35.8788Z" fill="#202B3E"/>
<path d="M61.807 79.0195C60.8428 79.0195 59.8428 78.841 58.9143 78.4838L2.09539 56.9132C0.952585 56.4847 0.202623 55.5205 0.0240591 54.3063C-0.118792 53.1278 0.38119 51.9494 1.34543 51.2351L20.166 37.4498C20.5588 37.1641 21.1303 37.2356 21.4517 37.6284C21.7374 38.0212 21.6659 38.5928 21.2731 38.9143L2.45252 52.6992C2.02396 53.0206 1.8097 53.5205 1.88112 54.0562C1.95255 54.5919 2.30968 55.0205 2.77394 55.1991L59.5928 76.7697C62.0927 77.7339 64.9497 76.9838 66.6996 74.9481L97.9839 38.2356C98.2697 37.9142 98.3768 37.4498 98.2339 37.0212C98.1268 36.5927 97.8054 36.2712 97.3768 36.1284L72.3422 28.236C71.878 28.0932 71.5923 27.5574 71.7351 27.0931C71.878 26.6289 72.4137 26.3431 72.8779 26.486L97.8411 34.4502C98.8411 34.7716 99.591 35.5571 99.8767 36.557C100.162 37.557 99.9482 38.6286 99.2696 39.4499L68.0567 76.1625C66.4496 78.0196 64.164 79.0195 61.807 79.0195Z" fill="#202B3E"/>
<path d="M15.9518 17.3792C15.8803 17.3792 15.7732 17.3794 15.7018 17.3436L11.0591 15.9866C10.5948 15.8438 10.3092 15.3437 10.452 14.8438C10.5949 14.3795 11.0948 14.0937 11.5948 14.2366L16.2375 15.5936C16.7017 15.7364 16.9874 16.2365 16.8446 16.7365C16.7017 17.1293 16.3446 17.3792 15.9518 17.3792Z" fill="#202B3E"/>
<path d="M22.3802 11.2725C22.1302 11.2725 21.9159 11.201 21.7374 11.0224L18.5232 7.80831C18.1661 7.45118 18.1661 6.87992 18.5232 6.52279C18.8803 6.16566 19.4517 6.16566 19.8089 6.52279L23.023 9.73693C23.3801 10.0941 23.3801 10.6653 23.023 11.0224C22.8445 11.1653 22.5945 11.2725 22.3802 11.2725Z" fill="#202B3E"/>
<path d="M39.0225 7.80818C38.8797 7.80818 38.7368 7.77253 38.5939 7.70111C38.1654 7.45112 37.9868 6.91543 38.2368 6.45116L40.5581 2.20122C40.8081 1.77266 41.3438 1.5941 41.8081 1.84409C42.2366 2.09408 42.4152 2.62977 42.1652 3.09403L39.8439 7.34398C39.6653 7.6654 39.3439 7.80818 39.0225 7.80818Z" fill="#202B3E"/>
<path d="M30.2014 8.02278C29.7014 8.02278 29.3086 7.62994 29.3086 7.12997V2.59439C29.3086 2.09441 29.7014 1.70157 30.2014 1.70157C30.7014 1.70157 31.1299 2.09441 31.1299 2.59439V7.12997C31.0942 7.62994 30.7014 8.02278 30.2014 8.02278Z" fill="#202B3E"/>
<path d="M49.0576 65.8058C42.6294 65.8058 36.6296 63.913 32.9869 60.7346C32.8084 60.556 32.6655 60.3059 32.6655 60.0559C32.6655 59.5559 33.0584 59.1631 33.5583 59.1631C33.8083 59.1631 34.0226 59.2703 34.1655 59.4131C37.4867 62.3058 43.0222 64.0202 49.0219 64.0202C56.9859 64.0202 64.0213 60.9847 66.1283 56.592C66.3426 56.1278 66.8783 55.9491 67.3425 56.1634C67.8068 56.3777 67.9854 56.9132 67.7711 57.3774C65.3426 62.4129 57.8073 65.8058 49.0576 65.8058Z" fill="#202B3E"/>
<path d="M46.6293 56.6631C34.4513 56.6631 24.916 52.3418 24.916 46.8421C24.916 45.8064 25.2374 44.7707 25.916 43.8065C26.2017 43.378 26.7731 43.3067 27.1659 43.5924C27.5945 43.8781 27.6659 44.4495 27.3802 44.8423C26.9159 45.4851 26.7016 46.1635 26.7016 46.8421C26.7016 50.6991 34.7013 54.8419 46.5936 54.8419C57.6288 54.8419 65.3071 51.2347 66.3784 47.7349C66.5213 47.2706 67.0213 46.9852 67.5212 47.1281C67.9855 47.2709 68.2712 47.7706 68.1284 48.2706C66.6641 53.1275 57.6288 56.6631 46.6293 56.6631Z" fill="#202B3E"/>
<path d="M48.4507 47.7711C44.7009 47.7711 41.1296 47.3066 38.1298 46.4852C38.0941 46.4852 38.0941 46.4854 38.0583 46.4497L37.9512 46.4141C37.8441 46.3784 37.7012 46.3424 37.5941 46.3067C37.1298 46.1281 36.8798 45.6282 37.0584 45.1282C37.237 44.664 37.7369 44.414 38.2369 44.5925C38.3083 44.6282 38.4155 44.6283 38.4869 44.664L38.6298 44.6996H38.6655C41.4868 45.4853 44.8795 45.914 48.4507 45.914C57.7003 45.914 64.1643 43.1285 64.1643 40.6286C64.1643 40.3786 64.0929 40.1284 63.95 39.8784C63.7358 39.4141 63.9143 38.8786 64.3429 38.6644C64.8071 38.4501 65.3428 38.6285 65.5571 39.0571C65.8071 39.5928 65.9499 40.0929 65.9499 40.6286C65.9857 44.0927 59.8431 47.7711 48.4507 47.7711Z" fill="#202B3E"/>
</svg>
