<svg width="40" height="48" viewBox="0 0 40 48" fill="none" xmlns="http://www.w3.org/2000/svg">
<path d="M21.7026 18.1949C18.277 18.1949 15.4872 15.4051 15.4872 11.9795C15.4872 8.55385 18.277 5.7641 21.7026 5.7641C25.1283 5.7641 27.918 8.55385 27.918 11.9795C27.8975 15.4051 25.1283 18.1949 21.7026 18.1949ZM21.7026 6.85129C18.8719 6.85129 16.5539 9.16923 16.5539 12C16.5539 14.8308 18.8719 17.1487 21.7026 17.1487C24.5334 17.1487 26.8513 14.8308 26.8513 12C26.8308 9.14872 24.5334 6.85129 21.7026 6.85129Z" fill="#F4F3DE"/>
<path d="M21.7026 36.1436C21.559 36.1436 21.4359 36.0821 21.3333 35.9795C9.33331 23.9795 9.70252 12.4513 9.72303 11.959C9.72303 8.75896 10.9743 5.7641 13.2307 3.50769C15.5077 1.25128 18.5026 0 21.7026 0C28.3077 0 33.6821 5.37436 33.6821 11.9795C33.7026 12.4718 34.1128 23.9385 22.0718 35.9795C21.9692 36.0821 21.8257 36.1436 21.7026 36.1436ZM21.7026 1.06666C15.6923 1.06666 10.7897 5.96924 10.7897 11.9795C10.7897 12.0821 10.5025 23.2615 21.5179 34.6462L21.7026 34.8308L21.8872 34.6462C33.0257 23.1385 32.6154 12.1026 32.6154 12C32.6154 5.98974 27.7129 1.06666 21.7026 1.06666Z" fill="#F4F3DE"/>
<path d="M29.7436 47.9795C24.0821 47.9795 20.0616 44.3282 19.6308 43.8974C16.5949 41.3333 13.4359 40.041 10.1949 40.041C4.80004 40.041 1.04613 43.7128 0.902544 43.8769C0.79998 43.9795 0.676943 44.041 0.533353 44.041C0.471815 44.041 0.389764 44.0205 0.328225 44C0.123097 43.9179 0 43.7333 0 43.5077V23.5487C0 23.4051 0.0615986 23.2821 0.164163 23.1795C0.28724 23.0564 3.13846 20.2256 7.58974 19.3231C7.63077 19.3231 7.67179 19.3026 7.69231 19.3026C7.93846 19.3026 8.1641 19.4872 8.20513 19.7333C8.22564 19.8769 8.20515 20.0205 8.1231 20.1436C8.04105 20.2667 7.91795 20.3487 7.79487 20.3692C4.32821 21.0667 1.84619 23.0974 1.16927 23.7128L1.08724 23.7949V42.3795L1.4975 42.0718C3.05647 40.9436 6.27698 39.0359 10.318 39.0359C13.7847 39.0359 17.1488 40.4102 20.3488 43.1179C20.3693 43.1385 20.3897 43.159 20.3897 43.159C20.5333 43.3026 24.2872 46.9744 29.6821 46.9744C32.8206 46.9744 35.8975 45.7641 38.8308 43.3436L38.9334 43.2615V24.6769L38.5231 24.9846C36.677 26.3179 34.7693 27.2205 32.841 27.6923C32.8 27.6923 32.759 27.7128 32.7179 27.7128C32.4718 27.7128 32.2667 27.5487 32.2051 27.3026C32.1436 27.0154 32.3077 26.7282 32.5949 26.6667C34.8102 26.1333 37.0257 24.9436 39.118 23.159C39.2206 23.0769 39.3436 23.0359 39.4666 23.0359C39.5487 23.0359 39.6308 23.0564 39.6923 23.0769C39.8769 23.159 40 23.3436 40 23.5692V43.5282C40 43.6923 39.9385 43.8359 39.8154 43.9385C36.5744 46.6051 33.1897 47.9795 29.7436 47.9795Z" fill="#F4F3DE"/>
</svg>
