<svg width="29" height="33" viewBox="0 0 29 33" fill="none" xmlns="http://www.w3.org/2000/svg">
<path d="M9.97593 27.8628C10.4809 27.8628 10.8903 27.3969 10.8903 26.8222C10.8903 26.2476 10.4809 25.7817 9.97593 25.7817C9.47092 25.7817 9.06152 26.2476 9.06152 26.8222C9.06152 27.3969 9.47092 27.8628 9.97593 27.8628Z" stroke="#202B3E" stroke-width="2" stroke-linecap="round" stroke-linejoin="round"/>
<path d="M22.6634 27.8628C23.1684 27.8628 23.5778 27.3969 23.5778 26.8222C23.5778 26.2476 23.1684 25.7817 22.6634 25.7817C22.1584 25.7817 21.749 26.2476 21.749 26.8222C21.749 27.3969 22.1584 27.8628 22.6634 27.8628Z" stroke="#202B3E" stroke-width="2" stroke-linecap="round" stroke-linejoin="round"/>
<path d="M2.71777 5.15591H6.34277L9.06152 22.6872H23.5615" stroke="#202B3E" stroke-width="2" stroke-linecap="round" stroke-linejoin="round"/>
<path d="M9.06348 18.5634H23.1919C23.2967 18.5635 23.3983 18.5222 23.4794 18.4467C23.5604 18.3711 23.616 18.2659 23.6365 18.149L25.2678 8.86773C25.281 8.79289 25.2794 8.71566 25.2631 8.64161C25.2469 8.56756 25.2164 8.49854 25.1738 8.43953C25.1313 8.38052 25.0778 8.33299 25.0171 8.30037C24.9565 8.26775 24.8902 8.25086 24.8232 8.25092H7.25098" stroke="#202B3E" stroke-width="2" stroke-linecap="round" stroke-linejoin="round"/>
</svg>
