<svg width="40" height="40" viewBox="0 0 40 40" fill="none" xmlns="http://www.w3.org/2000/svg">
<path d="M35.4012 39.3346H4.59883C2.05479 39.3346 0 37.2798 0 34.7358V9.47162C0 6.92759 2.05479 4.87279 4.59883 4.87279H8.7867C9.06067 4.87279 9.27593 5.08806 9.27593 5.36203C9.27593 5.636 9.06067 5.87084 8.7867 5.87084H4.59883C2.62231 5.87084 0.998062 7.4951 0.998062 9.47162V34.7554C0.998062 36.7319 2.62231 38.3562 4.59883 38.3562H35.4012C37.3777 38.3562 39.002 36.7319 39.002 34.7554V9.47162C39.002 7.4951 37.3777 5.87084 35.4012 5.87084H31.2133C30.9393 5.87084 30.7045 5.65557 30.7045 5.36203C30.7045 5.08806 30.9198 4.87279 31.2133 4.87279H35.4012C37.9452 4.87279 40 6.92759 40 9.47162V34.7554C40 37.2798 37.9452 39.3346 35.4012 39.3346Z" fill="#F4F3DE"/>
<path d="M10.2546 22.818C8.41505 22.818 6.9082 21.3112 6.9082 19.4716C6.9082 17.6321 8.41505 16.1252 10.2546 16.1252C12.0941 16.1252 13.601 17.6321 13.601 19.4716C13.601 21.3112 12.0941 22.818 10.2546 22.818ZM10.2546 17.1233C8.96299 17.1233 7.90624 18.18 7.90624 19.4716C7.90624 20.7632 8.96299 21.82 10.2546 21.82C11.5462 21.82 12.6029 20.7632 12.6029 19.4716C12.6029 18.18 11.5462 17.1233 10.2546 17.1233Z" fill="#F4F3DE"/>
<path d="M10.2545 31.4873C6.57548 31.4873 3.6792 30.0196 3.6792 28.1213C3.6792 26.2427 6.55591 24.7554 10.2545 24.7554C13.9532 24.7554 16.8299 26.2231 16.8299 28.1213C16.8299 30.0196 13.9336 31.4873 10.2545 31.4873ZM10.2545 25.773C6.96687 25.773 4.67724 27.0254 4.67724 28.1409C4.67724 29.2564 6.96687 30.5088 10.2545 30.5088C13.5422 30.5088 15.8318 29.2564 15.8318 28.1409C15.8318 27.0254 13.5422 25.773 10.2545 25.773Z" fill="#F4F3DE"/>
<path d="M20 35.91C19.726 35.91 19.4912 35.6947 19.4912 35.4207V13.6399C19.4912 13.3659 19.7065 13.1507 20 13.1507C20.274 13.1507 20.4892 13.3659 20.4892 13.6399V35.4207C20.5088 35.6947 20.274 35.91 20 35.91Z" fill="#F4F3DE"/>
<path d="M35.323 31.4873H24.188C23.9141 31.4873 23.6792 31.272 23.6792 30.998C23.6792 30.7241 23.8945 30.4892 24.188 30.4892H35.323C35.597 30.4892 35.8123 30.7045 35.8123 30.998C35.8123 31.272 35.597 31.4873 35.323 31.4873Z" fill="#F4F3DE"/>
<path d="M35.323 24.3053H24.188C23.9141 24.3053 23.6792 24.09 23.6792 23.8161C23.6792 23.5421 23.8945 23.3072 24.188 23.3072H35.323C35.597 23.3072 35.8123 23.5225 35.8123 23.8161C35.8123 24.09 35.597 24.3053 35.323 24.3053Z" fill="#F4F3DE"/>
<path d="M35.3229 17.1233H24.1879C23.9139 17.1233 23.6791 16.908 23.6791 16.6341C23.6791 16.3601 23.8944 16.1448 24.1879 16.1448H35.3229C35.5969 16.1448 35.8121 16.3601 35.8121 16.6341C35.8121 16.908 35.5969 17.1233 35.3229 17.1233Z" fill="#F4F3DE"/>
<path d="M24.5792 10.7241H15.4402C13.3855 10.7241 11.722 9.06066 11.722 7.00587V3.7182C11.722 1.6634 13.3855 0 15.4402 0H24.5792C26.634 0 28.2974 1.6634 28.2974 3.7182V7.00587C28.2974 9.06066 26.634 10.7241 24.5792 10.7241ZM15.4402 0.998038C13.9334 0.998038 12.7201 2.21135 12.7201 3.7182V7.00587C12.7201 8.51272 13.9334 9.72603 15.4402 9.72603H24.5792C26.0861 9.72603 27.2993 8.51272 27.2993 7.00587V3.7182C27.2993 2.21135 26.0861 0.998038 24.5792 0.998038H15.4402Z" fill="#F4F3DE"/>
</svg>
