<svg width="40" height="42" viewBox="0 0 40 42" fill="none" xmlns="http://www.w3.org/2000/svg">
<path d="M18.6306 41.0149H8.72985C3.90863 41.0149 0 37.1062 0 32.285V17.6147C0 15.2557 1.03311 13.0173 2.85829 11.5021L5.5444 9.24645C5.7338 9.09148 6.0093 9.10866 6.16427 9.29807C6.31923 9.48747 6.30203 9.76299 6.11262 9.91796L3.4265 12.1736C1.80794 13.5339 0.895362 15.514 0.895362 17.6147V32.285C0.895362 36.6068 4.42518 40.1367 8.74706 40.1367H18.6478C22.9697 40.1367 26.4995 36.6068 26.4995 32.285V17.6147C26.4995 15.514 25.5697 13.5339 23.9684 12.1736L20.6451 9.38416C19.8531 8.71263 18.8372 8.35104 17.7869 8.35104H11.4504C11.2093 8.35104 11.0027 8.16166 11.0027 7.90338C11.0027 7.66232 11.1921 7.45568 11.4504 7.45568H17.7869C19.0438 7.45568 20.2491 7.90336 21.2134 8.69542L24.5366 11.4849C26.3445 13.0001 27.3949 15.2385 27.3949 17.5975V32.2678C27.3604 37.1062 23.4518 41.0149 18.6306 41.0149Z" fill="#F4F3DE"/>
<path d="M28.8929 37.2784C28.6518 37.2784 28.4452 37.089 28.4452 36.8307C28.4452 36.6413 28.5657 36.4691 28.7551 36.4174L34.2134 34.2135C37.0545 33.0771 38.9658 30.3565 39.1208 27.3088C39.138 27.0677 39.3446 26.8783 39.5856 26.8956C39.8267 26.9128 40.0161 27.1194 39.9989 27.3605C39.8439 30.7525 37.6916 33.7658 34.5406 35.0399L29.0651 37.2612C28.9962 37.2612 28.9445 37.2784 28.8929 37.2784Z" fill="#F4F3DE"/>
<path d="M38.9485 24.2783C38.7764 24.2783 38.6042 24.175 38.5353 24.0028L33.0425 10.4001C32.2505 8.45437 30.6491 6.95634 28.6518 6.30203L24.5193 4.95897C23.5206 4.63181 22.4531 4.66627 21.4716 5.0623L19.9736 5.66495C19.9564 5.66495 19.9564 5.66492 19.9391 5.68214L13.9126 8.12722C13.7749 8.17888 13.6544 8.24773 13.5166 8.3166C13.31 8.41992 13.0345 8.35107 12.9312 8.12722C12.8106 7.9206 12.8967 7.64508 13.1206 7.54176C13.2755 7.45567 13.4305 7.38679 13.5855 7.31791L19.6464 4.87287C19.6637 4.87287 19.6637 4.8729 19.6809 4.85568L21.1617 4.25303C22.3325 3.78812 23.624 3.73643 24.812 4.13246L28.9445 5.47553C31.2002 6.19871 32.9909 7.88613 33.869 10.0729L39.3618 23.6756C39.4479 23.8995 39.3446 24.1578 39.1207 24.2439C39.0691 24.2611 39.0002 24.2783 38.9485 24.2783Z" fill="#F4F3DE"/>
<path d="M13.689 35.3843C10.6413 35.3843 7.64526 32.8704 7.64526 30.3221C7.64526 27.7221 10.2453 25.7591 13.689 25.7591C15.1182 25.7591 16.4268 26.1035 17.4943 26.7234C17.701 26.8439 17.7698 27.1194 17.6493 27.326C17.5288 27.5327 17.2533 27.6015 17.0467 27.481C16.1341 26.93 14.9288 26.6373 13.689 26.6373C10.7446 26.6373 8.52343 28.2214 8.52343 30.3221C8.52343 32.3883 11.1234 34.5062 13.689 34.5062C16.2546 34.5062 18.8546 32.3883 18.8546 30.3221C18.8546 30.0294 18.8202 29.7539 18.7341 29.4784C18.6652 29.2545 18.803 28.9962 19.0268 28.9273C19.2507 28.8585 19.5089 28.9962 19.5778 29.2201C19.6811 29.5817 19.7328 29.9433 19.7328 30.3221C19.7156 32.8876 16.7367 35.3843 13.689 35.3843Z" fill="#F4F3DE"/>
<path d="M13.689 24.0373C12.1393 24.0373 10.8823 22.6426 10.8823 20.9035C10.8823 19.1816 12.1393 17.7697 13.689 17.7697C15.2387 17.7697 16.4956 19.1644 16.4956 20.9035C16.4784 22.6426 15.2214 24.0373 13.689 24.0373ZM13.689 18.665C12.6214 18.665 11.7605 19.6809 11.7605 20.9207C11.7605 22.1604 12.6214 23.1763 13.689 23.1763C14.7565 23.1763 15.6175 22.1604 15.6175 20.9207C15.6002 19.6637 14.7393 18.665 13.689 18.665Z" fill="#F4F3DE"/>
<path d="M6.74983 25.8796C5.82002 25.8796 4.85578 25.277 4.322 24.2611C3.61604 22.9008 3.94318 21.3167 5.06239 20.7313C6.1816 20.1458 7.67963 20.7657 8.40281 22.126C8.74719 22.7631 8.8505 23.4863 8.72997 24.1406C8.59222 24.8293 8.21342 25.3803 7.66242 25.673C7.38693 25.8108 7.07698 25.8796 6.74983 25.8796ZM6.00942 21.3856C5.83723 21.3856 5.64783 21.42 5.49286 21.5061C4.80411 21.8677 4.63193 22.918 5.11406 23.8651C5.59618 24.7949 6.56042 25.2598 7.26639 24.8982C7.59354 24.726 7.80016 24.3988 7.88625 23.9856C7.97235 23.5207 7.88625 23.0214 7.64519 22.5392C7.26638 21.8161 6.61207 21.3856 6.00942 21.3856Z" fill="#F4F3DE"/>
<path d="M20.6107 25.8796C20.3008 25.8796 19.9909 25.8108 19.6981 25.6558C19.1299 25.3631 18.7511 24.8121 18.6306 24.1233C18.5101 23.469 18.6306 22.7631 18.9577 22.1088C19.6637 20.7485 21.1617 20.1114 22.2982 20.714C23.4174 21.2995 23.7617 22.8836 23.0386 24.2439C22.4876 25.277 21.5233 25.8796 20.6107 25.8796ZM21.3511 21.3856C20.7485 21.3856 20.0942 21.8161 19.7154 22.5392C19.4743 23.0041 19.3882 23.5207 19.4743 23.9856C19.5604 24.3988 19.767 24.726 20.0942 24.8982C20.7829 25.2598 21.7472 24.7949 22.2465 23.8651C22.7286 22.9353 22.5737 21.8849 21.8677 21.5061C21.7127 21.42 21.5406 21.3856 21.3511 21.3856Z" fill="#F4F3DE"/>
<path d="M12.0358 13.069C11.9669 13.069 11.9153 13.0518 11.8464 13.0346C9.41857 11.9326 7.8689 9.48749 7.8689 6.8186C7.8689 3.04772 10.9338 0 14.6875 0C17.6663 0 20.2836 1.91127 21.1789 4.73513C21.2478 4.95897 21.1272 5.21728 20.9034 5.28616C20.6796 5.35503 20.4213 5.23449 20.3524 5.01064C19.5604 2.54838 17.2875 0.878168 14.6875 0.878168C11.4159 0.878168 8.74704 3.54706 8.74704 6.8186C8.74704 9.14312 10.1073 11.261 12.2252 12.2252C12.4491 12.3286 12.5351 12.5869 12.4491 12.8107C12.363 12.9829 12.208 13.069 12.0358 13.069Z" fill="#F4F3DE"/>
</svg>
