<svg width="40" height="45" viewBox="0 0 40 45" fill="none" xmlns="http://www.w3.org/2000/svg">
<path d="M29.3857 44.1766C29.2482 44.1766 29.1303 44.1176 29.032 44.039L23.6658 38.6729H4.63884C2.08356 38.6729 0 36.5893 0 34.034V11.5476C0 8.99228 2.08356 6.90874 4.63884 6.90874H25.6905C25.9656 6.90874 26.1819 7.12496 26.1819 7.40015C26.1819 7.67533 25.9656 7.9112 25.6905 7.9112H4.63884C2.63393 7.9112 1.00248 9.54265 1.00248 11.5476V34.0537C1.00248 36.0586 2.63393 37.6901 4.63884 37.6901H23.9017C24.0393 37.6901 24.1572 37.749 24.2555 37.8277L28.914 42.4861V38.1815C28.914 37.9063 29.1303 37.6901 29.4251 37.6901H35.3612C37.3661 37.6901 38.9975 36.0586 38.9975 34.0537V11.5476C38.9975 10.7024 38.7027 9.8768 38.1524 9.22815C37.9754 9.01194 37.9951 8.69744 38.2113 8.52054C38.4275 8.34364 38.742 8.36329 38.9189 8.57951C39.6069 9.40506 40 10.4665 40 11.5279V34.034C40 36.5893 37.9164 38.6729 35.3612 38.6729H29.9362V43.6852C29.9362 43.8817 29.8182 44.0783 29.6217 44.1569C29.5234 44.1569 29.4644 44.1766 29.3857 44.1766Z" fill="#F4F3DE"/>
<path d="M22.9582 15.4984H6.01472C5.73953 15.4984 5.52332 15.2822 5.52332 15.007C5.52332 14.7318 5.73953 14.5156 6.01472 14.5156H22.9582C23.2334 14.5156 23.4496 14.7318 23.4496 15.007C23.4496 15.2822 23.2334 15.4984 22.9582 15.4984Z" fill="#F4F3DE"/>
<path d="M20.5404 22.6729H6.01459C5.73941 22.6729 5.52319 22.4566 5.52319 22.1815C5.52319 21.9063 5.73941 21.6901 6.01459 21.6901H20.5404C20.8156 21.6901 21.0318 21.9063 21.0318 22.1815C21.0318 22.4566 20.8156 22.6729 20.5404 22.6729Z" fill="#F4F3DE"/>
<path d="M20.4814 29.8277H6.01459C5.73941 29.8277 5.52319 29.6115 5.52319 29.3166C5.52319 29.0218 5.73941 28.8252 6.01459 28.8252H20.4814C20.7566 28.8252 20.9728 29.0414 20.9728 29.3166C20.9728 29.5918 20.7566 29.8277 20.4814 29.8277Z" fill="#F4F3DE"/>
<path d="M24.4521 29.9063C24.3145 29.9063 24.177 29.8866 24.0394 29.8277C21.9755 29.0611 23.2728 22.3584 23.7445 21.0807L30.919 1.77852C31.1549 1.14953 31.5872 0.618813 32.1573 0.304316C32.747 -0.0298358 33.3956 -0.0888027 33.9657 0.127414L35.9116 0.854689C37.091 1.28712 37.6413 2.74167 37.1499 4.07827L29.9754 23.3805C29.602 24.3633 28.5799 26.1127 27.5775 27.41C26.2998 29.0807 25.2776 29.9063 24.4521 29.9063ZM33.258 1.03159C33.0615 1.03159 32.8452 1.09056 32.6487 1.20849C32.2949 1.40505 32.0197 1.7392 31.8624 2.15198L24.688 21.4542C23.8821 23.636 23.5676 28.5893 24.3931 28.9038C24.57 28.9628 25.3367 28.7269 26.7715 26.8399C27.8133 25.464 28.7371 23.8522 29.032 23.066L36.2064 3.76378C36.5013 2.95788 36.2064 2.07336 35.5577 1.81783L33.6118 1.09056C33.4939 1.05125 33.376 1.03159 33.258 1.03159Z" fill="#F4F3DE"/>
<path d="M36.1082 5.96526C36.0492 5.96526 35.9902 5.9456 35.9313 5.92595L30.6437 3.96034C30.3882 3.86206 30.2506 3.56723 30.3489 3.3117C30.4472 3.05617 30.7421 2.91858 30.9976 3.01686L36.285 4.98246C36.5406 5.08074 36.6782 5.37558 36.5799 5.63111C36.5013 5.84732 36.3047 5.96526 36.1082 5.96526Z" fill="#F4F3DE"/>
</svg>
