<svg width="157" height="27" viewBox="0 0 157 27" fill="none" xmlns="http://www.w3.org/2000/svg">
<path fill-rule="evenodd" clip-rule="evenodd" d="M26.8922 21.2334C26.8602 20.8195 26.7602 20.3737 26.7602 20.3737C26.7282 20.2877 26.7062 20.2057 26.6902 20.1297C26.7802 19.3699 27.1601 18.0223 27.2521 17.8064C27.3101 17.6724 27.55 17.6604 27.8359 17.3105C27.466 17.6005 27.2261 17.6604 27.2261 17.6604C27.0761 17.9264 26.8262 18.9901 26.6642 19.7059C26.5943 20.0198 26.5403 20.2657 26.5203 20.3517C26.4803 20.5136 26.4983 20.9215 26.5203 21.2394C26.6443 21.2394 26.7682 21.2354 26.8922 21.2334Z" fill="white"/>
<path fill-rule="evenodd" clip-rule="evenodd" d="M29.1515 9.93066C28.9435 9.94266 28.7256 10.1406 28.7256 10.1406C28.8356 10.2186 29.0595 10.0006 29.1515 9.93066Z" fill="white"/>
<path fill-rule="evenodd" clip-rule="evenodd" d="M22.3133 17.6273C22.4993 17.7413 23.2091 17.8073 23.2091 17.8073C22.5633 17.6153 22.1934 17.3574 22.1934 17.3574C22.2054 17.8173 21.7155 18.691 21.4036 19.1969C21.4016 19.2589 21.3976 19.3229 21.3916 19.3868C21.9754 18.5951 22.3133 17.6273 22.3133 17.6273Z" fill="white"/>
<path fill-rule="evenodd" clip-rule="evenodd" d="M47.5982 23.7991C47.5882 21.0919 47.1463 18.4446 46.2486 15.8894C46.0886 15.4355 46.1106 15.3196 45.6487 15.1176C45.1549 14.9017 44.3851 14.7757 43.8393 14.6857C43.4934 14.6298 43.0975 14.6078 42.7696 14.5398C42.4897 14.4818 42.2257 14.4338 42.7216 14.3418C43.4314 14.2119 44.1452 14.1759 44.827 13.894C45.1069 13.778 45.3488 13.678 45.1829 13.3381C44.645 12.2464 44.0572 11.2407 43.3654 10.239C43.2994 10.1491 43.2394 10.0831 43.1515 10.0171C42.6876 9.69719 41.5939 9.62921 41.0301 9.59322C40.4143 9.55323 39.7605 9.49125 39.1486 9.47325C38.2689 9.44726 37.3891 9.37328 36.5134 9.35528C36.1955 9.34929 33.3063 9.22332 33.3543 9.14135C33.3943 9.07337 35.9616 8.90542 36.2275 8.88742C37.0712 8.82744 37.919 8.76546 38.7627 8.69748C39.5585 8.63349 40.6262 8.52552 41.372 8.2756C41.6519 8.18162 41.6899 8.09765 41.5019 7.87971C40.1004 6.30617 38.4029 4.89258 36.6334 3.75091C35.8736 3.29305 35.1418 3.13509 34.2641 3.14708C33.8622 3.15308 33.4743 3.15108 33.0744 3.15308C32.4486 3.15508 31.8727 3.23106 31.2569 3.25705C30.7971 3.27705 30.2812 3.29305 29.8233 3.29105C29.0396 3.28505 28.2278 3.27505 27.448 3.21307C26.9622 3.17308 26.4723 3.18707 25.9965 3.14309C25.8005 3.12509 25.6286 3.11509 25.4326 3.1031C25.2167 3.0891 25.1667 3.03912 24.9468 3.05112C24.4809 3.07911 24.087 3.1071 23.6151 3.1031C23.3372 3.1011 22.6074 3.07711 22.3535 3.01113C22.1796 2.96514 21.8597 2.93115 22.2575 2.85717C23.0373 2.71121 23.8931 2.7492 24.6908 2.65923C25.6146 2.55726 26.5203 2.50727 27.446 2.44529C27.9559 2.4113 28.4517 2.35732 28.9576 2.32133C29.8013 2.25935 30.7171 2.14738 31.5368 1.93344C32.0647 1.79548 32.4686 1.64152 31.7128 1.34561C29.2135 0.445872 26.4543 0.00799768 23.8011 0C19.3844 0.0339901 15.4495 1.10168 11.6366 3.33903C10.7409 3.87288 9.68919 4.58067 8.89142 5.24848L8.83743 5.29846C8.15363 5.92628 12.2245 5.87229 12.3904 5.87229C13.912 5.8663 15.3755 6.00226 16.8891 6.10423C16.9891 6.11023 18.3307 6.1942 18.0108 6.2102C17.6689 6.22619 17.255 6.2042 16.9091 6.2002C16.8011 6.1982 15.6055 6.16421 15.6375 6.33016C15.6555 6.42814 14.7617 6.46212 14.6757 6.46612C14.1859 6.49211 13.728 6.52011 13.2382 6.56209C11.4087 6.71605 9.51324 6.78003 7.70176 7.05795C7.18991 7.13593 6.74205 7.21591 6.36615 7.60379C5.37444 8.67548 4.4887 9.81515 3.70493 11.0468C3.58096 11.2427 3.32904 11.6226 3.23706 11.8166C3.04312 12.2305 3.95485 12.2944 4.19678 12.3324C4.73663 12.4164 5.34445 12.4504 5.8703 12.5564C6.22619 12.6283 5.92828 12.6783 5.78032 12.7063C5.48241 12.7623 5.19649 12.8003 4.90258 12.8523C4.24677 12.9682 3.7849 13.0642 3.15509 13.3121C2.7612 13.4681 2.27934 13.6101 2.09139 14.0259C0.699799 17.115 0.0119965 20.4181 0 23.8011C0 24.7448 0.0559828 25.6765 0.163951 26.5903C3.86488 26.5903 -1.33961 26.5983 2.36132 26.5923C2.37131 26.5923 2.37931 26.5903 2.38731 26.5903H7.02196C7.2419 26.5183 7.46583 26.4543 7.68377 26.3823C7.98568 26.2824 8.28559 26.2164 8.58751 26.1184C8.91941 26.0104 9.22333 25.9725 9.56523 25.9185C9.88913 25.8685 10.191 25.8125 10.5109 25.7525C10.6149 25.7325 11.2287 25.6406 11.2487 25.5706C11.1728 25.5166 10.7029 25.4866 10.5769 25.4706C10.5069 25.4606 10.367 25.4486 10.495 25.3866C10.6409 25.3167 10.465 25.2927 10.5329 25.2227C10.5389 25.2167 10.9488 24.9967 10.9888 24.9768C11.1048 24.9208 11.2207 24.8648 11.3367 24.8068C11.7166 24.6269 12.1265 24.5209 12.5384 24.4449C12.9143 24.3769 13.3661 24.3229 13.748 24.3389C14.2419 24.3589 14.6797 24.3789 15.1756 24.3549C16.0753 24.3129 16.9991 24.257 17.8968 24.179C18.0768 24.163 18.8085 24.085 18.1447 24.017C17.7988 23.981 17.353 23.973 16.9991 23.973C16.5972 23.973 16.2333 23.973 15.8294 23.949C15.3675 23.9211 14.8677 23.9191 14.4138 23.8451C13.844 23.7531 13.842 23.6171 14.3678 23.4152C15.0256 23.1393 15.6854 22.8714 16.3592 22.6434C16.6332 22.5515 16.9071 22.4695 17.185 22.3915C17.9028 22.1896 18.8685 21.9356 19.6003 21.8617C19.8982 21.8317 20.1981 21.7977 20.4961 21.7637C20.2581 21.4198 20.0562 21.0799 20.0562 21.0799C19.7703 20.662 20.0802 20.3001 20.0802 20.3001C20.524 18.2347 19.3744 17.4969 19.3744 17.4969C17.5149 20.1122 14.0619 17.9408 14.0619 17.9408C16.3573 17.7029 17.8308 17.121 18.3567 15.9434C19.0105 14.4798 20.0402 13.9539 21.6897 13.896C23.1993 13.852 24.9788 13.3901 24.9788 13.3901C26.3164 13.1442 27.2161 11.6926 27.2161 11.6926C26.8702 11.6086 26.7922 11.4267 26.7922 11.4267L27.42 11.0208C28.1178 9.70118 29.1535 9.74717 29.1535 9.74717L30.2832 8.87742C30.7391 8.9494 30.5531 9.60321 30.5531 9.60321V9.61921L30.5571 9.6432C30.7871 9.51724 30.895 9.84314 30.895 9.84314C31.075 10.241 30.4612 10.5469 30.4612 10.5469C30.3732 10.9108 30.2532 11.1128 30.2532 11.1128C29.9573 12.5704 30.5111 12.9043 29.6894 14.6697C29.1435 15.8834 28.5877 16.6112 28.1418 17.0431C27.8879 17.7928 27.472 19.5883 27.414 19.8302C27.3461 20.1122 27.448 21.1419 27.448 21.1419C27.626 21.1199 27.7379 21.1619 27.8079 21.2258C28.5297 21.2338 29.2715 21.2658 30.0753 21.3278C30.859 21.3878 33.4003 21.5437 33.9781 21.9036C34.0921 21.9816 34.1861 22.0676 34.0301 22.1716C33.6742 22.4095 31.5248 22.5695 30.985 22.6234C30.5091 22.6694 30.0313 22.7094 29.5554 22.7414C28.7417 22.7954 27.9199 22.8394 27.1061 22.8874C26.7142 22.9094 26.2084 22.9253 25.8325 23.0133C25.6486 23.0573 25.4846 23.0873 25.3007 23.1233C25.5886 23.0833 25.8805 23.0013 26.1664 22.9753C26.5663 22.9393 26.9802 22.9173 27.3821 22.8934C27.7959 22.8674 28.2118 22.8474 28.6277 22.8254C28.6157 22.8254 28.6017 22.8274 28.5897 22.8274C27.612 22.8974 26.5783 22.9114 25.6166 23.0973C25.4186 23.1353 24.8288 23.2093 25.4186 23.2732C26.3024 23.3712 27.2021 23.3912 28.0898 23.4992C28.5277 23.5512 29.1395 23.6351 29.5534 23.7711C31.3929 24.3809 35.4937 23.6911 30.5531 24.7808C28.5577 25.7885 30.949 24.9208 28.7896 26.0045C28.6697 26.0644 27.9099 26.1184 27.7239 26.1364C27.636 26.1444 27.548 26.1544 27.46 26.1624C27.2561 26.1804 27.0042 26.1924 26.8082 26.2224C26.4343 26.2824 26.5023 26.4103 26.0564 26.4163C25.5046 26.5043 25.1107 26.5543 24.7888 26.5843H36.2935C35.8796 26.0924 33.3103 25.9125 33.2364 25.8905C33.0644 25.8405 33.9961 25.8025 34.0721 25.7985C34.1281 25.7945 34.1821 25.7905 34.2361 25.7885C35.5737 25.4706 37.0332 26.5143 36.8613 25.1207C36.9053 25.0267 36.8453 24.6788 36.8113 24.5689C36.7153 24.2869 36.4454 24.025 36.1795 23.8991C36.1735 23.8971 35.9256 23.8111 36.0415 23.8151C36.1795 23.8191 36.4254 23.9131 36.5474 23.981C36.6854 24.059 36.8113 24.145 36.9213 24.259C37.2112 24.5609 37.2812 25.0387 37.3092 25.4406C37.3312 25.7525 37.4951 26.1264 37.6711 26.3823C37.715 26.4443 37.787 26.5143 37.873 26.5863H47.6062V26.1704H47.4802C47.5482 25.3906 47.5982 24.6009 47.5982 23.7991Z" fill="white"/>
<path fill-rule="evenodd" clip-rule="evenodd" d="M33.0224 22.4316C32.3905 22.5116 31.7567 22.5696 31.1249 22.6396L31.0929 22.6436C30.867 22.6696 30.6391 22.6896 30.4111 22.7096C30.0732 22.7375 29.7353 22.7576 29.3994 22.7775C29.7273 22.7556 30.0572 22.7376 30.3831 22.7056C31.2569 22.6176 32.1526 22.5336 33.0224 22.4316Z" fill="white"/>
<path fill-rule="evenodd" clip-rule="evenodd" d="M22.6672 21.4955C22.8271 21.4595 22.9471 21.4655 23.0371 21.4955C23.209 21.4795 23.381 21.4635 23.5529 21.4455C24.4027 21.3636 25.1805 21.3016 25.9402 21.2656C25.9042 21.0517 25.8703 20.8957 25.8703 20.8957C25.6983 20.4378 25.8003 20.0859 25.8003 20.0859C25.8883 19.4321 25.6583 17.9146 25.6583 17.9146C24.6526 18.1105 23.8109 17.9885 23.209 17.8086C22.9051 18.4984 22.3833 19.2682 22.3833 19.2682C21.7175 20.8057 22.6672 21.4955 22.6672 21.4955Z" fill="white"/>
<path fill-rule="evenodd" clip-rule="evenodd" d="M21.8394 21.6076C21.5555 21.2138 21.2795 20.7539 21.2795 20.7539C20.9936 20.336 21.3035 19.9741 21.3035 19.9741C21.3655 19.6902 21.3955 19.4303 21.4035 19.1943C21.2595 19.4283 21.1536 19.5842 21.1536 19.5842C20.6657 20.7159 21.0476 21.3877 21.2855 21.6656C21.4695 21.6476 21.6554 21.6276 21.8394 21.6076Z" fill="white"/>
<path d="M60.0693 25.8706H58.9072L58.7135 26.4274H58.0986L59.1493 23.5029H59.832L60.8827 26.4274H60.2629L60.0693 25.8706ZM59.9119 25.4034L59.4882 24.1808L59.0646 25.4034H59.9119Z" fill="white"/>
<path d="M62.6137 25.9646H63.5773V26.4294H62.0303V23.5098H62.6161V25.9646H62.6137Z" fill="white"/>
<path d="M65.2865 23.5078V26.4275H64.7007V23.5078H65.2865Z" fill="white"/>
<path d="M69.8017 23.5078V26.4275H69.2158V24.527L68.4339 26.4275H67.9908L67.204 24.527V26.4275H66.6182V23.5078H67.2839L68.2136 25.6794L69.1432 23.5078H69.8017Z" fill="white"/>
<path d="M71.7162 23.9799V24.711H72.6991V25.1758H71.7162V25.9505H72.825V26.4274H71.1304V23.5029H72.825V23.9799H71.7162Z" fill="white"/>
<path d="M76.6068 26.4269H76.0209L74.6943 24.4248V26.4294H74.1084V23.5049H74.6943L76.0209 25.5118V23.5049H76.6068V26.4269Z" fill="white"/>
<path d="M79.9233 23.5078V23.9799H79.1462V26.4275H78.5603V23.9799H77.7808V23.5078H79.9233Z" fill="white"/>
<path d="M82.894 25.8706H81.7319L81.5383 26.4274H80.9233L81.974 23.5029H82.6567L83.7074 26.4274H83.0876L82.894 25.8706ZM82.7366 25.4034L82.313 24.1808L81.8893 25.4034H82.7366Z" fill="white"/>
<path d="M84.9056 24.1921C85.0363 23.9646 85.213 23.7878 85.4382 23.662C85.6633 23.5361 85.9127 23.4707 86.1935 23.4707C86.5203 23.4707 86.806 23.5554 87.0505 23.7225C87.295 23.8895 87.4669 24.1219 87.5638 24.4173H86.8907C86.8254 24.2793 86.7285 24.1728 86.6099 24.1026C86.4889 24.0324 86.3484 23.9985 86.1887 23.9985C86.0192 23.9985 85.8667 24.0372 85.7335 24.1171C85.6004 24.197 85.4987 24.3083 85.4236 24.4536C85.3486 24.5989 85.3123 24.7683 85.3123 24.9644C85.3123 25.1581 85.3486 25.3251 85.4236 25.4728C85.4987 25.6205 85.6004 25.7318 85.7335 25.8117C85.8667 25.8916 86.0168 25.9304 86.1887 25.9304C86.3484 25.9304 86.4889 25.894 86.6099 25.8238C86.7309 25.7536 86.8254 25.6471 86.8907 25.5091H87.5638C87.4669 25.8069 87.295 26.0393 87.0505 26.2064C86.806 26.3734 86.5203 26.4557 86.1911 26.4557C85.9127 26.4557 85.6609 26.3928 85.4358 26.2645C85.2106 26.1386 85.0339 25.9618 84.9031 25.7343C84.7724 25.5091 84.7095 25.2525 84.7095 24.9644C84.7095 24.6763 84.7748 24.4197 84.9056 24.1921Z" fill="white"/>
<path d="M89.4037 23.5078V26.4275H88.8179V23.5078H89.4037Z" fill="white"/>
<path d="M91.3379 26.2649C91.1079 26.1366 90.9288 25.9598 90.7932 25.7323C90.6601 25.5047 90.5923 25.2481 90.5923 24.96C90.5923 24.6743 90.6601 24.4201 90.7932 24.1926C90.9264 23.965 91.1079 23.7883 91.3379 23.6599C91.5679 23.5316 91.8173 23.4663 92.0908 23.4663C92.3668 23.4663 92.6186 23.5316 92.8462 23.6599C93.0737 23.7883 93.2529 23.965 93.386 24.1926C93.5168 24.4201 93.5846 24.6767 93.5846 24.96C93.5846 25.2481 93.5192 25.5047 93.386 25.7323C93.2529 25.9598 93.0737 26.1366 92.8438 26.2649C92.6138 26.3932 92.3644 26.4561 92.0908 26.4561C91.8173 26.4561 91.5655 26.3932 91.3379 26.2649ZM92.5532 25.8146C92.6864 25.7347 92.7905 25.6209 92.8655 25.4732C92.9406 25.3255 92.9793 25.1537 92.9793 24.9576C92.9793 24.7615 92.9406 24.592 92.8655 24.4443C92.7905 24.2967 92.6864 24.1853 92.5532 24.1078C92.4201 24.0304 92.2651 23.9916 92.0884 23.9916C91.9117 23.9916 91.7568 24.0304 91.6212 24.1078C91.4856 24.1853 91.3815 24.2991 91.3065 24.4443C91.2314 24.592 91.1927 24.7615 91.1927 24.9576C91.1927 25.1537 91.2314 25.3255 91.3065 25.4732C91.3815 25.6209 91.4856 25.7347 91.6212 25.8146C91.7568 25.8945 91.9117 25.9332 92.0884 25.9332C92.2651 25.9332 92.4201 25.8945 92.5532 25.8146ZM92.546 22.9022L91.5849 23.3404V22.9216L92.546 22.4229V22.9022Z" fill="white"/>
<path d="M97.2694 26.4274H96.6835L95.3569 24.4229V26.4274H94.771V23.5029H95.3569L96.6835 25.5099V23.5029H97.2694V26.4274Z" fill="white"/>
<path d="M102.138 25.8706H100.976L100.782 26.4274H100.167L101.218 23.5029H101.9L102.951 26.4274H102.331L102.138 25.8706ZM101.98 25.4034L101.557 24.1808L101.133 25.4034H101.98Z" fill="white"/>
<path d="M106.592 26.4274H106.006L104.68 24.4229V26.4274H104.094V23.5029H104.68L106.006 25.5099V23.5029H106.592V26.4274Z" fill="white"/>
<path d="M107.977 24.1921C108.108 23.9646 108.285 23.7878 108.51 23.662C108.735 23.5361 108.984 23.4707 109.265 23.4707C109.592 23.4707 109.878 23.5554 110.122 23.7225C110.367 23.8895 110.539 24.1219 110.636 24.4173H109.962C109.897 24.2793 109.8 24.1728 109.682 24.1026C109.561 24.0324 109.42 23.9985 109.26 23.9985C109.091 23.9985 108.938 24.0372 108.805 24.1171C108.672 24.197 108.57 24.3083 108.495 24.4536C108.42 24.5989 108.384 24.7683 108.384 24.9644C108.384 25.1581 108.42 25.3251 108.495 25.4728C108.57 25.6205 108.672 25.7318 108.805 25.8117C108.938 25.8916 109.089 25.9304 109.26 25.9304C109.42 25.9304 109.561 25.894 109.682 25.8238C109.803 25.7536 109.897 25.6471 109.962 25.5091H110.636C110.539 25.8069 110.367 26.0393 110.122 26.2064C109.878 26.3734 109.592 26.4557 109.263 26.4557C108.984 26.4557 108.733 26.3928 108.508 26.2645C108.282 26.1386 108.106 25.9618 107.975 25.7343C107.844 25.5091 107.781 25.2525 107.781 24.9644C107.781 24.6763 107.847 24.4197 107.977 24.1921Z" fill="white"/>
<path d="M112.475 23.9799V24.711H113.458V25.1758H112.475V25.9505H113.584V26.4274H111.889V23.5029H113.584V23.9799H112.475Z" fill="white"/>
<path d="M115.325 26.3521C115.162 26.2819 115.032 26.1826 114.937 26.0519C114.843 25.9212 114.794 25.7662 114.792 25.5871H115.419C115.426 25.7081 115.47 25.8025 115.547 25.8727C115.625 25.9429 115.729 25.9768 115.864 25.9768C116 25.9768 116.109 25.9429 116.186 25.8776C116.264 25.8122 116.303 25.7251 116.303 25.621C116.303 25.5338 116.276 25.4636 116.223 25.4079C116.17 25.3522 116.104 25.3087 116.024 25.2772C115.944 25.2457 115.835 25.2094 115.695 25.1707C115.506 25.115 115.351 25.0593 115.233 25.006C115.114 24.9504 115.012 24.868 114.928 24.7591C114.843 24.6477 114.799 24.5025 114.799 24.3185C114.799 24.1466 114.843 23.9941 114.93 23.8658C115.017 23.7375 115.138 23.6382 115.293 23.5704C115.448 23.5026 115.627 23.4688 115.828 23.4688C116.128 23.4688 116.375 23.5414 116.562 23.6891C116.751 23.8367 116.855 24.0401 116.874 24.3015H116.23C116.225 24.2023 116.182 24.1176 116.102 24.0522C116.022 23.9868 115.918 23.9529 115.787 23.9529C115.673 23.9529 115.581 23.982 115.513 24.0401C115.446 24.0982 115.412 24.1829 115.412 24.2943C115.412 24.3718 115.438 24.4371 115.489 24.488C115.54 24.5388 115.605 24.5824 115.683 24.6138C115.76 24.6453 115.867 24.6841 116.007 24.7252C116.196 24.7809 116.351 24.8366 116.472 24.8923C116.591 24.9479 116.695 25.0327 116.782 25.144C116.869 25.2554 116.913 25.4031 116.913 25.5822C116.913 25.7372 116.872 25.8824 116.792 26.018C116.709 26.1511 116.593 26.2577 116.436 26.3376C116.281 26.4174 116.094 26.4562 115.879 26.4562C115.673 26.4562 115.489 26.4223 115.325 26.3521Z" fill="white"/>
<path d="M120.154 23.5078V23.9799H119.377V26.4275H118.791V23.9799H118.012V23.5078H120.154Z" fill="white"/>
<path d="M122.842 26.4275L122.198 25.2896H121.922V26.4275H121.336V23.5078H122.433C122.658 23.5078 122.851 23.549 123.009 23.6264C123.169 23.7063 123.287 23.8128 123.367 23.9484C123.447 24.084 123.486 24.2341 123.486 24.4011C123.486 24.5948 123.43 24.7667 123.319 24.9216C123.207 25.0766 123.04 25.1831 122.82 25.2412L123.52 26.425H122.842V26.4275ZM121.922 24.8514H122.411C122.571 24.8514 122.689 24.8127 122.767 24.7376C122.844 24.6602 122.883 24.5537 122.883 24.4181C122.883 24.2849 122.844 24.1808 122.767 24.1058C122.689 24.0331 122.571 23.9944 122.411 23.9944H121.922V24.8514Z" fill="white"/>
<path d="M126.56 25.8706H125.398L125.204 26.4274H124.589L125.64 23.5029H126.323L127.373 26.4274H126.754L126.56 25.8706ZM126.403 25.4034L125.979 24.1808L125.555 25.4034H126.403Z" fill="white"/>
<path d="M129.104 25.9646H130.068V26.4294H128.521V23.5098H129.107V25.9646H129.104Z" fill="white"/>
<path d="M57.9702 17.5879V16.7971L59.1422 16.4899L58.9658 16.7175V9.481L59.1934 9.81097L57.9702 9.50375V8.71298L60.5018 8.65039H64.3021L64.3135 10.8634H63.3748L63.1473 9.60616L63.4374 9.78252H60.2686L60.5246 9.52651V12.7693L60.2686 12.5417H63.335V13.6738H60.2686L60.5246 13.4178V16.7118L60.3198 16.4842L61.7591 16.7914V17.5822H57.9702V17.5879Z" fill="white"/>
<path d="M70.1278 17.7246C69.3484 17.7246 68.6657 17.5539 68.0797 17.2183C67.4938 16.8769 67.0386 16.3763 66.7144 15.705C66.3901 15.0337 66.2251 14.2088 66.2251 13.2246C66.2251 12.4452 66.3275 11.7625 66.5323 11.1708C66.7371 10.5791 67.0216 10.0899 67.397 9.69734C67.7725 9.3048 68.2106 9.00897 68.7112 8.81554C69.2175 8.62211 69.7751 8.52539 70.3838 8.52539C70.9755 8.52539 71.5159 8.6221 72.0052 8.80984C72.4944 9.00327 72.9097 9.28203 73.2625 9.65751C73.6152 10.033 73.8883 10.4938 74.0874 11.0456C74.2865 11.5975 74.3889 12.2347 74.3889 12.9686C74.3889 13.9698 74.2068 14.8232 73.8484 15.5286C73.49 16.2398 72.9894 16.7802 72.3522 17.1614C71.7207 17.5368 70.9812 17.7246 70.1278 17.7246ZM70.2473 16.5185C70.7024 16.5185 71.1177 16.4047 71.4875 16.1772C71.8573 15.9496 72.1531 15.5798 72.375 15.0735C72.5968 14.5672 72.7106 13.8845 72.7106 13.0368C72.7106 12.246 72.6082 11.6089 72.3977 11.1196C72.1872 10.6303 71.9085 10.2776 71.5501 10.0557C71.1917 9.83387 70.7763 9.72579 70.3041 9.72579C69.8547 9.72579 69.4451 9.83387 69.0753 10.0557C68.7055 10.2776 68.4211 10.6417 68.2106 11.1424C68.0001 11.6487 67.8977 12.3257 67.8977 13.1733C67.8977 13.9641 67.9944 14.6013 68.1878 15.0963C68.3813 15.5912 68.6543 15.9496 69.0071 16.1772C69.3712 16.4047 69.7808 16.5185 70.2473 16.5185Z" fill="white"/>
<path d="M76.7562 17.5879V16.7971L77.9623 16.4785L77.7461 16.7971V9.481L78.0362 9.82234L76.7505 9.50375V8.71298L79.3731 8.65039H80.6987C81.6886 8.65039 82.4395 8.8552 82.9516 9.27619C83.4579 9.69149 83.7139 10.2888 83.7139 11.0682C83.7139 11.7794 83.4977 12.3654 83.0597 12.8262C82.6216 13.2813 81.9446 13.5601 81.0287 13.6511V13.4747C81.3586 13.4918 81.6317 13.5487 81.8422 13.6511C82.0527 13.7535 82.2291 13.89 82.3713 14.0664C82.5135 14.2427 82.6444 14.4475 82.7695 14.6979L83.7992 16.7232L83.3555 16.4444L84.4876 16.8028V17.5936H82.5761L81.4212 15.1245C81.2676 14.7832 81.1311 14.5272 81.0059 14.3451C80.8807 14.1631 80.7328 14.0379 80.5451 13.964C80.363 13.89 80.107 13.8616 79.7771 13.8673H79.0375L79.3049 13.6397V16.8085L79.0887 16.4899L80.437 16.8085V17.5993H76.7562V17.5879ZM79.3163 13.1618L79.0489 12.7693H80.1525C80.7954 12.7693 81.2847 12.6384 81.6203 12.371C81.956 12.1037 82.121 11.7111 82.121 11.1934C82.121 10.744 81.9901 10.3969 81.7227 10.1523C81.4553 9.90768 81.0457 9.78252 80.4939 9.78252H79.0432L79.3106 9.54357V13.1618H79.3163Z" fill="white"/>
<path d="M92.1219 15.2952H93.0492L93.0378 17.5822H86.4727V16.7914L87.6787 16.4729L87.4625 16.7914V9.4753L87.6787 9.7939L86.4727 9.50375V8.71298L89.0043 8.65039H92.8956V10.8521H91.9569L91.7123 9.55496L92.0195 9.78252H88.7767L89.0327 9.52651V12.7294L88.7767 12.4734H91.9171V13.5657H88.7767L89.0327 13.287V16.6947L88.7767 16.4387H92.1731L91.8659 16.6947L92.1219 15.2952Z" fill="white"/>
<path d="M98.2546 17.5994L95.5352 9.52098L95.905 9.79974L94.7217 9.50961V8.71882L98.3627 8.65625V9.44702L97.0656 9.77699L97.2533 9.39583L99.3241 16.2284H99.0966L101.349 9.48684L101.475 9.79406L100.251 9.51529V8.72452L103.574 8.66193V9.45272L102.402 9.7713L102.772 9.49254L99.9101 17.6051H98.2546V17.5994Z" fill="white"/>
<path d="M110.816 15.2952H111.744L111.732 17.5822H105.167V16.7914L106.373 16.4729L106.157 16.7914V9.4753L106.373 9.7939L105.167 9.50375V8.71298L107.699 8.65039H111.59V10.8521H110.651L110.407 9.55496L110.714 9.78252H107.471L107.727 9.52651V12.7294L107.471 12.4734H110.611V13.5657H107.471L107.727 13.287V16.6947L107.471 16.4387H110.867L110.56 16.6947L110.816 15.2952Z" fill="white"/>
<path d="M114.241 17.5879V16.7971L115.447 16.4785L115.231 16.7971V9.481L115.521 9.82234L114.235 9.50375V8.71298L116.858 8.65039H118.184C119.173 8.65039 119.924 8.8552 120.436 9.27619C120.943 9.69149 121.199 10.2888 121.199 11.0682C121.199 11.7794 120.983 12.3654 120.545 12.8262C120.106 13.2813 119.429 13.5601 118.514 13.6511V13.4747C118.843 13.4918 119.117 13.5487 119.327 13.6511C119.538 13.7535 119.714 13.89 119.856 14.0664C119.998 14.2427 120.129 14.4475 120.254 14.6979L121.284 16.7232L120.84 16.4444L121.972 16.8028V17.5936H120.061L118.906 15.1245C118.752 14.7832 118.616 14.5272 118.491 14.3451C118.366 14.1631 118.218 14.0379 118.03 13.964C117.848 13.89 117.592 13.8616 117.262 13.8673H116.522L116.79 13.6397V16.8085L116.574 16.4899L117.922 16.8085V17.5993H114.241V17.5879ZM116.795 13.1618L116.528 12.7693H117.637C118.28 12.7693 118.77 12.6384 119.105 12.371C119.441 12.1037 119.606 11.7111 119.606 11.1934C119.606 10.744 119.475 10.3969 119.208 10.1523C118.94 9.90768 118.531 9.78252 117.979 9.78252H116.528L116.795 9.54357V13.1618Z" fill="white"/>
<path d="M131.553 8.65609C132.156 8.65609 132.702 8.74711 133.197 8.92347C133.692 9.09983 134.118 9.3729 134.477 9.73131C134.835 10.0897 135.108 10.5392 135.302 11.0796C135.495 11.6201 135.592 12.2459 135.592 12.9684C135.592 13.9754 135.41 14.823 135.051 15.5057C134.693 16.1884 134.187 16.7061 133.544 17.0588C132.901 17.4115 132.15 17.5879 131.291 17.5879H127.604V16.7971L128.828 16.4785L128.6 16.7971V9.481L128.839 9.81097L127.604 9.50375V8.71298L130.324 8.65039H131.553V8.65609ZM131.376 16.4558C131.689 16.4558 131.996 16.4046 132.292 16.3079C132.588 16.2111 132.861 16.0405 133.106 15.8015C133.35 15.5626 133.55 15.2213 133.697 14.7775C133.845 14.3338 133.919 13.7705 133.919 13.0708C133.919 12.3938 133.851 11.8363 133.709 11.4096C133.567 10.9829 133.385 10.6529 133.151 10.4197C132.918 10.1864 132.662 10.0215 132.378 9.93043C132.093 9.8394 131.803 9.7882 131.507 9.7882H129.92L130.176 9.53219V16.7061L129.92 16.4501H131.376V16.4558Z" fill="white"/>
<path d="M141.97 17.7246C141.19 17.7246 140.508 17.5539 139.922 17.2183C139.336 16.8769 138.88 16.3763 138.556 15.705C138.232 15.0337 138.067 14.2088 138.067 13.2246C138.067 12.4452 138.169 11.7625 138.374 11.1708C138.579 10.5791 138.863 10.0899 139.239 9.69734C139.614 9.3048 140.052 9.00897 140.553 8.81554C141.054 8.62211 141.617 8.52539 142.226 8.52539C142.817 8.52539 143.358 8.6221 143.847 8.80984C144.336 9.00327 144.752 9.28203 145.104 9.65751C145.457 10.033 145.73 10.4938 145.929 11.0456C146.128 11.5975 146.231 12.2347 146.231 12.9686C146.231 13.9698 146.049 14.8232 145.69 15.5286C145.332 16.2398 144.831 16.7802 144.194 17.1614C143.557 17.5368 142.817 17.7246 141.97 17.7246ZM142.083 16.5185C142.538 16.5185 142.954 16.4047 143.324 16.1772C143.693 15.9496 143.989 15.5798 144.211 15.0735C144.433 14.5672 144.547 13.8845 144.547 13.0368C144.547 12.246 144.444 11.6089 144.234 11.1196C144.023 10.6303 143.745 10.2776 143.386 10.0557C143.028 9.83387 142.612 9.72579 142.14 9.72579C141.691 9.72579 141.281 9.83387 140.911 10.0557C140.542 10.2776 140.257 10.6417 140.047 11.1424C139.836 11.6487 139.734 12.3257 139.734 13.1733C139.734 13.9641 139.83 14.6013 140.024 15.0963C140.217 15.5912 140.49 15.9496 140.843 16.1772C141.207 16.4047 141.617 16.5185 142.083 16.5185Z" fill="white"/>
<path d="M152.83 17.7243C151.999 17.7243 151.271 17.5536 150.651 17.2066C150.031 16.8595 149.547 16.3532 149.206 15.6819C148.87 15.0049 148.7 14.1743 148.7 13.1844C148.7 12.2002 148.87 11.3639 149.212 10.6641C149.553 9.97007 150.048 9.4353 150.685 9.06551C151.322 8.69572 152.09 8.51367 152.984 8.51367C153.467 8.51367 153.968 8.57056 154.491 8.67865C155.015 8.78674 155.538 8.95172 156.073 9.17359L155.959 11.3639H155.02L154.753 9.8506L154.992 10.0782C154.668 9.97007 154.343 9.87905 154.013 9.81078C153.683 9.74251 153.376 9.70837 153.086 9.70837C152.517 9.70837 152.033 9.83922 151.63 10.1009C151.226 10.3626 150.918 10.7495 150.702 11.2672C150.486 11.7792 150.378 12.4107 150.378 13.1559C150.378 14.2141 150.606 15.039 151.061 15.6307C151.516 16.2223 152.164 16.5125 153.012 16.5125C153.285 16.5125 153.564 16.4784 153.86 16.4158C154.15 16.3532 154.457 16.2679 154.77 16.1541L154.582 16.484V13.9524L154.838 14.2312L153.592 14.015V13.2015L157 13.1389V13.9638L155.868 14.2312L156.033 13.9524V17.0188C155.458 17.2464 154.901 17.4227 154.36 17.5422C153.814 17.6674 153.302 17.7243 152.83 17.7243Z" fill="white"/>
</svg>
