<svg width="497" height="293" viewBox="0 0 497 293" fill="none" xmlns="http://www.w3.org/2000/svg">
<path d="M60.8527 289.694H54.3257L53.2426 292.829H49.7939L55.6938 276.384H59.5131L65.413 292.829H61.9357L60.8527 289.694ZM59.9691 287.043L57.6034 280.174L55.2378 287.043H59.9691Z" fill="white"/>
<path d="M75.1596 290.207H80.5749V292.829H71.8818V276.384H75.1596V290.207Z" fill="white"/>
<path d="M90.1815 276.384V292.801H86.9038V276.384H90.1815Z" fill="white"/>
<path d="M115.576 276.384V292.801H112.298V282.112L107.909 292.801H105.401L100.983 282.112V292.801H97.7051V276.384H101.439L106.655 288.582L111.871 276.384H115.576Z" fill="white"/>
<path d="M126.349 279.063V283.167H131.878V285.789H126.349V290.15H132.591V292.829H123.071V276.384H132.591V279.063H126.349Z" fill="white"/>
<path d="M153.855 292.801H150.548L143.081 281.542V292.801H139.803V276.355H143.081L150.548 287.642V276.355H153.855V292.801Z" fill="white"/>
<path d="M172.495 276.384V279.034H168.134V292.801H164.857V279.034H160.467V276.384H172.495Z" fill="white"/>
<path d="M189.197 289.694H182.67L181.587 292.829H178.139L184.039 276.384H187.858L193.758 292.829H190.28L189.197 289.694ZM188.314 287.043L185.948 280.174L183.582 287.043H188.314Z" fill="white"/>
<path d="M200.512 280.231C201.253 278.949 202.251 277.951 203.505 277.239C204.759 276.526 206.184 276.156 207.751 276.156C209.576 276.156 211.2 276.64 212.568 277.581C213.936 278.521 214.905 279.832 215.447 281.485H211.656C211.286 280.716 210.744 280.117 210.06 279.718C209.376 279.319 208.578 279.12 207.694 279.12C206.725 279.12 205.899 279.348 205.129 279.775C204.388 280.231 203.818 280.858 203.391 281.657C202.963 282.483 202.764 283.424 202.764 284.535C202.764 285.618 202.963 286.559 203.391 287.385C203.818 288.212 204.388 288.839 205.129 289.295C205.87 289.751 206.725 289.979 207.694 289.979C208.578 289.979 209.376 289.78 210.06 289.381C210.744 288.982 211.257 288.383 211.656 287.613H215.447C214.905 289.295 213.936 290.606 212.568 291.518C211.2 292.459 209.576 292.915 207.723 292.915C206.155 292.915 204.73 292.573 203.476 291.832C202.222 291.119 201.225 290.122 200.483 288.867C199.742 287.613 199.4 286.16 199.4 284.535C199.429 282.968 199.771 281.514 200.512 280.231Z" fill="white"/>
<path d="M225.792 276.384V292.801H222.515V276.384H225.792Z" fill="white"/>
<path d="M236.681 291.889C235.399 291.176 234.373 290.179 233.632 288.896C232.891 287.613 232.492 286.16 232.492 284.564C232.492 282.968 232.862 281.514 233.632 280.26C234.373 278.977 235.399 277.98 236.681 277.267C237.964 276.555 239.389 276.184 240.928 276.184C242.467 276.184 243.892 276.555 245.175 277.267C246.458 277.98 247.455 278.977 248.225 280.26C248.966 281.543 249.336 282.968 249.336 284.564C249.336 286.188 248.966 287.613 248.225 288.896C247.484 290.179 246.458 291.176 245.175 291.889C243.892 292.601 242.467 292.972 240.928 292.972C239.389 292.972 237.964 292.63 236.681 291.889ZM243.522 289.352C244.263 288.896 244.862 288.269 245.289 287.442C245.717 286.616 245.916 285.647 245.916 284.564C245.916 283.481 245.717 282.512 245.289 281.685C244.862 280.858 244.291 280.231 243.522 279.804C242.781 279.376 241.897 279.148 240.9 279.148C239.902 279.148 239.047 279.376 238.278 279.804C237.508 280.231 236.938 280.887 236.51 281.685C236.083 282.483 235.883 283.481 235.883 284.564C235.883 285.647 236.083 286.616 236.51 287.442C236.938 288.269 237.537 288.925 238.278 289.352C239.047 289.808 239.902 290.008 240.9 290.008C241.897 290.036 242.781 289.808 243.522 289.352ZM243.465 272.992L238.05 275.472V273.106L243.465 270.313V272.992Z" fill="white"/>
<path d="M270.028 292.801H266.751L259.283 281.542V292.801H256.005V276.355H259.283L266.751 287.642V276.355H270.057V292.801H270.028Z" fill="white"/>
<path d="M297.417 289.694H290.89L289.807 292.829H286.358L292.258 276.384H296.078L301.978 292.829H298.5L297.417 289.694ZM296.505 287.043L294.14 280.174L291.774 287.043H296.505Z" fill="white"/>
<path d="M322.472 292.801H319.166L311.699 281.542V292.801H308.421V276.355H311.699L319.166 287.642V276.355H322.472V292.801Z" fill="white"/>
<path d="M330.252 280.231C330.993 278.949 331.99 277.951 333.244 277.239C334.498 276.526 335.924 276.156 337.491 276.156C339.315 276.156 340.94 276.64 342.308 277.581C343.676 278.521 344.645 279.832 345.187 281.485H341.396C341.025 280.716 340.484 280.117 339.8 279.718C339.116 279.319 338.318 279.12 337.434 279.12C336.465 279.12 335.639 279.348 334.869 279.775C334.128 280.231 333.558 280.858 333.13 281.657C332.703 282.483 332.503 283.424 332.503 284.535C332.503 285.618 332.703 286.559 333.13 287.385C333.558 288.212 334.128 288.839 334.869 289.295C335.61 289.751 336.465 289.979 337.434 289.979C338.318 289.979 339.116 289.78 339.8 289.381C340.484 288.982 340.997 288.383 341.396 287.613H345.187C344.645 289.295 343.676 290.606 342.308 291.518C340.94 292.459 339.315 292.915 337.463 292.915C335.895 292.915 334.47 292.573 333.216 291.832C331.962 291.119 330.964 290.122 330.223 288.867C329.482 287.613 329.14 286.16 329.14 284.535C329.14 282.968 329.511 281.514 330.252 280.231Z" fill="white"/>
<path d="M355.535 279.063V283.167H361.064V285.789H355.535V290.15H361.776V292.829H352.257V276.384H361.776V279.063H355.535Z" fill="white"/>
<path d="M371.58 292.402C370.668 292.003 369.927 291.432 369.414 290.72C368.873 289.979 368.616 289.124 368.587 288.098H372.122C372.179 288.782 372.407 289.295 372.834 289.694C373.262 290.093 373.86 290.292 374.601 290.292C375.371 290.292 375.969 290.093 376.425 289.751C376.853 289.38 377.081 288.896 377.081 288.297C377.081 287.813 376.939 287.414 376.625 287.1C376.34 286.787 375.969 286.53 375.513 286.359C375.057 286.188 374.459 285.989 373.661 285.761C372.606 285.447 371.723 285.134 371.067 284.82C370.412 284.507 369.813 284.051 369.357 283.424C368.872 282.797 368.644 281.97 368.644 280.944C368.644 279.975 368.901 279.12 369.386 278.407C369.87 277.695 370.554 277.125 371.438 276.754C372.321 276.383 373.319 276.184 374.459 276.184C376.14 276.184 377.537 276.583 378.592 277.41C379.646 278.236 380.245 279.376 380.33 280.858H376.71C376.682 280.288 376.454 279.832 375.998 279.462C375.542 279.091 374.972 278.92 374.231 278.92C373.575 278.92 373.062 279.091 372.692 279.405C372.321 279.718 372.122 280.203 372.122 280.83C372.122 281.257 372.264 281.628 372.549 281.913C372.834 282.198 373.205 282.426 373.632 282.625C374.06 282.796 374.658 283.025 375.456 283.253C376.511 283.566 377.395 283.88 378.079 284.193C378.763 284.507 379.333 284.991 379.817 285.618C380.302 286.245 380.558 287.072 380.558 288.098C380.558 288.981 380.33 289.779 379.874 290.549C379.418 291.29 378.763 291.889 377.879 292.345C376.995 292.801 375.969 293 374.744 293C373.518 292.972 372.492 292.772 371.58 292.402Z" fill="white"/>
<path d="M398.715 276.384V279.034H394.354V292.801H391.076V279.034H386.687V276.384H398.715Z" fill="white"/>
<path d="M413.819 292.801L410.2 286.416H408.661V292.801H405.383V276.384H411.539C412.822 276.384 413.876 276.612 414.788 277.068C415.672 277.524 416.356 278.122 416.812 278.892C417.268 279.661 417.468 280.516 417.468 281.457C417.468 282.54 417.154 283.509 416.527 284.393C415.9 285.276 414.96 285.875 413.734 286.188L417.667 292.858H413.819V292.801ZM408.661 283.937H411.425C412.309 283.937 412.993 283.709 413.42 283.281C413.848 282.854 414.076 282.255 414.076 281.485C414.076 280.744 413.848 280.146 413.42 279.747C412.993 279.319 412.309 279.12 411.425 279.12H408.661V283.937Z" fill="white"/>
<path d="M434.741 289.694H428.214L427.131 292.829H423.682L429.582 276.384H433.401L439.301 292.829H435.824L434.741 289.694ZM433.857 287.043L431.492 280.174L429.126 287.043H433.857Z" fill="white"/>
<path d="M449.047 290.207H454.463V292.829H445.741V276.384H449.019V290.207H449.047Z" fill="white"/>
<path d="M30.4232 288.056C32.6629 287.128 33.7264 284.56 32.7987 282.321C31.871 280.081 29.3033 279.017 27.0636 279.945C24.8239 280.873 23.7604 283.441 24.6881 285.68C25.6158 287.92 28.1835 288.983 30.4232 288.056Z" fill="white"/>
<path d="M477.258 288.054C479.497 287.126 480.561 284.558 479.633 282.319C478.705 280.079 476.138 279.015 473.898 279.943C471.658 280.871 470.595 283.439 471.523 285.678C472.45 287.918 475.018 288.981 477.258 288.054Z" fill="white"/>
<path d="M208.747 90.522C208.091 88.7834 207.493 87.4724 207.493 87.4724C207.493 87.4724 208.006 88.8689 208.747 90.522Z" fill="white"/>
<path d="M0 247.539V243.577L5.87136 242.038L4.98784 243.178V206.924L6.12791 208.577L0 207.038V203.076L12.6834 202.762H31.7226L31.7796 213.85H27.0768L25.9368 207.551L27.3903 208.434H11.5148L12.7973 207.152V223.398L11.5148 222.258H26.8773V227.93H11.5148L12.7973 226.647V243.15L11.7712 242.01L18.9822 243.549V247.511H0V247.539Z" fill="white"/>
<path d="M60.9078 248.223C57.0031 248.223 53.5828 247.368 50.6471 245.687C47.7114 243.976 45.4313 241.468 43.8067 238.105C42.1821 234.742 41.3555 230.609 41.3555 225.678C41.3555 221.773 41.8685 218.353 42.8946 215.389C43.9207 212.425 45.3458 209.974 47.2269 208.007C49.108 206.04 51.3026 204.558 53.8108 203.589C56.3475 202.62 59.1407 202.136 62.1904 202.136C65.1546 202.136 67.8623 202.62 70.3135 203.561C72.7646 204.53 74.8452 205.926 76.6123 207.807C78.3795 209.689 79.7476 211.997 80.7451 214.762C81.7427 217.527 82.2557 220.719 82.2557 224.396C82.2557 229.412 81.3437 233.687 79.5481 237.222C77.7524 240.784 75.2442 243.492 72.052 245.401C68.8883 247.283 65.1831 248.223 60.9078 248.223ZM61.5063 242.181C63.7865 242.181 65.8671 241.611 67.7198 240.471C69.5724 239.331 71.0545 237.478 72.1661 234.941C73.2777 232.405 73.8477 228.984 73.8477 224.738C73.8477 220.776 73.3346 217.584 72.2801 215.133C71.2255 212.681 69.8289 210.914 68.0333 209.803C66.2377 208.691 64.157 208.15 61.7913 208.15C59.5397 208.15 57.4876 208.691 55.635 209.803C53.7823 210.914 52.3573 212.738 51.3027 215.247C50.2481 217.783 49.7351 221.175 49.7351 225.422C49.7351 229.383 50.2196 232.576 51.1886 235.055C52.1577 237.535 53.5258 239.331 55.293 240.471C57.1171 241.611 59.1692 242.181 61.5063 242.181Z" fill="white"/>
<path d="M94.113 247.539V243.577L100.155 241.981L99.0723 243.577V206.924L100.526 208.634L94.0845 207.038V203.076L107.224 202.762H113.865C118.824 202.762 122.586 203.789 125.152 205.898C127.688 207.978 128.971 210.971 128.971 214.876C128.971 218.439 127.888 221.374 125.693 223.683C123.499 225.963 120.107 227.36 115.518 227.816V226.932C117.171 227.018 118.539 227.303 119.594 227.816C120.648 228.329 121.532 229.013 122.244 229.896C122.957 230.78 123.612 231.806 124.24 233.06L129.398 243.207L127.175 241.81L132.847 243.606V247.567H123.27L117.485 235.198C116.715 233.488 116.031 232.205 115.404 231.293C114.777 230.381 114.036 229.754 113.095 229.383C112.183 229.013 110.901 228.87 109.247 228.899H105.542L106.882 227.759V243.634L105.799 242.038L112.554 243.634V247.596H94.113V247.539ZM106.939 225.364L105.599 223.398H111.129C114.349 223.398 116.801 222.742 118.482 221.403C120.164 220.063 120.99 218.096 120.99 215.503C120.99 213.251 120.335 211.513 118.995 210.287C117.656 209.061 115.603 208.434 112.839 208.434H105.571L106.91 207.237V225.364H106.939Z" fill="white"/>
<path d="M171.097 236.053H175.743L175.686 247.511H142.794V243.549L148.837 241.953L147.754 243.549V206.895L148.837 208.491L142.794 207.038V203.076L155.478 202.762H174.973V213.793H170.27L169.045 207.294L170.584 208.434H154.338L155.62 207.152V223.198L154.338 221.916H170.071V227.388H154.338L155.62 225.992V243.064L154.338 241.782H171.353L169.814 243.064L171.097 236.053Z" fill="white"/>
<path d="M201.821 247.596L188.197 207.123L190.05 208.52L184.122 207.066V203.104L202.363 202.791V206.753L195.864 208.406L196.805 206.496L207.18 240.727H206.04L217.326 206.952L217.953 208.491L211.825 207.095V203.133L228.471 202.819V206.781L222.599 208.377L224.452 206.981L210.115 247.625H201.821V247.596Z" fill="white"/>
<path d="M264.754 236.053H269.399L269.342 247.511H236.451V243.549L242.494 241.953L241.411 243.549V206.895L242.494 208.491L236.451 207.038V203.076L249.135 202.762H268.63V213.793H263.927L262.701 207.294L264.241 208.434H247.994L249.277 207.152V223.198L247.994 221.916H263.728V227.388H247.994L249.277 225.992V243.064L247.994 241.782H265.01L263.471 243.064L264.754 236.053Z" fill="white"/>
<path d="M281.913 247.539V243.577L287.955 241.981L286.872 243.577V206.924L288.326 208.634L281.884 207.038V203.076L295.024 202.762H301.665C306.624 202.762 310.386 203.789 312.951 205.898C315.488 207.978 316.771 210.971 316.771 214.876C316.771 218.439 315.688 221.374 313.493 223.683C311.298 225.963 307.906 227.36 303.318 227.816V226.932C304.971 227.018 306.339 227.303 307.393 227.816C308.448 228.329 309.332 229.013 310.044 229.896C310.757 230.78 311.412 231.806 312.039 233.06L317.198 243.207L314.975 241.81L320.647 243.606V247.567H311.07L305.284 235.198C304.515 233.488 303.831 232.205 303.204 231.293C302.577 230.381 301.836 229.754 300.895 229.383C299.983 229.013 298.7 228.87 297.047 228.899H293.342L294.682 227.759V243.634L293.599 242.038L300.353 243.634V247.596H281.913V247.539ZM294.71 225.364L293.37 223.398H298.928C302.149 223.398 304.6 222.742 306.282 221.403C307.964 220.063 308.79 218.096 308.79 215.503C308.79 213.251 308.135 211.513 306.795 210.287C305.455 209.061 303.403 208.434 300.638 208.434H293.37L294.71 207.237V225.364Z" fill="white"/>
<path d="M368.643 202.791C371.664 202.791 374.4 203.247 376.88 204.131C379.359 205.014 381.497 206.382 383.293 208.178C385.088 209.973 386.456 212.225 387.425 214.933C388.394 217.64 388.879 220.776 388.879 224.395C388.879 229.44 387.967 233.687 386.171 237.107C384.376 240.528 381.839 243.121 378.618 244.888C375.398 246.655 371.635 247.539 367.332 247.539H348.862V243.577L354.99 241.981L353.85 243.577V206.924L355.047 208.577L348.862 207.038V203.076L362.486 202.762H368.643V202.791ZM367.759 241.867C369.327 241.867 370.866 241.611 372.348 241.126C373.83 240.641 375.198 239.786 376.424 238.589C377.649 237.392 378.647 235.682 379.388 233.459C380.129 231.236 380.499 228.414 380.499 224.908C380.499 221.517 380.157 218.724 379.445 216.586C378.732 214.448 377.82 212.795 376.652 211.627C375.483 210.458 374.2 209.631 372.775 209.175C371.35 208.719 369.897 208.463 368.415 208.463H360.463L361.745 207.18V243.121L360.463 241.839H367.759V241.867Z" fill="white"/>
<path d="M420.83 248.223C416.925 248.223 413.505 247.368 410.569 245.687C407.634 243.976 405.354 241.468 403.729 238.105C402.104 234.742 401.278 230.609 401.278 225.678C401.278 221.773 401.791 218.353 402.817 215.389C403.843 212.425 405.268 209.974 407.149 208.007C409.03 206.04 411.225 204.558 413.733 203.589C416.241 202.62 419.063 202.136 422.113 202.136C425.077 202.136 427.785 202.62 430.236 203.561C432.687 204.53 434.768 205.926 436.535 207.807C438.302 209.689 439.67 211.997 440.668 214.762C441.665 217.527 442.178 220.719 442.178 224.396C442.178 229.412 441.266 233.687 439.47 237.222C437.675 240.784 435.167 243.492 431.974 245.401C428.782 247.283 425.077 248.223 420.83 248.223ZM421.4 242.181C423.68 242.181 425.761 241.611 427.614 240.471C429.466 239.331 430.948 237.478 432.06 234.941C433.171 232.405 433.742 228.984 433.742 224.738C433.742 220.776 433.228 217.584 432.174 215.133C431.119 212.681 429.723 210.914 427.927 209.803C426.132 208.691 424.051 208.15 421.685 208.15C419.434 208.15 417.381 208.691 415.529 209.803C413.676 210.914 412.251 212.738 411.196 215.247C410.142 217.783 409.629 221.175 409.629 225.422C409.629 229.383 410.113 232.576 411.082 235.055C412.052 237.535 413.42 239.331 415.187 240.471C417.011 241.611 419.063 242.181 421.4 242.181Z" fill="white"/>
<path d="M475.241 248.223C471.08 248.223 467.432 247.368 464.325 245.629C461.218 243.891 458.796 241.354 457.085 237.991C455.404 234.599 454.549 230.438 454.549 225.479C454.549 220.548 455.404 216.358 457.114 212.852C458.824 209.375 461.304 206.696 464.496 204.843C467.688 202.991 471.536 202.078 476.011 202.078C478.434 202.078 480.942 202.363 483.564 202.905C486.186 203.447 488.808 204.273 491.487 205.385L490.917 216.358H486.214L484.875 208.776L486.072 209.917C484.447 209.375 482.823 208.919 481.17 208.577C479.516 208.235 477.977 208.064 476.524 208.064C473.674 208.064 471.251 208.719 469.227 210.031C467.204 211.342 465.665 213.28 464.582 215.873C463.498 218.439 462.957 221.602 462.957 225.336C462.957 230.637 464.097 234.77 466.377 237.734C468.657 240.699 471.907 242.152 476.153 242.152C477.521 242.152 478.918 241.981 480.4 241.668C481.854 241.354 483.393 240.927 484.96 240.357L484.02 242.01V229.326L485.302 230.723L479.06 229.64V225.564L496.133 225.251V229.383L490.461 230.723L491.288 229.326V244.689C488.409 245.829 485.616 246.712 482.908 247.311C480.172 247.938 477.607 248.223 475.241 248.223Z" fill="white"/>
<path fill-rule="evenodd" clip-rule="evenodd" d="M271.511 144.647C272.366 144.619 273.193 144.59 274.048 144.59C273.82 141.769 273.164 138.748 273.164 138.748C272.936 138.177 272.794 137.607 272.68 137.094C273.279 131.907 275.872 122.758 276.499 121.276C276.898 120.364 278.523 120.278 280.461 117.913C277.953 119.879 276.3 120.307 276.3 120.307C275.274 122.102 273.592 129.342 272.48 134.244C271.996 136.382 271.625 138.063 271.483 138.633C271.226 139.688 271.34 142.481 271.511 144.647Z" fill="white"/>
<path fill-rule="evenodd" clip-rule="evenodd" d="M286.501 69.0318C287.243 69.5733 288.782 68.0912 289.409 67.6067C287.984 67.6922 286.501 69.0318 286.501 69.0318Z" fill="white"/>
<path fill-rule="evenodd" clip-rule="evenodd" d="M236.653 130.71C236.624 131.137 236.624 131.565 236.567 131.992C240.529 126.606 242.838 120.022 242.838 120.022C244.092 120.791 248.937 121.247 248.937 121.247C244.548 119.936 242.011 118.198 242.011 118.198C242.125 121.304 238.79 127.261 236.653 130.71Z" fill="white"/>
<path fill-rule="evenodd" clip-rule="evenodd" d="M414.987 162.033C414.902 143.593 411.909 125.579 405.81 108.165C404.727 105.058 404.869 104.289 401.734 102.92C398.371 101.438 393.126 100.583 389.421 99.9848C387.055 99.6143 384.376 99.4432 382.153 98.9872C380.243 98.5882 378.448 98.2746 381.811 97.6476C386.656 96.764 391.502 96.536 396.148 94.5979C398.057 93.7998 399.71 93.1158 398.57 90.8071C394.922 83.3681 390.903 76.5276 386.2 69.7157C385.744 69.1171 385.345 68.6612 384.747 68.2051C381.583 66.0105 374.144 65.5829 370.296 65.3264C366.106 65.0414 361.66 64.6424 357.47 64.4999C351.485 64.3289 345.471 63.8158 339.514 63.7018C337.348 63.6448 317.682 62.7897 317.995 62.2482C318.252 61.7922 335.752 60.6521 337.548 60.5096C343.305 60.1106 349.062 59.683 354.82 59.1985C360.235 58.771 367.503 58.0299 372.576 56.3198C374.486 55.6642 374.743 55.1227 373.46 53.6406C363.912 42.9239 352.34 33.2902 340.312 25.5377C335.125 22.431 330.166 21.3479 324.18 21.4334C321.444 21.4619 318.822 21.462 316.086 21.462C311.839 21.462 307.906 22.0035 303.716 22.1745C300.581 22.317 297.075 22.431 293.94 22.4025C288.61 22.374 283.08 22.2885 277.751 21.861C274.444 21.6044 271.11 21.69 267.86 21.3764C266.521 21.2624 265.352 21.1769 264.041 21.0914C262.559 21.0059 262.245 20.6354 260.735 20.7494C257.571 20.9489 254.864 21.1484 251.671 21.1199C249.79 21.0914 244.802 20.9489 243.092 20.4929C241.895 20.1793 239.729 19.9513 242.437 19.4383C247.738 18.4407 253.581 18.6973 258.996 18.0987C265.295 17.4147 271.452 17.0726 277.751 16.6451C281.228 16.4171 284.591 16.0466 288.04 15.79C293.797 15.3625 300.011 14.5929 305.597 13.1393C309.188 12.1988 311.953 11.1442 306.794 9.14908C289.778 3.02116 270.996 0.0285019 252.925 0C222.856 0.228015 196.064 7.49602 170.099 22.7446C163.999 26.3643 156.845 31.1811 151.402 35.7414L151.031 36.0834C146.357 40.3587 174.089 39.9882 175.229 39.9882C185.575 39.9597 195.551 40.8717 205.84 41.5843C206.524 41.6413 215.673 42.2113 213.479 42.2968C211.142 42.4108 208.348 42.2683 205.983 42.2113C205.242 42.2113 197.119 41.9548 197.318 43.0949C197.432 43.7504 191.361 43.9785 190.763 44.0355C187.428 44.2065 184.321 44.406 180.958 44.691C168.503 45.7456 155.591 46.1731 143.279 48.0827C139.801 48.6243 136.752 49.1658 134.186 51.788C127.431 59.0845 121.418 66.837 116.059 75.2166C115.204 76.5562 113.494 79.1499 112.867 80.461C111.556 83.2826 117.741 83.7101 119.394 83.9666C123.071 84.5367 127.203 84.7647 130.795 85.5058C133.217 85.9903 131.194 86.3323 130.196 86.5318C128.172 86.9023 126.234 87.1589 124.211 87.5294C119.736 88.2989 116.601 88.983 112.325 90.6646C109.646 91.7192 106.369 92.6882 105.086 95.5384C95.5948 116.573 90.9205 139.061 90.835 162.09C90.835 168.503 91.234 174.859 91.9465 181.073C117.142 181.073 81.7143 181.13 106.91 181.101C106.967 181.101 107.024 181.073 107.081 181.073H138.633C140.143 180.588 141.654 180.161 143.136 179.648C145.188 178.964 147.24 178.508 149.292 177.852C151.544 177.111 153.625 176.854 155.962 176.484C158.157 176.142 160.237 175.743 162.403 175.344C163.116 175.201 167.306 174.574 167.42 174.118C166.907 173.748 163.686 173.548 162.859 173.434C162.375 173.377 161.434 173.292 162.289 172.864C163.287 172.38 162.09 172.209 162.546 171.753C162.603 171.696 165.367 170.213 165.653 170.071C166.451 169.672 167.249 169.301 168.018 168.931C170.612 167.705 173.405 166.993 176.198 166.48C178.763 166.024 181.842 165.653 184.435 165.767C187.798 165.91 190.791 166.024 194.154 165.881C200.282 165.596 206.581 165.226 212.681 164.684C213.906 164.57 218.894 164.029 214.362 163.573C211.997 163.316 208.975 163.259 206.553 163.288C203.817 163.288 201.337 163.288 198.601 163.117C195.465 162.917 192.045 162.917 188.967 162.404C185.091 161.777 185.062 160.865 188.654 159.468C193.128 157.587 197.632 155.763 202.22 154.224C204.073 153.597 205.954 153.027 207.835 152.514C212.738 151.146 219.293 149.407 224.281 148.894C226.305 148.695 228.357 148.466 230.38 148.238C228.756 145.901 227.388 143.593 227.388 143.593C225.45 140.743 227.559 138.291 227.559 138.291C230.58 124.24 222.77 119.195 222.77 119.195C210.115 137.009 186.601 122.216 186.601 122.216C202.22 120.592 212.253 116.63 215.844 108.621C220.291 98.6736 227.302 95.0824 238.532 94.6834C248.793 94.3984 260.934 91.2346 260.934 91.2346C270.027 89.553 276.154 79.6913 276.154 79.6913C273.789 79.1213 273.276 77.8672 273.276 77.8672L277.551 75.1026C282.282 66.1245 289.351 66.438 289.351 66.438L297.046 60.5096C300.153 60.9941 298.899 65.4404 298.899 65.4404V65.5544L298.927 65.7254C300.495 64.8703 301.208 67.0935 301.208 67.0935C302.433 69.8012 298.243 71.8818 298.243 71.8818C297.645 74.3615 296.847 75.7296 296.847 75.7296C294.823 85.6483 298.614 87.9284 293.028 99.9562C289.322 108.222 285.532 113.181 282.51 116.117C280.772 121.219 277.95 133.446 277.551 135.099C277.095 137.009 277.779 144.02 277.779 144.02C278.976 143.878 279.746 144.163 280.23 144.59C285.133 144.647 290.177 144.875 295.678 145.274C301.008 145.673 318.337 146.756 322.271 149.208C323.04 149.749 323.667 150.319 322.641 151.032C320.218 152.656 305.597 153.739 301.892 154.11C298.671 154.423 295.393 154.708 292.144 154.908C286.615 155.279 281 155.592 275.47 155.906C272.791 156.048 269.342 156.162 266.806 156.761C265.552 157.046 264.44 157.274 263.186 157.502C265.153 157.217 267.148 156.675 269.086 156.476C271.794 156.219 274.615 156.077 277.352 155.906C280.173 155.735 282.995 155.592 285.845 155.449C285.76 155.449 285.674 155.45 285.589 155.478C278.919 155.963 271.879 156.048 265.352 157.302C264.013 157.559 259.994 158.072 264.013 158.499C270.027 159.183 276.155 159.297 282.197 160.038C285.19 160.409 289.351 160.95 292.173 161.891C304.685 166.052 332.617 161.349 298.985 168.76C285.389 175.629 301.664 169.701 286.985 177.082C286.159 177.482 281 177.852 279.717 177.995C279.119 178.052 278.52 178.109 277.922 178.166C276.525 178.28 274.815 178.365 273.475 178.593C270.939 178.992 271.395 179.876 268.345 179.904C264.583 180.503 261.904 180.845 259.709 181.044H338.032C335.21 177.71 317.71 176.455 317.226 176.313C316.057 175.971 322.385 175.714 322.926 175.686C323.297 175.657 323.667 175.629 324.038 175.629C333.158 173.463 343.077 180.56 341.908 171.097C342.193 170.442 341.794 168.104 341.566 167.335C340.911 165.425 339.087 163.63 337.263 162.774C337.234 162.746 335.524 162.176 336.322 162.204C337.263 162.233 338.944 162.86 339.771 163.316C340.711 163.858 341.566 164.428 342.336 165.197C344.303 167.249 344.787 170.499 344.987 173.235C345.129 175.344 346.241 177.909 347.438 179.648C347.723 180.075 348.236 180.56 348.806 181.044H415.073V178.194H414.218C414.674 172.864 414.987 167.477 414.987 162.033Z" fill="white"/>
<path fill-rule="evenodd" clip-rule="evenodd" d="M267.063 142.253C265.895 139.146 266.579 136.724 266.579 136.724C267.177 132.277 265.61 121.931 265.61 121.931C258.769 123.271 253.04 122.444 248.936 121.219C246.855 125.921 243.321 131.137 243.321 131.137C238.789 141.626 245.259 146.329 245.259 146.329C246.342 146.101 247.169 146.129 247.796 146.329C248.965 146.215 250.133 146.101 251.302 145.987C257.088 145.417 262.389 145.018 267.548 144.761C267.32 143.336 267.063 142.253 267.063 142.253Z" fill="white"/>
<path fill-rule="evenodd" clip-rule="evenodd" d="M235.996 136.011C236.424 134.073 236.623 132.306 236.68 130.71C235.711 132.306 234.97 133.36 234.97 133.36C231.635 141.056 234.257 145.645 235.882 147.526C237.136 147.383 238.39 147.241 239.644 147.127C237.706 144.448 235.825 141.313 235.825 141.313C233.887 138.462 235.996 136.011 235.996 136.011Z" fill="white"/>
</svg>
