<svg width="40" height="14" viewBox="0 0 40 14" fill="none" xmlns="http://www.w3.org/2000/svg">
<path fill-rule="evenodd" clip-rule="evenodd" d="M20.6862 4.26248C20.6648 6.12 22.291 7.15511 23.5161 7.77257C24.7747 8.40474 25.1969 8.80983 25.1923 9.37478C25.1828 10.2406 24.188 10.6223 23.2574 10.6371C21.633 10.6632 20.6894 10.1836 19.9379 9.82248L19.353 12.6484C20.1075 13.0063 21.5018 13.3179 22.947 13.3332C26.3428 13.3332 28.5635 11.6027 28.5743 8.92081C28.5886 5.51789 24.0147 5.32996 24.0459 3.80917C24.0563 3.34693 24.4825 2.85531 25.4168 2.7293C25.8795 2.66704 27.1567 2.61882 28.6031 3.30581L29.1713 0.571557C28.3931 0.280246 27.3929 0 26.1472 0C22.9528 0 20.704 1.75298 20.6862 4.26248ZM34.6324 0.235188C34.0113 0.235188 33.4884 0.607253 33.2561 1.18096L28.4062 13.1313H31.7999L32.474 11.2044H36.6202L37.0106 13.1313H40L37.3906 0.235188H34.6324ZM35.1057 3.71988L36.0849 8.56217H33.4039L35.1057 3.71988ZM16.5744 0.235188L13.9006 13.1313H17.1327L19.8055 0.235188H16.5744ZM11.7916 0.235188L8.42762 9.01249L7.06699 1.54955C6.90763 0.716247 6.27675 0.235188 5.57628 0.235188H0.0763194L0 0.608904C1.12879 0.862397 2.41166 1.27096 3.18878 1.70644C3.66429 1.97298 3.80013 2.2055 3.95661 2.83931L6.53355 13.1313H9.95001L15.1866 0.235188H11.7916Z" fill="#001D78"/>
</svg>
