<svg width="26" height="18" viewBox="0 0 26 18" fill="none" xmlns="http://www.w3.org/2000/svg">
<path fill-rule="evenodd" clip-rule="evenodd" d="M24.83 8.12345C24.83 12.3399 19.7318 15.7581 13.4427 15.7581C7.15367 15.7581 2.05566 12.3399 2.05566 8.12345C2.05566 3.9066 7.15367 0.488281 13.4427 0.488281C19.7318 0.488281 24.83 3.9066 24.83 8.12345" fill="#009EE3"/>
<path fill-rule="evenodd" clip-rule="evenodd" d="M9.66203 5.7159C9.66128 5.7174 9.65885 5.72064 9.65531 5.72535C9.63056 5.75832 9.55163 5.86347 9.61596 5.95013C9.79578 6.19062 10.3508 6.32866 10.912 6.1967C11.245 6.11833 11.6714 5.7637 12.0848 5.41985L12.0896 5.41587L12.1101 5.39879C12.5529 5.03011 12.9922 4.66425 13.4339 4.5174C13.9087 4.35898 14.2131 4.42692 14.4141 4.49058C14.6346 4.5596 14.894 4.71176 15.3077 5.03699C16.0868 5.651 19.2198 8.517 19.7611 9.01246C20.1972 8.80613 22.1348 7.93197 24.7679 7.32368C24.5391 5.85251 23.6852 4.50649 22.3902 3.40436C20.5853 4.19895 18.3794 4.61341 16.2226 3.50932L16.2179 3.50705C16.1351 3.4674 15.0066 2.92664 13.8929 2.95414C12.1813 2.99562 11.4401 3.77198 10.6555 4.59375L9.66203 5.7159ZM19.6339 9.32429C19.5972 9.28996 15.95 5.94531 15.1236 5.29447C14.6456 4.91863 14.3796 4.82279 14.1003 4.78542C13.955 4.76557 13.7542 4.794 13.6137 4.83423C13.2294 4.94402 12.7269 5.29608 12.2805 5.66691C11.8185 6.05259 11.3829 6.41573 10.9788 6.5105C10.4623 6.6319 9.83178 6.48868 9.54397 6.28485C9.42745 6.20278 9.34539 6.10766 9.30598 6.0111C9.20084 5.75572 9.39149 5.55089 9.42685 5.5129L9.42796 5.51171L10.4344 4.37096C10.5514 4.24848 10.6693 4.126 10.7897 4.00549C10.4651 4.04983 10.1648 4.13673 9.87255 4.22184C9.50797 4.32948 9.15721 4.43157 8.80235 4.43139C8.6541 4.43139 7.86044 4.29515 7.7098 4.25206C6.79894 3.99083 5.99966 3.73657 4.80559 3.15225C3.37473 4.26851 2.41798 5.66441 2.1416 7.20174C2.2222 7.2241 2.3221 7.25359 2.42217 7.28312L2.42224 7.28314L2.42224 7.28314C2.57739 7.32892 2.73292 7.37482 2.81754 7.39449C6.05544 8.14885 7.06389 8.92628 7.24678 9.08845C7.44502 8.85744 7.73061 8.71136 8.04964 8.71136C8.40791 8.7119 8.7307 8.90053 8.92689 9.19198C9.11234 9.03857 9.36808 8.90751 9.69871 8.90751C9.84867 8.90751 10.0046 8.93683 10.1619 8.99279C10.5272 9.12421 10.7157 9.37901 10.8134 9.60966C10.9359 9.55173 11.0866 9.50899 11.264 9.50953C11.4384 9.50953 11.6197 9.55119 11.8026 9.63398C12.3996 9.90254 12.4925 10.5171 12.4383 10.9803C12.4808 10.9752 12.5236 10.973 12.5671 10.973C13.2749 10.9736 13.8507 11.5765 13.8504 12.3189C13.8504 12.5484 13.7944 12.7644 13.6968 12.954C13.8894 13.0675 14.3804 13.3243 14.8114 13.2669C15.1558 13.2216 15.2867 13.0981 15.3334 13.0287C15.3653 12.981 15.3995 12.9252 15.3679 12.8853L14.4543 11.8214C14.4543 11.8214 14.3038 11.6723 14.3535 11.6149C14.4036 11.5577 14.4924 11.6357 14.5576 11.6929L14.5637 11.6982C15.0287 12.1052 15.5965 12.7194 15.5965 12.7194C15.5978 12.7202 15.5995 12.7223 15.6021 12.7254L15.6021 12.7254C15.6189 12.7458 15.6712 12.809 15.8536 12.8433C16.0343 12.8773 16.354 12.8574 16.5756 12.6668C16.6316 12.6185 16.6874 12.5585 16.7341 12.4966C16.7326 12.4977 16.7313 12.499 16.73 12.5003C16.728 12.5024 16.726 12.5043 16.7239 12.5052C16.9576 12.1919 16.6981 11.8747 16.6981 11.8747L15.6315 10.6195C15.6315 10.6195 15.4788 10.4718 15.5307 10.4123C15.5772 10.3608 15.6753 10.4386 15.742 10.4967C16.0265 10.7461 16.4099 11.1412 16.7969 11.5402C16.8694 11.615 16.9421 11.6899 17.0142 11.764C17.1036 11.8325 17.5056 12.0932 18.0377 11.7267C18.3607 11.5048 18.4257 11.2321 18.4164 11.0261C18.3939 10.7538 18.1912 10.5598 18.1912 10.5598L16.7341 9.02462C16.7341 9.02462 16.5804 8.88677 16.6346 8.81721C16.6792 8.75856 16.7791 8.84296 16.8445 8.90053C17.3089 9.30748 18.5652 10.5148 18.5652 10.5148L18.5654 10.5149C18.5866 10.5305 19.0194 10.8506 19.5537 10.494C19.7454 10.3655 19.8681 10.1716 19.8787 9.9467C19.8969 9.5562 19.6339 9.32429 19.6339 9.32429ZM12.1795 11.3577C12.2797 11.3217 12.4273 11.2687 12.5669 11.2704C13.1192 11.2766 13.5665 11.7397 13.5661 12.3189C13.566 12.8975 13.1183 13.3656 12.5657 13.365C12.0297 13.3645 11.5882 12.9223 11.5682 12.3652C11.5644 12.2607 11.5452 12.2497 11.4744 12.3174C11.3118 12.4749 11.0635 12.6577 10.644 12.4791C10.0926 12.2448 10.0585 11.8325 10.0855 11.6401C10.0945 11.5781 10.0841 11.5584 10.0212 11.6051C9.80977 11.7605 9.55472 11.8511 9.25479 11.7292C8.50686 11.4245 8.56862 10.6759 8.60189 10.4701C8.60428 10.4541 8.6024 10.4463 8.59797 10.442C8.45534 10.5854 8.26188 10.6748 8.04845 10.6742C7.60948 10.6742 7.25377 10.3013 7.25377 9.84139C7.25445 9.38151 7.61034 9.00871 8.04947 9.00924C8.45346 9.0096 8.78324 9.32697 8.83323 9.73589C8.94498 9.5553 9.38514 9.05448 10.0696 9.27405C10.5487 9.42728 10.6208 9.8843 10.6319 10.0533C10.6355 10.0956 10.6491 10.0983 10.6799 10.0651C10.7964 9.93812 11.1355 9.65686 11.6905 9.90683C12.4158 10.2328 12.1182 11.171 12.0966 11.2253C12.0754 11.2802 12.0438 11.3753 12.0616 11.3878C12.074 11.3956 12.1177 11.3799 12.1795 11.3577Z" fill="white"/>
<path fill-rule="evenodd" clip-rule="evenodd" d="M25.2836 8.12806C25.2836 3.65552 19.9814 0.00976562 13.4406 0.00976562C6.9001 0.00976562 1.59804 3.65552 1.59804 8.12806C1.59804 8.20064 1.59751 8.35369 1.59711 8.46746L1.59668 8.60331C1.59668 13.348 6.23099 17.191 13.439 17.191C20.6918 17.191 25.2836 13.3491 25.2836 8.60421V8.12806ZM24.8301 8.12413C24.8301 12.3406 19.732 15.7588 13.4428 15.7588C7.15379 15.7588 2.05578 12.3406 2.05578 8.12413C2.05578 7.95432 2.06404 7.7858 2.08032 7.61875C2.14394 7.6347 2.63442 7.75766 2.73632 7.78172C5.80362 8.49568 6.81718 9.23806 6.98847 9.37842C6.93047 9.5245 6.90027 9.68202 6.89993 9.8408C6.89959 10.5049 7.41498 11.0457 8.04929 11.0463C8.12026 11.0463 8.19072 11.0398 8.25999 11.0264C8.35553 11.5151 8.66074 11.8857 9.127 12.0758C9.26331 12.1307 9.40116 12.159 9.53645 12.159C9.62414 12.1591 9.71218 12.1475 9.79833 12.1246C9.88432 12.3538 10.0781 12.6398 10.5113 12.8241C10.6633 12.8881 10.8151 12.9217 10.9629 12.9217C11.0835 12.9217 11.2014 12.8996 11.3138 12.8561C11.5214 13.3861 12.0157 13.7372 12.5664 13.7372C12.9315 13.7378 13.2819 13.5819 13.5376 13.3061C13.7565 13.4336 14.2184 13.6643 14.685 13.665C14.7455 13.665 14.8022 13.6605 14.8588 13.6534C15.3223 13.592 15.538 13.402 15.6371 13.2543C15.655 13.2285 15.6711 13.2012 15.6849 13.1728C15.7942 13.2058 15.9145 13.2327 16.0524 13.233C16.3055 13.233 16.5485 13.1425 16.794 12.955C17.0354 12.7728 17.2067 12.511 17.2314 12.2882C17.2319 12.2852 17.2324 12.2818 17.2328 12.2786C17.314 12.2963 17.3974 12.3052 17.4808 12.3052C17.7413 12.3052 17.9978 12.2201 18.2428 12.0519C18.7152 11.7271 18.7974 11.3032 18.7895 11.0255C18.8721 11.0438 18.9566 11.0531 19.0405 11.0531C19.2853 11.0531 19.5254 10.9758 19.7545 10.8228C20.0474 10.6268 20.2236 10.3262 20.2503 9.97669C20.2687 9.73906 20.2124 9.49929 20.0928 9.29331C20.8835 8.93635 22.6891 8.2459 24.8162 7.74275C24.8255 7.86909 24.8301 7.99624 24.8301 8.12413ZM24.7525 7.22772C22.1774 7.82738 20.2562 8.69861 19.7748 8.92319C18.6514 7.89562 16.0547 5.5299 15.3515 4.97669C14.9499 4.66003 14.6757 4.49267 14.4352 4.41757C14.3274 4.38342 14.1776 4.34445 13.9851 4.34427C13.8063 4.34427 13.6142 4.37806 13.4136 4.44493C12.96 4.59537 12.5083 4.97147 12.0709 5.33556L12.0684 5.33769L12.0459 5.35628L12.0443 5.35761C11.6369 5.6971 11.216 6.0478 10.8974 6.12245C10.7582 6.15534 10.6148 6.17233 10.472 6.17233C10.1146 6.17179 9.79355 6.06362 9.67328 5.90288C9.65349 5.87624 9.66611 5.83314 9.71269 5.7711L9.71883 5.76305L10.7071 4.64662C11.4812 3.8354 12.2124 3.06941 13.8954 3.029C13.923 3.02811 13.9515 3.02757 13.9793 3.02757C15.027 3.02829 16.0744 3.51981 16.1917 3.57667C17.1741 4.07893 18.1878 4.3339 19.2072 4.33479C20.2677 4.33515 21.3618 4.06049 22.5121 3.50621C23.7125 4.56445 24.5103 5.83917 24.7525 7.22772ZM22.1124 3.17356C21.1019 3.63214 20.1391 3.86383 19.2101 3.86347C18.2596 3.86258 17.3101 3.62334 16.3883 3.15184C16.3395 3.12752 15.1831 2.55607 13.9799 2.55554C13.9485 2.55554 13.9164 2.55607 13.885 2.55661C12.4712 2.5913 11.675 3.11751 11.1395 3.57846C10.6186 3.59169 10.1692 3.72329 9.7695 3.8404L9.76476 3.84178C9.41004 3.94508 9.10332 4.0344 8.80405 4.03422C8.70132 4.03422 8.53023 4.02596 8.46375 4.02275C8.45018 4.0221 8.44097 4.02165 8.43759 4.02153C8.09299 4.01065 6.35994 3.56536 4.97687 3.01782C7.06118 1.46518 10.0819 0.488953 13.4428 0.488953C16.9148 0.488953 20.0238 1.53075 22.1124 3.17356ZM4.56624 3.34126C3.29614 4.39969 2.43847 5.69003 2.1568 7.10261C2.36168 7.16548 2.69004 7.26409 2.83391 7.29824C5.83655 8.01273 6.95844 8.75959 7.24114 8.98595C7.45695 8.76209 7.748 8.63514 8.05049 8.63514C8.39647 8.63514 8.72489 8.80303 8.94224 9.08643C9.16914 8.91711 9.42351 8.832 9.69972 8.832C9.85787 8.832 10.0217 8.86222 10.1861 8.92194C10.484 9.02814 10.7123 9.23216 10.8498 9.51216C10.9808 9.45941 11.1202 9.43349 11.265 9.43349C11.4501 9.43349 11.6407 9.47765 11.8318 9.56419C12.4952 9.86243 12.5435 10.5401 12.5191 10.8979C12.5352 10.8973 12.5521 10.8968 12.5681 10.8968C13.3159 10.8973 13.923 11.5349 13.9227 12.3188C13.9227 12.5267 13.8787 12.734 13.7936 12.9223C13.9804 13.0261 14.3429 13.1989 14.6827 13.1989C14.7232 13.1989 14.764 13.1969 14.8034 13.1914C15.133 13.1479 15.2434 13.0324 15.2758 12.9852C15.2978 12.9521 15.3092 12.9305 15.3102 12.9212L14.4016 11.8711C14.3456 11.8157 14.2136 11.6647 14.3016 11.5639C14.3274 11.5342 14.3605 11.5188 14.3978 11.5188C14.4731 11.5188 14.5458 11.583 14.604 11.6344L14.6048 11.6351C15.0492 12.0238 15.5861 12.5983 15.6444 12.6614L15.6572 12.6755C15.6914 12.7177 15.7622 12.7485 15.8673 12.7681C15.9102 12.7764 15.9599 12.7812 16.0112 12.7812C16.1073 12.7812 16.3501 12.7644 16.5318 12.6081C16.5645 12.5788 16.599 12.5448 16.6307 12.508L16.6684 12.4579C16.8622 12.199 16.6573 11.9391 16.6448 11.9233L16.6445 11.9229L15.5791 10.6688C15.5791 10.6688 15.5394 10.6298 15.5054 10.5828C15.4232 10.4682 15.4462 10.399 15.4791 10.3606C15.5037 10.3336 15.5356 10.3198 15.5711 10.3198C15.6427 10.3198 15.7183 10.3765 15.7888 10.438C16.0755 10.6888 16.4665 11.0921 16.8461 11.4835L16.8559 11.4936L17.0652 11.71C17.1 11.7354 17.2575 11.8425 17.4817 11.8425C17.6525 11.8425 17.8268 11.782 17.9991 11.6631C18.2409 11.497 18.3571 11.2839 18.3456 11.0289C18.326 10.7929 18.146 10.6161 18.144 10.6145L16.6843 9.07678C16.5887 8.99149 16.5077 8.86222 16.5802 8.7687C16.6031 8.73849 16.637 8.72132 16.6756 8.7215C16.7476 8.7215 16.8187 8.7789 16.8921 8.84237C17.275 9.1784 18.2061 10.068 18.5141 10.3622C18.5759 10.4212 18.6126 10.4563 18.6148 10.4582C18.6258 10.4664 18.7936 10.586 19.0374 10.5866C19.1998 10.5866 19.3606 10.5338 19.5161 10.4303C19.6956 10.3103 19.799 10.1371 19.8075 9.94236C19.8237 9.5928 19.5912 9.38253 19.5887 9.38038C19.553 9.34731 15.9055 6.00301 15.0811 5.35414C14.6188 4.99045 14.36 4.89497 14.0919 4.85939C14.0628 4.85492 14.0312 4.85403 13.9978 4.85367C13.886 4.85367 13.7468 4.8737 13.6335 4.90606C13.2282 5.02174 12.6988 5.41582 12.326 5.72604L12.3216 5.7297C11.8554 6.11814 11.4154 6.48483 10.9958 6.5834C10.8644 6.61433 10.7215 6.63024 10.5707 6.63006C10.1726 6.6297 9.74408 6.51563 9.50489 6.34666C9.37711 6.25637 9.28583 6.15052 9.24079 6.03948C9.12768 5.76466 9.29931 5.54152 9.3783 5.45784L10.3825 4.31941C10.4475 4.25111 10.5123 4.18352 10.5773 4.11665C10.3339 4.16547 10.1025 4.23252 9.89285 4.29438L9.88811 4.29577C9.53455 4.3994 9.16938 4.50644 8.80336 4.50644C8.68353 4.50618 8.5636 4.49645 8.44759 4.48703C8.40423 4.48351 8.36142 4.48003 8.31936 4.47712C7.76495 4.43965 6.01112 3.96093 4.56624 3.34126ZM11.6407 12.3621C11.6591 12.8817 12.0662 13.2893 12.5667 13.2899C13.0785 13.2899 13.4952 12.8543 13.4957 12.3183C13.4958 11.7876 13.0794 11.3508 12.5672 11.3449H12.5669C12.4367 11.3445 12.2975 11.3948 12.2048 11.4282L12.2039 11.4286L12.1977 11.4307C12.1384 11.4518 12.1017 11.4648 12.0722 11.4648H12.0522L12.0254 11.4514C11.9705 11.4132 11.9729 11.3468 12.0312 11.1966C12.035 11.1872 12.3436 10.2812 11.6632 9.97526C11.5249 9.91303 11.3908 9.88174 11.2647 9.88121C10.9893 9.88121 10.8134 10.0282 10.7326 10.1165C10.7133 10.1376 10.6862 10.1623 10.6491 10.1623C10.636 10.1623 10.569 10.1576 10.5613 10.0588C10.5502 9.88943 10.4777 9.48248 10.0495 9.3457C9.94335 9.31119 9.83791 9.29402 9.73572 9.29402C9.19883 9.29349 8.90675 9.7564 8.89481 9.77643L8.78818 9.94861L8.76327 9.74514C8.71738 9.36805 8.41063 9.08411 8.05049 9.08411C7.65178 9.08357 7.32695 9.42276 7.32661 9.8408C7.32627 10.2587 7.65076 10.5982 8.04946 10.5987C8.23593 10.5987 8.41319 10.5236 8.54899 10.3865L8.59506 10.3404L8.64419 10.3827C8.66961 10.4044 8.6795 10.4371 8.67456 10.4791C8.64044 10.6863 8.5855 11.3747 9.28157 11.6587C9.36585 11.6928 9.45013 11.71 9.53219 11.71C9.6813 11.71 9.82785 11.6555 9.98088 11.5428C10.0184 11.5151 10.046 11.5036 10.0728 11.5036H10.1058L10.1383 11.5342C10.1651 11.5673 10.1631 11.6097 10.1573 11.6504C10.1358 11.8035 10.1431 12.1842 10.6718 12.4086C10.7781 12.454 10.8789 12.4767 10.9718 12.4767C11.1765 12.4767 11.3167 12.368 11.4266 12.2611C11.466 12.2239 11.5001 12.1992 11.5395 12.1992C11.6351 12.1992 11.6395 12.3176 11.6407 12.3621Z" fill="#273674"/>
</svg>
