<svg width="30" height="30" viewBox="0 0 30 30" fill="none" xmlns="http://www.w3.org/2000/svg">
<path d="M15.1696 2.81217C8.31529 2.71959 2.71959 8.31529 2.81217 15.1696C2.90357 21.7432 8.25611 27.0958 14.8297 27.1872C21.6852 27.2809 27.2797 21.6852 27.186 14.8309C27.0958 8.25611 21.7432 2.90357 15.1696 2.81217ZM22.577 21.987C22.5537 22.0122 22.5251 22.032 22.4932 22.045C22.4614 22.0579 22.4271 22.0637 22.3927 22.0619C22.3584 22.0601 22.3249 22.0508 22.2946 22.0346C22.2642 22.0184 22.2378 21.9958 22.2172 21.9682C21.6931 21.2825 21.0513 20.6955 20.3217 20.2344C18.8299 19.277 16.9397 18.7497 14.9997 18.7497C13.0596 18.7497 11.1694 19.277 9.6776 20.2344C8.94803 20.6953 8.30621 21.2821 7.78209 21.9676C7.7615 21.9952 7.7351 22.0178 7.70478 22.034C7.67445 22.0502 7.64093 22.0595 7.6066 22.0613C7.57227 22.0631 7.53796 22.0573 7.50612 22.0444C7.47427 22.0314 7.44566 22.0116 7.42232 21.9864C5.70299 20.1304 4.72906 17.7051 4.68717 15.1755C4.59166 9.47369 9.27037 4.70123 14.9745 4.68717C20.6786 4.67311 25.3122 9.30494 25.3122 14.9997C25.3141 17.5903 24.3372 20.0861 22.577 21.987V21.987Z" fill="#FFC397"/>
<path d="M14.9999 8.43896C13.8443 8.43896 12.7994 8.87203 12.0569 9.65906C11.3144 10.4461 10.9435 11.5343 11.0273 12.7023C11.1972 15.0024 12.9793 16.8777 14.9999 16.8777C17.0205 16.8777 18.7991 15.0024 18.9725 12.7029C19.0593 11.546 18.6913 10.4678 17.9365 9.66609C17.191 8.87496 16.1479 8.43896 14.9999 8.43896Z" fill="#FFC397"/>
</svg>
