<svg width="30" height="30" viewBox="0 0 30 30" fill="none" xmlns="http://www.w3.org/2000/svg">
<path d="M15.1701 2.81363C8.31578 2.72105 2.72008 8.31676 2.81266 15.1711C2.90406 21.7447 8.2566 27.0972 14.8302 27.1886C21.6857 27.2824 27.2802 21.6867 27.1865 14.8324C27.0962 8.25758 21.7437 2.90504 15.1701 2.81363ZM22.5775 21.9884C22.5542 22.0137 22.5255 22.0335 22.4937 22.0464C22.4619 22.0594 22.4276 22.0652 22.3932 22.0634C22.3589 22.0616 22.3254 22.0523 22.295 22.0361C22.2647 22.0199 22.2383 21.9972 22.2177 21.9697C21.6936 21.284 21.0518 20.6969 20.3222 20.2359C18.8304 19.2785 16.9402 18.7511 15.0002 18.7511C13.0601 18.7511 11.1699 19.2785 9.67808 20.2359C8.94852 20.6967 8.30669 21.2836 7.78258 21.9691C7.76199 21.9966 7.73559 22.0193 7.70526 22.0355C7.67494 22.0517 7.64142 22.061 7.60709 22.0628C7.57276 22.0646 7.53845 22.0588 7.5066 22.0458C7.47476 22.0329 7.44615 22.0131 7.42281 21.9879C5.70348 20.1318 4.72955 17.7066 4.68766 15.1769C4.59215 9.47516 9.27086 4.7027 14.975 4.68863C20.6791 4.67457 25.3127 9.30641 25.3127 15.0011C25.3146 17.5918 24.3377 20.0876 22.5775 21.9884V21.9884Z" fill="#FFC397"/>
<path d="M14.9999 8.4375C13.8443 8.4375 12.7994 8.87057 12.0569 9.6576C11.3144 10.4446 10.9435 11.5329 11.0273 12.7008C11.1972 15.0009 12.9793 16.8762 14.9999 16.8762C17.0205 16.8762 18.7991 15.0009 18.9725 12.7014C19.0593 11.5446 18.6913 10.4663 17.9365 9.66463C17.191 8.8735 16.1479 8.4375 14.9999 8.4375Z" fill="#FFC397"/>
</svg>
