<svg width="23" height="25" viewBox="0 0 23 25" fill="none" xmlns="http://www.w3.org/2000/svg">
<path fill-rule="evenodd" clip-rule="evenodd" d="M14.185 12.357C18.2391 13.2981 21.5071 16.3366 22.8113 20.283C23.1765 21.3616 23.0054 22.5518 22.3519 23.4803C21.6976 24.4081 20.642 24.9597 19.5167 24.9625C15.3067 25 7.73725 25 3.52841 25C2.38806 25 1.31741 24.4419 0.655997 23.5027C-0.00622038 22.5626 -0.179019 21.3562 0.192223 20.2653C1.52825 16.3321 4.80008 13.2974 8.85229 12.3571C6.65389 11.3331 5.12556 9.08304 5.12556 6.47346C5.12556 2.90122 7.99087 0 11.5195 0C15.048 0 17.9133 2.90096 17.9133 6.47346C17.9133 9.08325 16.385 11.3342 14.1856 12.3571L14.185 12.357ZM21.1393 20.8519C19.7936 16.7786 15.9926 13.8391 11.5187 13.8391C7.04239 13.8391 3.23962 16.782 1.86035 20.8463C1.67433 21.3917 1.75976 21.9954 2.09145 22.465C2.42216 22.9355 2.95741 23.2142 3.52806 23.2142C7.73373 23.2142 15.2959 23.2142 19.5017 23.1767H19.5096C20.0678 23.1767 20.5917 22.9035 20.9153 22.4437C21.2399 21.9829 21.3237 21.3928 21.1421 20.8589C21.1411 20.8561 21.1403 20.8535 21.1393 20.8517L21.1393 20.8519ZM11.5187 1.78559C8.96302 1.78559 6.88884 3.88559 6.88884 6.47308C6.88884 9.06057 8.96302 11.1606 11.5187 11.1606C14.0744 11.1606 16.1486 9.06057 16.1486 6.47308C16.1486 3.88559 14.0744 1.78559 11.5187 1.78559Z" fill="#FFC397"/>
</svg>
