<svg width="37" height="38" viewBox="0 0 37 38" fill="none" xmlns="http://www.w3.org/2000/svg">
<path d="M12.5327 35.4467C12.7759 35.4467 13.019 35.4212 13.2366 35.37C15.2584 34.8965 18.24 32.6443 18.1889 29.2916C18.1377 26.2332 16.167 23.1364 15.412 21.9591L15.2712 21.7288C15.0409 21.3577 15.284 20.6922 15.5527 20.0012C15.8215 19.2846 16.1414 18.4784 15.9878 17.7234C15.9494 17.5443 15.7831 17.4291 15.6039 17.4675C15.4248 17.5059 15.3096 17.6722 15.348 17.8514C15.4504 18.4272 15.1944 19.1054 14.9385 19.7709C14.6314 20.5899 14.3115 21.4216 14.7082 22.0743L14.8617 22.3046C15.5783 23.4307 17.485 26.4251 17.5362 29.2916C17.5874 32.2732 14.9129 34.2951 13.0958 34.7173C11.509 35.0884 8.19469 33.7192 7.24774 29.6627C6.42875 26.2076 7.19654 24.0066 7.97714 22.7781C8.47621 21.9847 8.80893 20.9098 8.97528 19.4893L8.98808 19.3998C9.12884 18.2097 9.33359 16.3926 11.573 16.175C11.7394 16.1622 11.8673 16.0215 11.8673 15.8551C11.9185 13.6285 12.9678 11.3123 14.7594 9.49516C16.231 7.99795 19.7373 6.56476 22.898 8.04917C26.4683 9.72552 28.7333 14.793 28.7461 14.8442C29.1812 15.8423 29.0276 17.4675 28.8613 19.0287C28.7205 20.4235 28.5797 21.7544 28.8868 22.6373C28.938 22.8037 29.13 22.906 29.2963 22.8421C29.4627 22.7909 29.5651 22.5989 29.5011 22.4326C29.2452 21.6776 29.3731 20.4235 29.5139 19.0926C29.6802 17.4419 29.8594 15.7399 29.3475 14.5755C29.3219 14.5243 26.9674 9.22644 23.1795 7.46051C19.7245 5.84813 15.9111 7.40933 14.2987 9.0345C12.4688 10.89 11.3682 13.2446 11.2403 15.548C8.74494 15.9447 8.489 18.1201 8.36104 19.3102L8.34824 19.3998C8.19468 20.7178 7.90036 21.7032 7.45248 22.407C6.6079 23.7506 5.77612 26.118 6.63349 29.7906C7.47807 33.5529 10.4213 35.4467 12.5327 35.4467Z" fill="#202B3E"/>
<path d="M33.3144 30.1235C33.3272 30.1235 33.34 30.1235 33.3528 30.1235C34.914 29.9187 36.0273 29.0869 36.552 28.6134C37.5757 27.6921 36.6288 25.9389 35.861 24.5313C35.6562 24.1602 35.4771 23.8147 35.3491 23.5332C35.0036 22.727 34.85 21.4089 34.7221 20.2444C34.6581 19.6174 34.5813 19.0416 34.4917 18.5681C34.223 17.186 31.5485 12.8224 27.9143 12.1314C27.7351 12.093 27.5688 12.2209 27.5304 12.3873C27.492 12.5665 27.6199 12.7328 27.7863 12.7712C31.0878 13.3854 33.6088 17.4548 33.8519 18.6832C33.9415 19.1311 34.0055 19.707 34.0694 20.3084C34.2102 21.5241 34.3638 22.8934 34.7477 23.7891C34.8756 24.0962 35.0676 24.4545 35.2723 24.8384C35.8866 25.9773 36.7311 27.5513 36.0913 28.1272C35.6178 28.5495 34.6325 29.2789 33.2505 29.4708C33.0713 29.4964 32.9433 29.6628 32.9689 29.8419C33.0073 30.0083 33.1481 30.1235 33.3144 30.1235Z" fill="#202B3E"/>
<path d="M27.415 17.685C27.4278 17.685 27.4406 17.685 27.4534 17.685C27.6325 17.6722 27.7605 17.5059 27.7477 17.3267C27.7477 17.3267 27.7221 16.8916 28.0164 16.5333C28.2723 16.2262 28.7074 16.0599 29.2961 16.0087C29.4752 15.9959 29.616 15.8423 29.6032 15.6632C29.5904 15.484 29.4368 15.3432 29.2577 15.356C28.4771 15.42 27.8884 15.6759 27.5173 16.1238C27.0311 16.6997 27.0951 17.3651 27.0951 17.3907C27.1079 17.5571 27.2486 17.685 27.415 17.685Z" fill="#202B3E"/>
<path d="M22.0025 19.2846C22.6167 19.2846 23.2565 18.5168 23.3717 18.3632C23.4357 18.2736 23.4613 18.1585 23.4229 18.0561C23.1669 17.3395 22.5399 16.9044 21.7977 16.9044C20.9275 16.9172 20.1725 17.5186 19.8654 18.4528C19.8142 18.6191 19.9038 18.8111 20.0702 18.8623C20.2365 18.9135 20.4285 18.8239 20.4797 18.6576C20.7484 17.8514 21.3626 17.557 21.7977 17.557C22.2072 17.557 22.5399 17.7618 22.7191 18.1201C22.4631 18.4016 22.1432 18.6575 21.9769 18.6447C21.7977 18.6319 21.6441 18.7727 21.6314 18.9519C21.6186 19.131 21.7593 19.2846 21.9385 19.2974C21.9641 19.2846 21.9769 19.2846 22.0025 19.2846Z" fill="#202B3E"/>
<path d="M26.6856 31.2495C28.4771 31.2495 29.9999 30.7504 30.9853 29.7395C31.945 28.7669 32.5337 27.6536 32.6488 26.6043C32.6744 26.4252 32.5337 26.2588 32.3545 26.246C32.1754 26.2332 32.009 26.3612 31.9962 26.5403C31.8938 27.4361 31.3692 28.4214 30.5246 29.2788C28.7075 31.1215 24.8301 31.0319 20.8503 29.074C20.684 28.9973 20.492 29.0613 20.4153 29.2276C20.3385 29.394 20.4025 29.5859 20.5688 29.6627C22.7059 30.7248 24.8429 31.2495 26.6856 31.2495Z" fill="#202B3E"/>
<path d="M21.9383 37.1102C21.9639 37.1102 22.0023 37.1102 22.0279 37.0974C22.2071 37.0463 22.2966 36.8671 22.2455 36.6879C21.6056 34.4741 22.1687 32.9897 22.6678 31.6845C22.8469 31.211 23.0261 30.7503 23.1156 30.3024C23.154 30.1233 23.0389 29.9569 22.8725 29.9185C22.6933 29.8801 22.527 29.9953 22.4886 30.1744C22.399 30.5711 22.2327 31.0062 22.0663 31.4541C21.5544 32.785 20.9274 34.4485 21.6312 36.8671C21.6696 37.0207 21.7976 37.1102 21.9383 37.1102Z" fill="#202B3E"/>
<path d="M2.58946 31.6589C2.69184 31.6589 2.79421 31.6077 2.85819 31.5182C3.74116 30.2129 5.59668 28.6133 6.67159 28.5109C6.85075 28.4981 6.97871 28.3318 6.96592 28.1526C6.95312 27.9735 6.78676 27.8455 6.60761 27.8583C5.18718 27.9991 3.16532 29.893 2.32074 31.1471C2.21836 31.3006 2.25675 31.5054 2.41031 31.5949C2.47429 31.6461 2.53828 31.6589 2.58946 31.6589Z" fill="#202B3E"/>
<path d="M29.7057 27.564C29.8208 27.564 29.936 27.5 30 27.3848C30.0768 27.2185 30.0256 27.0266 29.8592 26.9498C29.4113 26.7194 29.0402 26.31 28.9123 25.9005C28.8355 25.6445 28.8355 25.4653 28.9123 25.363C29.0914 25.0942 29.7952 25.0303 30.5375 24.9663C30.883 24.9407 31.2541 24.9023 31.638 24.8511C31.7659 24.8383 31.8683 24.736 31.9067 24.608C31.9451 24.48 31.8939 24.3521 31.7915 24.2625C30.6526 23.4051 27.9397 21.0889 27.4279 20.5131C27.3127 20.3723 27.0952 20.3723 26.9672 20.4875C26.8392 20.6026 26.8264 20.8202 26.9416 20.9481C27.4151 21.4728 29.4497 23.2259 30.7806 24.2881C30.691 24.3009 30.5886 24.3009 30.4991 24.3137C29.5265 24.4032 28.7459 24.4672 28.4004 24.9919C28.2085 25.2734 28.1829 25.6317 28.3236 26.0924C28.5156 26.6683 28.9891 27.2057 29.5905 27.5256C29.6033 27.5512 29.6545 27.564 29.7057 27.564Z" fill="#202B3E"/>
<path d="M30.8577 7.81881C31.0369 7.81881 31.1904 7.67803 31.1904 7.48608V5.34905C31.1904 5.1699 31.0497 5.01636 30.8577 5.01636C30.6658 5.01636 30.525 5.1571 30.525 5.34905V7.48608C30.525 7.67803 30.6658 7.81881 30.8577 7.81881Z" fill="#202B3E"/>
<path d="M30.8577 2.80248C31.0369 2.80248 31.1904 2.66171 31.1904 2.46976V0.332725C31.1904 0.153572 31.0497 0 30.8577 0C30.6658 0 30.525 0.140776 30.525 0.332725V2.46976C30.525 2.66171 30.6658 2.80248 30.8577 2.80248Z" fill="#202B3E"/>
<path d="M27.8374 4.24858H29.4114C29.5906 4.24858 29.7441 4.1078 29.7441 3.91585C29.7441 3.72391 29.6034 3.58313 29.4114 3.58313H27.8374C27.6583 3.58313 27.5175 3.72391 27.5175 3.91585C27.5175 4.1078 27.6583 4.24858 27.8374 4.24858Z" fill="#202B3E"/>
<path d="M32.2907 4.24858H33.8647C34.0438 4.24858 34.1846 4.1078 34.1846 3.91585C34.1846 3.72391 34.0438 3.58313 33.8647 3.58313H32.2907C32.1115 3.58313 31.9579 3.72391 31.9579 3.91585C31.9579 4.1078 32.1115 4.24858 32.2907 4.24858Z" fill="#202B3E"/>
<path d="M3.2425 16.866C3.42165 16.866 3.5752 16.7253 3.5752 16.5333V14.8185C3.5752 14.6394 3.43445 14.4858 3.2425 14.4858C3.06335 14.4858 2.90978 14.6266 2.90978 14.8185V16.5333C2.92257 16.7253 3.06335 16.866 3.2425 16.866Z" fill="#202B3E"/>
<path d="M3.2425 12.1057C3.42165 12.1057 3.5752 11.9649 3.5752 11.7857V10.0582C3.5752 9.87904 3.43445 9.72546 3.2425 9.72546C3.06335 9.72546 2.90978 9.86624 2.90978 10.0582V11.7729C2.92257 11.9649 3.06335 12.1057 3.2425 12.1057Z" fill="#202B3E"/>
<path d="M0.516763 13.6284H1.71963C1.89879 13.6284 2.03955 13.4877 2.03955 13.2957C2.03955 13.1166 1.89879 12.963 1.71963 12.963H0.516763C0.33761 12.963 0.184038 13.1038 0.184038 13.2957C0.184038 13.4877 0.33761 13.6284 0.516763 13.6284Z" fill="#202B3E"/>
<path d="M4.7653 13.6284H5.96817C6.14732 13.6284 6.28809 13.4877 6.28809 13.2957C6.28809 13.1166 6.14732 12.963 5.96817 12.963H4.7653C4.58615 12.963 4.43257 13.1038 4.43257 13.2957C4.44537 13.4877 4.58615 13.6284 4.7653 13.6284Z" fill="#202B3E"/>
</svg>
