<svg width="30" height="31" viewBox="0 0 30 31" fill="none" xmlns="http://www.w3.org/2000/svg">
<path d="M15.004 21.012C18.0752 21.012 20.9672 20.6664 23.1426 20.0266C25.4716 19.3484 26.7129 18.427 26.7129 17.3649C26.7129 16.354 25.574 15.4582 23.4242 14.7928C23.2578 14.7416 23.0659 14.8312 23.0147 15.0103C22.9635 15.1767 23.0531 15.3686 23.2322 15.4198C24.9981 15.9701 26.0602 16.6995 26.0602 17.3649C26.0602 18.7853 21.5175 20.3593 15.0168 20.3593C8.50329 20.3593 3.96046 18.7853 3.96046 17.3649C3.96046 16.3412 6.46862 15.0487 11.2674 14.5624C11.4465 14.5496 11.5745 14.3833 11.5617 14.2041C11.5489 14.025 11.3825 13.897 11.2034 13.9098C5.3809 14.5113 3.30785 16.0852 3.30785 17.3649C3.30785 18.427 4.53632 19.3484 6.8781 20.0266C9.04074 20.6536 11.9328 21.012 15.004 21.012Z" fill="#202B3E"/>
<path d="M15.004 27.2055C17.0642 27.2055 19.0477 27.1031 20.8904 26.9112C21.2487 26.8728 21.5686 26.6936 21.7862 26.4121C22.0037 26.1306 22.0933 25.7851 22.0421 25.4268L21.9013 24.4414C21.799 23.7376 21.1335 23.2513 20.4297 23.3537C18.1775 23.6736 16.0661 23.7248 15.0168 23.7248C13.9674 23.7248 11.856 23.6736 9.60379 23.3537C8.89997 23.2513 8.23455 23.7504 8.13218 24.4414L7.9914 25.4268C7.94021 25.7851 8.02979 26.1306 8.24733 26.4121C8.46488 26.6936 8.78479 26.8728 9.1431 26.9112C9.5142 26.9496 9.91091 26.988 10.3076 27.0135C10.4868 27.0263 10.6403 26.8984 10.6531 26.7192C10.6659 26.5401 10.5379 26.3865 10.3588 26.3737C9.96208 26.3353 9.57818 26.3097 9.20708 26.2713C9.02793 26.2585 8.87437 26.169 8.7592 26.0282C8.65683 25.8874 8.60564 25.7211 8.63123 25.5419L8.77201 24.5566C8.82319 24.2111 9.1559 23.968 9.50141 24.0191C11.792 24.3391 13.9419 24.3902 15.0168 24.3902C16.0917 24.3902 18.2287 24.3391 20.5321 24.0191C20.8904 23.968 21.2103 24.2111 21.2615 24.5566L21.4023 25.5419C21.4279 25.7211 21.3767 25.8874 21.2743 26.0282C21.1591 26.169 21.0056 26.2585 20.8264 26.2713C19.0093 26.4633 17.0514 26.5529 15.0168 26.5529C14.4409 26.5529 13.8651 26.5401 13.302 26.5273C13.302 26.5273 13.302 26.5273 13.2892 26.5273C13.1101 26.5273 12.9693 26.668 12.9693 26.8472C12.9693 27.0263 13.1101 27.1799 13.2892 27.1799C13.8395 27.2055 14.4153 27.2055 15.004 27.2055Z" fill="#202B3E"/>
<path d="M15.0035 30.5839C21.581 30.5839 27.3395 29.6242 29.323 28.1909C29.9116 27.7686 30.1547 26.9625 29.8988 26.2587L26.6869 17.2498C26.6229 17.0835 26.4437 16.9939 26.2646 17.0579C26.0982 17.1218 26.0086 17.301 26.0726 17.4802L29.2846 26.489C29.4382 26.9241 29.2974 27.4103 28.9391 27.6791C27.0835 29.0099 21.3507 29.9441 15.0035 29.9441C8.64361 29.9441 2.91073 29.0099 1.06801 27.6791C0.709705 27.4231 0.568916 26.9369 0.722477 26.489L2.84673 20.5385C2.91071 20.3722 2.82114 20.1803 2.65478 20.1163C2.48842 20.0523 2.29647 20.1419 2.23249 20.3082L0.108263 26.2587C-0.147671 26.9753 0.0954666 27.7686 0.684111 28.1909C2.66759 29.6242 8.42606 30.5839 15.0035 30.5839Z" fill="#202B3E"/>
<path d="M20.5568 11.2226C20.672 11.2226 20.7744 11.1714 20.8383 11.0563C21.1711 10.4932 21.3374 9.8534 21.3374 9.20077C21.3374 9.02161 21.1966 8.86804 21.0047 8.86804C20.8127 8.86804 20.672 9.00882 20.672 9.20077C20.672 9.73823 20.5312 10.2629 20.2625 10.7236C20.1729 10.8771 20.2241 11.0819 20.3777 11.1714C20.4416 11.2098 20.5056 11.2226 20.5568 11.2226Z" fill="#202B3E"/>
<path d="M17.6652 15.292C21.0179 15.292 23.7563 12.5663 23.7563 9.2008C23.7563 5.0035 19.3927 0 17.6652 0C16.731 0 15.3618 1.29247 14.3892 2.50815C14.274 2.64892 14.2997 2.85368 14.4404 2.96884C14.5812 3.08401 14.7859 3.0584 14.9011 2.91764C16.0912 1.43323 17.2045 0.652641 17.6779 0.652641C18.9704 0.652641 23.1165 5.29783 23.1165 9.2008C23.1165 12.1952 20.6724 14.6394 17.6779 14.6394C14.6835 14.6394 12.2394 12.1952 12.2394 9.2008C12.2394 7.99792 12.6489 6.60307 13.4167 5.15705C13.5063 5.00349 13.4423 4.79876 13.2759 4.72198C13.1224 4.6324 12.9176 4.69637 12.8408 4.86272C12.0219 6.39832 11.5868 7.90832 11.5868 9.21358C11.5868 12.5535 14.3124 15.292 17.6652 15.292Z" fill="#202B3E"/>
<path d="M4.89395 9.38002C5.0731 9.38002 5.21387 9.23927 5.21387 9.04732V7.30697C5.21387 7.12782 5.0731 6.97424 4.89395 6.97424C4.7148 6.97424 4.56123 7.11502 4.56123 7.30697V9.04732C4.56123 9.22648 4.7148 9.38002 4.89395 9.38002Z" fill="#202B3E"/>
<path d="M4.89395 4.37648C5.0731 4.37648 5.21387 4.2357 5.21387 4.04375V2.3034C5.21387 2.12424 5.0731 1.9707 4.89395 1.9707C4.7148 1.9707 4.56123 2.11145 4.56123 2.3034V4.04375C4.56123 4.2357 4.7148 4.37648 4.89395 4.37648Z" fill="#202B3E"/>
<path d="M2.13003 6.00172H3.26895C3.4481 6.00172 3.58887 5.86095 3.58887 5.669C3.58887 5.47705 3.4481 5.3363 3.26895 5.3363H2.13003C1.95088 5.3363 1.79734 5.47705 1.79734 5.669C1.79734 5.86095 1.95088 6.00172 2.13003 6.00172Z" fill="#202B3E"/>
<path d="M6.51919 6.00172H7.6453C7.82446 6.00172 7.97803 5.86095 7.97803 5.669C7.97803 5.47705 7.83725 5.3363 7.6453 5.3363H6.51919C6.34004 5.3363 6.1865 5.47705 6.1865 5.669C6.1865 5.86095 6.34004 6.00172 6.51919 6.00172Z" fill="#202B3E"/>
</svg>
