<svg width="42" height="27" viewBox="0 0 42 27" fill="none" xmlns="http://www.w3.org/2000/svg">
<path d="M21.3712 26.7194C22.0366 26.7194 22.702 26.553 23.2907 26.2203C23.8793 25.9004 24.404 25.4269 24.8007 24.8511L27.3088 21.2168C27.4752 20.9865 27.7183 20.8457 27.9742 20.8457C28.2302 20.8457 28.4861 20.9865 28.6397 21.2168L31.1478 24.8511C31.954 26.0156 33.2336 26.7194 34.5773 26.7194C36.612 26.7194 38.3267 25.2094 38.7618 23.0596L41.8586 7.81876C41.8586 7.80596 41.8586 7.79313 41.8586 7.78033C41.8842 7.53719 41.897 7.29411 41.897 7.06377C41.897 3.17359 38.3267 0.0128091 33.9247 0.0128091C29.5354 0.0128091 25.9524 3.17359 25.9524 7.06377C25.9524 7.24292 26.0931 7.38368 26.2851 7.38368C26.4642 7.38368 26.605 7.24292 26.605 7.06377C26.605 3.5319 29.8937 0.66545 33.9247 0.66545C37.9556 0.66545 41.2443 3.5319 41.2443 7.06377C41.2443 7.28131 41.2315 7.4988 41.206 7.71635L38.122 22.9443C37.7509 24.7871 36.292 26.0795 34.5773 26.0795C33.4512 26.0795 32.3635 25.4909 31.6853 24.4928L29.1771 20.8585C28.8956 20.449 28.4477 20.2059 27.9742 20.2059C27.5008 20.2059 27.0529 20.449 26.7713 20.8585L24.2632 24.4928C23.9177 24.979 23.4826 25.3885 22.9835 25.6573C22.4845 25.926 21.9342 26.0795 21.3712 26.0795C19.6564 26.0795 18.1976 24.7871 17.8137 22.9443L16.2717 15.3303L14.7297 7.71635C14.7041 7.4988 14.6913 7.28131 14.6913 7.06377C14.6913 3.5319 17.9801 0.66545 22.011 0.66545C23.4058 0.66545 24.7623 1.01092 25.9268 1.65075C26.0803 1.74033 26.2851 1.67635 26.3747 1.52279C26.4642 1.36923 26.4002 1.16448 26.2467 1.07491C24.9798 0.37109 23.521 0 22.011 0C17.6217 0 14.0387 3.16078 14.0387 7.05096C14.0387 7.2941 14.0515 7.55 14.0771 7.79314C14.0771 7.80594 14.0771 7.80596 14.0771 7.81876L17.1611 23.0596C17.6218 25.2094 19.3493 26.7194 21.3712 26.7194Z" fill="#202B3E"/>
<path d="M16.6237 7.38367C16.8028 7.38367 16.9564 7.24291 16.9564 7.06375C16.9564 4.77316 19.2342 2.91759 22.0238 2.91759C22.203 2.91759 22.3438 2.77688 22.3438 2.58493C22.3438 2.39298 22.203 2.26501 22.0238 2.26501C18.8759 2.26501 16.3037 4.41485 16.3037 7.06375C16.2909 7.23011 16.4445 7.38367 16.6237 7.38367Z" fill="#202B3E"/>
<path d="M36.484 21.7415C36.6375 21.7415 36.7783 21.6391 36.8039 21.4855L38.4418 13.4364C38.4802 13.2573 38.3651 13.0909 38.1859 13.0525C38.0067 13.0142 37.8404 13.1293 37.802 13.3085L36.164 21.3576C36.1256 21.5367 36.2408 21.7031 36.42 21.7415C36.4328 21.7415 36.4584 21.7415 36.484 21.7415Z" fill="#202B3E"/>
<path d="M6.74428 26.2848C3.02125 26.2848 0 23.2635 0 19.5405C0 15.8175 3.02125 12.7963 6.74428 12.7963C10.4673 12.7963 13.4885 15.8175 13.4885 19.5405C13.5004 23.2635 10.4673 26.2848 6.74428 26.2848ZM6.74428 13.4029C3.3543 13.4029 0.606625 16.1624 0.606625 19.5405C0.606625 22.9305 3.36619 25.6782 6.74428 25.6782C10.1343 25.6782 12.8819 22.9186 12.8819 19.5405C12.8938 16.1505 10.1343 13.4029 6.74428 13.4029Z" fill="#202B3E"/>
<path d="M5.88813 21.8838C5.80486 21.8838 5.7335 21.848 5.67402 21.8005L3.30698 19.4334C3.18804 19.3145 3.18804 19.1242 3.30698 19.0052C3.42593 18.8863 3.61624 18.8863 3.73519 19.0052L5.88813 21.1582L9.76579 17.2805C9.88473 17.1615 10.0751 17.1615 10.194 17.2805C10.3129 17.3994 10.3129 17.5898 10.194 17.7087L6.10223 21.8005C6.04276 21.8599 5.97139 21.8838 5.88813 21.8838Z" fill="#202B3E"/>
</svg>
