<svg width="34" height="35" viewBox="0 0 34 35" fill="none" xmlns="http://www.w3.org/2000/svg">
<path d="M22.7459 27.1463C22.1683 27.1463 21.488 26.9025 20.5125 26.1837C18.9208 25.0028 18.0223 24.0786 17.5474 22.2815C17.4961 22.1018 17.5987 21.9221 17.7784 21.8836C17.9453 21.8323 18.1378 21.935 18.1763 22.1147C18.6128 23.732 19.4086 24.5535 20.9104 25.6574C22.4892 26.8254 23.054 26.5302 23.7086 26.1964C24.2477 25.9269 24.6841 23.886 24.5172 22.4356C24.4916 22.2687 24.3889 21.935 24.2734 21.5499C23.8883 20.3433 23.2978 18.5335 23.8113 17.1216C23.8755 16.9547 24.0552 16.8648 24.2349 16.929C24.4017 16.9932 24.4916 17.1729 24.4274 17.3526C24.0038 18.5463 24.5429 20.2407 24.9023 21.3574C25.0435 21.7938 25.159 22.1403 25.1847 22.3714C25.3259 23.6036 25.0435 26.2735 24.0166 26.7869C23.5931 26.9794 23.208 27.1463 22.7459 27.1463Z" fill="#202B3E"/>
<path d="M5.44282 26.6843C5.28879 26.6843 5.14759 26.5688 5.12192 26.4019C5.09625 26.2222 5.22461 26.0553 5.40431 26.0297C11.1933 25.1825 13.6962 21.152 14.3124 19.9326C14.3509 19.8428 14.4022 19.753 14.4536 19.6503C15.2879 18.0073 17.2261 14.1565 20.987 13.5019C25.2356 12.7574 27.4177 14.593 27.8157 14.9652C28.2777 15.4016 28.2649 15.9279 28.2521 16.3515C28.2392 16.5953 28.2392 16.8135 28.3162 16.9676C28.5088 17.2885 30.447 17.9559 31.2813 18.2383C31.6536 18.3667 31.9745 18.4694 32.1927 18.5592C32.5906 18.7132 32.873 18.9956 32.9885 19.355C33.181 19.9712 32.9243 20.8183 32.2312 21.858C31.1786 23.4368 28.3933 24.5921 24.7607 23.3727C24.5939 23.3213 24.4912 23.1288 24.5553 22.9619C24.6067 22.795 24.7992 22.6923 24.9661 22.7565C28.2777 23.8604 30.7679 22.8849 31.6921 21.4986C32.4494 20.3562 32.4494 19.7915 32.3724 19.5604C32.321 19.3807 32.1798 19.2652 31.9616 19.1753C31.7562 19.0983 31.4353 18.9828 31.0759 18.8673C28.9965 18.1613 27.9697 17.7377 27.7386 17.2756C27.5846 16.9676 27.5974 16.6467 27.5974 16.3515C27.6103 15.9407 27.5974 15.684 27.3664 15.453C27.007 15.1192 25.0431 13.4634 21.1025 14.1565C17.6625 14.7598 15.827 18.4052 15.044 19.9583C14.9927 20.061 14.9413 20.1637 14.9028 20.2407C14.2354 21.5243 11.604 25.7986 5.507 26.6843C5.48133 26.6843 5.45565 26.6843 5.44282 26.6843Z" fill="#202B3E"/>
<path d="M20.204 34.6937C20.1655 34.6937 20.127 34.6808 20.0884 34.668C19.9216 34.6038 19.8317 34.4113 19.9087 34.2445C20.5249 32.6656 21.064 29.4182 21.3464 27.6853C21.4362 27.1206 21.5004 26.7227 21.5517 26.5301C21.5902 26.3504 21.7699 26.2477 21.9368 26.2862C22.1165 26.3248 22.2192 26.5045 22.1807 26.6713C22.1422 26.8382 22.078 27.2618 21.9881 27.7881C21.6929 29.5594 21.1538 32.8453 20.512 34.4883C20.4607 34.6167 20.3323 34.6937 20.204 34.6937Z" fill="#202B3E"/>
<path d="M21.0383 31.5875C21.0255 31.5875 21.0255 31.5875 21.0383 31.5875C18.0219 31.549 14.7359 30.3296 12.4768 28.4043C12.3356 28.2887 12.3228 28.0833 12.4383 27.9422C12.5539 27.801 12.7592 27.7881 12.9004 27.9037C15.4804 30.0858 18.8049 30.8944 21.0512 30.9329C21.2309 30.9329 21.3721 31.0869 21.3721 31.2666C21.3592 31.4463 21.2052 31.5875 21.0383 31.5875Z" fill="#202B3E"/>
<path d="M18.4584 28.3401C18.4327 28.3401 18.407 28.3401 18.3814 28.3273C16.2763 27.8395 13.247 25.6446 11.7709 23.5267C11.6682 23.3727 11.7067 23.1801 11.8479 23.0646C12.0019 22.9619 12.1945 23.0004 12.31 23.1416C13.7091 25.144 16.5587 27.2234 18.5354 27.6855C18.7151 27.724 18.8178 27.9037 18.7793 28.0834C18.7408 28.2375 18.6124 28.3401 18.4584 28.3401Z" fill="#202B3E"/>
<path d="M11.1932 24.361C11.129 24.361 11.0777 24.3482 11.0263 24.3097C7.90724 22.41 2.07978 17.25 0.0132168 9.95924C-0.0381264 9.77954 0.0645585 9.59984 0.24426 9.5485C0.411126 9.49715 0.603664 9.59982 0.642171 9.77952C2.65739 16.8649 8.33083 21.8965 11.3729 23.7449C11.5269 23.8347 11.5783 24.0401 11.4884 24.1941C11.4114 24.3097 11.2959 24.361 11.1932 24.361Z" fill="#202B3E"/>
<path d="M12.6822 16.3001C8.44635 16.3001 5.00635 12.8601 5.00635 8.62428C5.00635 4.38846 8.44635 0.948486 12.6822 0.948486C16.918 0.948486 20.358 4.38846 20.358 8.62428C20.358 9.7795 20.1013 10.8962 19.6135 11.9231C19.5365 12.09 19.344 12.1542 19.1771 12.0771C19.0102 12.0001 18.946 11.8076 19.0231 11.6407C19.4723 10.6908 19.7034 9.67682 19.7034 8.62428C19.7034 4.74786 16.5586 1.60309 12.6822 1.60309C8.80575 1.60309 5.66098 4.74786 5.66098 8.62428C5.66098 12.5007 8.81858 15.6455 12.6822 15.6455C13.2084 15.6455 13.7347 15.5813 14.2353 15.4658C14.415 15.4273 14.5819 15.53 14.6332 15.7097C14.6717 15.8894 14.569 16.0562 14.3893 16.1076C13.8246 16.2359 13.2598 16.3001 12.6822 16.3001Z" fill="#202B3E"/>
<path d="M11.5911 11.2557C11.5013 11.2557 11.4242 11.23 11.3601 11.1658L8.89559 8.70133C8.76723 8.57298 8.76723 8.36759 8.89559 8.23923C9.02394 8.11087 9.22932 8.11087 9.35768 8.23923L11.5911 10.4727L15.981 6.08284C16.1093 5.95448 16.3147 5.95448 16.443 6.08284C16.5714 6.2112 16.5714 6.41655 16.443 6.54491L11.8222 11.1658C11.758 11.2171 11.681 11.2557 11.5911 11.2557Z" fill="#202B3E"/>
</svg>
